<svg width="24" height="25" viewBox="0 0 24 25" fill="none" xmlns="http://www.w3.org/2000/svg">
<g clip-path="url(#clip0_436_1376)">
<path d="M6.5 2.37476H13.8333C16.4524 2.37476 18.5833 4.50572 18.5833 7.12476V14.4581C18.5833 17.0771 16.4524 19.2081 13.8333 19.2081H1.91667C1.87246 19.2081 1.83007 19.1905 1.79882 19.1593C1.76756 19.128 1.75 19.0856 1.75 19.0414V7.12476C1.75 4.50572 3.88096 2.37476 6.5 2.37476Z" stroke="#101827" stroke-width="1.5"/>
<path d="M13.375 9.87476H18.875C21.1499 9.87476 23 11.7248 23 13.9998V22.9373C23 23.1196 22.9276 23.2945 22.7986 23.4234C22.6697 23.5523 22.4948 23.6248 22.3125 23.6248H13.375C11.1001 23.6248 9.25 21.7747 9.25 19.4998V13.9998C9.25 11.7248 11.1001 9.87476 13.375 9.87476Z" fill="#101827"/>
</g>
<defs>
<clipPath id="clip0_436_1376">
<rect width="22" height="22" fill="white" transform="translate(1 1.62476)"/>
</clipPath>
</defs>
</svg>
