<svg width="24" height="25" viewBox="0 0 24 25" fill="none" xmlns="http://www.w3.org/2000/svg">
<g clip-path="url(#clip0_436_1524)">
<path d="M13.2818 4.18916L21.8017 18.765C21.9316 18.9873 22 19.2394 22 19.496C22 19.7527 21.9316 20.0048 21.8017 20.2271C21.6718 20.4493 21.4849 20.6339 21.2599 20.7622C21.0349 20.8906 20.7797 20.9581 20.5199 20.9581H3.48013C3.22031 20.9581 2.96507 20.8906 2.74006 20.7622C2.51505 20.6339 2.3282 20.4493 2.1983 20.2271C2.06839 20.0048 2 19.7527 2 19.496C2 19.2394 2.06839 18.9873 2.19831 18.765L10.7182 4.18916C11.2875 3.21445 12.7115 3.21445 13.2818 4.18916ZM12 15.7415C11.7383 15.7415 11.4873 15.8442 11.3022 16.027C11.1172 16.2097 11.0132 16.4577 11.0132 16.7162C11.0132 16.9747 11.1172 17.2226 11.3022 17.4054C11.4873 17.5882 11.7383 17.6909 12 17.6909C12.2617 17.6909 12.5127 17.5882 12.6978 17.4054C12.8828 17.2226 12.9868 16.9747 12.9868 16.7162C12.9868 16.4577 12.8828 16.2097 12.6978 16.027C12.5127 15.8442 12.2617 15.7415 12 15.7415ZM12 8.91847C11.7583 8.91851 11.525 9.00615 11.3444 9.1648C11.1638 9.32344 11.0484 9.54205 11.0201 9.77915L11.0132 9.89319V13.792C11.0135 14.0405 11.1098 14.2794 11.2825 14.4601C11.4551 14.6407 11.6911 14.7494 11.9422 14.764C12.1932 14.7786 12.4405 14.6979 12.6333 14.5384C12.8262 14.379 12.9502 14.1528 12.9799 13.9061L12.9868 13.792V9.89319C12.9868 9.63468 12.8828 9.38675 12.6978 9.20396C12.5127 9.02117 12.2617 8.91847 12 8.91847Z" fill="#101827"/>
</g>
<defs>
<clipPath id="clip0_436_1524">
<rect width="20" height="20" fill="white" transform="translate(2 2.62476)"/>
</clipPath>
</defs>
</svg>
