<svg width="24" height="25" viewBox="0 0 24 25" fill="none" xmlns="http://www.w3.org/2000/svg">
<path fill-rule="evenodd" clip-rule="evenodd" d="M11.4357 3.63213L11.0009 3.67717C8.89086 3.88771 6.76509 4.97533 5.32763 6.58085C3.73808 8.35638 2.93036 10.5598 3.00471 12.9072C3.13426 16.9616 5.92244 20.3944 9.87771 21.3717C11.0422 21.653 12.251 21.7003 13.434 21.5109C14.6169 21.3215 15.7504 20.8991 16.7687 20.2683C18.7715 19.0212 20.2049 17.0388 20.7612 14.747C20.9549 13.9577 21 13.5558 21 12.6224C21 11.689 20.9549 11.2871 20.7612 10.4978C19.869 6.85557 16.8679 4.17594 13.1334 3.6873C12.8135 3.64565 11.6497 3.60849 11.4357 3.63213ZM12.9678 5.37502C14.2335 5.54054 15.4339 6.03385 16.4499 6.80603C16.8205 7.083 17.5494 7.81145 17.8265 8.18187C18.4585 9.02742 18.926 10.0216 19.1378 10.973C19.3777 12.0595 19.3777 13.1853 19.1378 14.2718C18.6714 16.3671 17.1946 18.2271 15.2366 19.1841C14.5305 19.5287 13.7755 19.7626 12.9982 19.8776C12.5206 19.9508 11.4932 19.9508 11.0155 19.8776C8.82102 19.5444 6.96899 18.3476 5.80302 16.5078C5.51622 16.0326 5.27699 15.5303 5.0888 15.0082C4.82142 14.2415 4.6899 13.4342 4.70015 12.6224C4.70015 11.4526 4.92658 10.455 5.42789 9.42486C5.81091 8.63898 6.20069 8.0963 6.83944 7.45792C7.40512 6.87309 8.07184 6.39517 8.8075 6.04718C10.0974 5.41729 11.545 5.1834 12.9678 5.37502ZM11.6757 8.44533C11.4233 8.52752 11.2802 8.67163 11.2104 8.91257C11.1698 9.04993 11.1653 9.36406 11.1721 11.2893C11.1811 13.5073 11.1811 13.5085 11.2464 13.6312C11.3332 13.7876 11.4707 13.9099 11.6362 13.978C11.7849 14.0298 12.2288 14.0298 12.3775 13.978C12.543 13.9099 12.6805 13.7876 12.7673 13.6312C12.8326 13.5085 12.8326 13.5073 12.8416 11.2893C12.8506 8.86641 12.8506 8.86416 12.6783 8.66037C12.5386 8.49374 12.3888 8.43857 12.0519 8.42957C11.9263 8.42245 11.8003 8.42773 11.6757 8.44533ZM11.7658 15.4709C11.5405 15.5516 11.3531 15.7129 11.2397 15.9235C11.1585 16.1255 11.1485 16.349 11.2115 16.5574C11.2728 16.7202 11.3811 16.8612 11.5227 16.9625C11.6643 17.0637 11.8328 17.1206 12.0069 17.126C12.3482 17.126 12.6963 16.8783 12.8022 16.5574C12.8652 16.349 12.8553 16.1255 12.774 15.9235C12.6807 15.7591 12.5454 15.6224 12.382 15.5272C12.2513 15.4596 11.8987 15.427 11.7658 15.4709Z" fill="#101827"/>
</svg>
