<svg width="24" height="25" viewBox="0 0 24 25" fill="none" xmlns="http://www.w3.org/2000/svg">
<path d="M6.75764 20.7813H4.14119C3.90988 20.7813 3.68805 20.6894 3.52449 20.5259C3.36093 20.3623 3.26904 20.1405 3.26904 19.9092V12.932C3.26904 12.7007 3.36093 12.4788 3.52449 12.3153C3.68805 12.1517 3.90988 12.0598 4.14119 12.0598H6.75764C6.98895 12.0598 7.21079 12.1517 7.37435 12.3153C7.53791 12.4788 7.62979 12.7007 7.62979 12.932V19.9092C7.62979 20.1405 7.53791 20.3623 7.37435 20.5259C7.21079 20.6894 6.98895 20.7813 6.75764 20.7813ZM12.8627 20.7813H10.2462C10.0149 20.7813 9.7931 20.6894 9.62954 20.5259C9.46598 20.3623 9.37409 20.1405 9.37409 19.9092V10.3155C9.37409 10.0842 9.46598 9.86237 9.62954 9.69881C9.7931 9.53525 10.0149 9.44336 10.2462 9.44336H12.8627C13.094 9.44336 13.3158 9.53525 13.4794 9.69881C13.643 9.86237 13.7348 10.0842 13.7348 10.3155V19.9092C13.7348 20.1405 13.643 20.3623 13.4794 20.5259C13.3158 20.6894 13.094 20.7813 12.8627 20.7813Z" fill="#101827"/>
<path d="M16.3514 20.7813H18.9678C19.1992 20.7813 19.421 20.6895 19.5846 20.5259C19.7481 20.3623 19.84 20.1405 19.84 19.9092V5.34041C19.84 5.1091 19.7481 4.88727 19.5846 4.72371C19.421 4.56015 19.1992 4.46826 18.9678 4.46826H16.3514C16.1201 4.46826 15.8983 4.56015 15.7347 4.72371C15.5711 4.88727 15.4792 5.1091 15.4792 5.34041V19.9092C15.4792 20.1405 15.5711 20.3623 15.7347 20.5259C15.8983 20.6895 16.1201 20.7813 16.3514 20.7813Z" fill="#101827"/>
</svg>
