<svg width="24" height="25" viewBox="0 0 24 25" fill="none" xmlns="http://www.w3.org/2000/svg">
<path d="M8.48083 19.0508C8.77468 19.7795 9.26495 20.401 9.89065 20.8378C10.5164 21.2746 11.2499 21.5074 11.9999 21.5074C12.75 21.5074 13.4835 21.2746 14.1092 20.8378C14.7349 20.401 15.2252 19.7795 15.519 19.0508" stroke="#101827" stroke-width="1.75"/>
<path d="M4.81351 17.2652C4.70607 17.3829 4.63517 17.5294 4.60943 17.6867C4.58369 17.844 4.60422 18.0054 4.66852 18.1513C4.73282 18.2971 4.83813 18.4212 4.97163 18.5083C5.10513 18.5954 5.26107 18.6418 5.42047 18.6419H18.5796C18.7389 18.642 18.8949 18.5957 19.0285 18.5088C19.1621 18.4218 19.2675 18.2979 19.332 18.1522C19.3965 18.0064 19.4172 17.8451 19.3917 17.6877C19.3661 17.5304 19.2954 17.3839 19.1882 17.266C18.0943 16.1384 16.9347 14.9401 16.9347 11.24C16.9347 9.9312 16.4148 8.67605 15.4893 7.75062C14.5639 6.8252 13.3088 6.3053 12 6.3053C10.6913 6.3053 9.43611 6.8252 8.51069 7.75062C7.58526 8.67605 7.06536 9.9312 7.06536 11.24C7.06536 14.9401 5.90489 16.1384 4.81351 17.2652Z" stroke="#101827" stroke-width="1.75" stroke-linecap="round" stroke-linejoin="round"/>
<path d="M20.2245 11.24C20.2245 9.34834 19.5665 7.70345 18.5796 6.3053M5.42052 6.3053C4.43359 7.70345 3.77563 9.34834 3.77563 11.24" stroke="#101827" stroke-width="1.75" stroke-linecap="round" stroke-linejoin="round"/>
<line x1="11.8647" y1="5.4303" x2="11.8647" y2="2.96216" stroke="#101827" stroke-width="1.75" stroke-linecap="round"/>
</svg>
