<svg width="24" height="25" viewBox="0 0 24 25" fill="none" xmlns="http://www.w3.org/2000/svg">
<path d="M7.8999 2.62476H13.2999V10.8986C13.2999 11.1092 13.0553 11.2255 12.892 11.0924L10.5999 9.22476L8.30782 11.0924C8.1445 11.2255 7.8999 11.1092 7.8999 10.8986V2.62476Z" fill="#101827"/>
<path d="M5 4.62476C5 3.52019 5.89543 2.62476 7 2.62476H19.4V18.6248H7C5.89543 18.6248 5 17.7293 5 16.6248V4.62476Z" stroke="#101827" stroke-width="1.5" stroke-linejoin="round"/>
<path d="M5 14.2245V20.6245C5 21.7291 5.89543 22.6245 7 22.6245H19.4C19.4 22.6245 18.2 21.9685 18.2 20.6245C18.2 19.2805 19.4 18.6245 19.4 18.6245" stroke="#101827" stroke-width="1.5" stroke-linejoin="round"/>
</svg>
