<svg width="24" height="25" viewBox="0 0 24 25" fill="none" xmlns="http://www.w3.org/2000/svg">
<path d="M15.9211 10.4867L16.6711 10.4867L16.6711 10.0544L16.297 9.83768L15.9211 10.4867ZM15.1711 14.4107C15.1711 14.8249 15.5069 15.1607 15.9211 15.1607C16.3354 15.1607 16.6711 14.8249 16.6711 14.4107L15.1711 14.4107ZM6.78062 6.05966L15.5453 11.1357L16.297 9.83768L7.53237 4.76163L6.78062 6.05966ZM15.1711 10.4867L15.1711 14.4107L16.6711 14.4107L16.6711 10.4867L15.1711 10.4867Z" fill="#101827"/>
<path fill-rule="evenodd" clip-rule="evenodd" d="M3.14532 9.04183L3.14532 9.04183L3.1565 9.04779L4.14459 9.57477L11.1843 13.3293L11.2152 13.3457V21.7926L11.2144 21.7922L3.20753 17.6932L3.1906 17.6845C2.85584 17.5131 2.64438 17.1628 2.64438 16.7796L2.64439 12.9108V12.9107L2.64454 10.4747L2.64461 9.33403L2.64462 9.0418C2.64463 8.95608 2.65522 8.872 2.6754 8.79121L2.9196 8.92145L3.14532 9.04183ZM12.1543 21.7635L20.105 17.6932L20.1219 17.6845C20.4567 17.5131 20.6681 17.1628 20.6681 16.7796L20.6681 12.9107L20.6681 10.5449V9.40807V9.36121V9.04182C20.6681 8.97997 20.6626 8.91898 20.652 8.85946L20.4582 8.9611L20.3044 9.04182L20.1562 9.11953L19.1681 9.63792L12.1543 13.3176V21.7635ZM11.1314 12.1603L5.0054 8.89311L3.92325 8.31597L3.39327 8.03331L3.92827 7.75941L5.0196 7.20069L11.2144 4.0292L11.2314 4.02069C11.5001 3.88961 11.8124 3.88961 12.0812 4.02069L12.0982 4.02919L18.3564 7.23306L19.4531 7.79452L19.9905 8.06965L19.4561 8.35003L18.3649 8.92253L12.1866 12.1638L12.0924 12.2132L11.658 12.4411L11.2255 12.2105L11.1314 12.1603ZM20.5638 7.23198L20.5444 7.22202L20.4494 7.1734L12.557 3.13293L12.5401 3.12427C11.9837 2.83943 11.3288 2.83944 10.7724 3.12428L10.7555 3.13295L2.93442 7.13706L2.84612 7.18227L2.74892 7.23203C2.22586 7.49982 1.85331 7.98604 1.71536 8.55142C1.69443 8.6372 1.6789 8.7248 1.66906 8.81374C1.66075 8.88889 1.6565 8.96498 1.6565 9.04174L1.65626 12.9106L1.65626 12.9107L1.65626 12.9108L1.65625 16.7796C1.65625 17.5396 2.07207 18.2349 2.73181 18.5807L2.7487 18.5894L10.7555 22.6885L10.7725 22.6971C11.3288 22.982 11.9837 22.982 12.5401 22.6971L12.557 22.6885L20.5638 18.5894L20.5807 18.5807C21.2404 18.2348 21.6562 17.5395 21.6562 16.7796V12.9107V9.04182C21.6562 8.99174 21.6544 8.94193 21.6509 8.89249C21.6458 8.82265 21.6373 8.75353 21.6254 8.68537C21.5168 8.06336 21.1278 7.5207 20.5638 7.23198Z" fill="#101827"/>
<path d="M3.14532 9.04183L3.26301 8.82117L3.25712 8.81823L3.14532 9.04183ZM3.14532 9.04183L3.02763 9.2625L3.03351 9.26544L3.14532 9.04183ZM3.1565 9.04779L3.27414 8.8272L3.27414 8.8272L3.1565 9.04779ZM4.14459 9.57477L4.02695 9.79536L4.02695 9.79536L4.14459 9.57477ZM11.1843 13.3293L11.302 13.1087L11.302 13.1087L11.1843 13.3293ZM11.2152 13.3457H11.4652V13.1957L11.3329 13.1251L11.2152 13.3457ZM11.2152 21.7926L11.1035 22.0163L11.4652 22.197V21.7926H11.2152ZM11.2144 21.7922L11.1004 22.0148L11.1026 22.0159L11.2144 21.7922ZM3.20753 17.6932L3.32146 17.4707L3.32145 17.4707L3.20753 17.6932ZM3.1906 17.6845L3.07668 17.9071L3.07668 17.9071L3.1906 17.6845ZM2.64438 16.7796L2.89438 16.7796L2.64438 16.7796ZM2.64439 12.9108L2.89439 12.9108V12.9108H2.64439ZM2.64439 12.9107L2.39439 12.9107V12.9107H2.64439ZM2.64454 10.4747L2.39454 10.4747L2.39454 10.4747L2.64454 10.4747ZM2.64461 9.33403L2.89461 9.33404L2.89461 9.33404L2.64461 9.33403ZM2.64462 9.0418L2.89462 9.04182L2.89462 9.04182L2.64462 9.0418ZM2.6754 8.79121L2.79304 8.57062L2.51046 8.41991L2.43285 8.73063L2.6754 8.79121ZM2.9196 8.92145L2.80195 9.14204L2.80195 9.14204L2.9196 8.92145ZM12.1543 21.7635H11.9043V22.1723L12.2682 21.986L12.1543 21.7635ZM20.105 17.6932L19.991 17.4706L19.991 17.4706L20.105 17.6932ZM20.1219 17.6845L20.2358 17.907L20.2358 17.907L20.1219 17.6845ZM20.6681 16.7796L20.4181 16.7796V16.7796H20.6681ZM20.6681 12.9107L20.4181 12.9107L20.4181 12.9107L20.6681 12.9107ZM20.6681 10.5449L20.9181 10.5449V10.5449H20.6681ZM20.652 8.85946L20.8981 8.81545L20.838 8.47955L20.5358 8.63808L20.652 8.85946ZM20.4582 8.9611L20.5744 9.18249L20.5744 9.18249L20.4582 8.9611ZM20.3044 9.04182L20.1882 8.82044L20.1882 8.82044L20.3044 9.04182ZM20.1562 9.11953L20.0401 8.89814L20.0401 8.89814L20.1562 9.11953ZM19.1681 9.63792L19.2843 9.85931L19.2843 9.85931L19.1681 9.63792ZM12.1543 13.3176L12.0382 13.0962L11.9043 13.1664V13.3176H12.1543ZM5.0054 8.89311L5.12305 8.67252L5.12305 8.67252L5.0054 8.89311ZM11.1314 12.1603L11.0138 12.3809L11.0138 12.3809L11.1314 12.1603ZM3.92325 8.31597L4.0409 8.09538L4.0409 8.09538L3.92325 8.31597ZM3.39327 8.03331L3.27934 7.81078L2.85352 8.02878L3.27562 8.2539L3.39327 8.03331ZM3.92827 7.75941L3.81434 7.53688L3.81434 7.53688L3.92827 7.75941ZM5.0196 7.20069L5.13353 7.42322L5.13353 7.42322L5.0196 7.20069ZM11.2144 4.0292L11.1026 3.80556L11.1004 3.80667L11.2144 4.0292ZM11.2314 4.02069L11.1218 3.79598L11.1196 3.79707L11.2314 4.02069ZM12.0812 4.02069L12.1929 3.79705L12.1907 3.79599L12.0812 4.02069ZM12.0982 4.02919L12.2121 3.80665L12.2099 3.80556L12.0982 4.02919ZM18.3564 7.23306L18.2425 7.4556L18.2425 7.4556L18.3564 7.23306ZM19.4531 7.79452L19.3392 8.01705L19.3392 8.01705L19.4531 7.79452ZM19.9905 8.06965L20.1067 8.29103L20.5338 8.06694L20.1045 7.84712L19.9905 8.06965ZM19.4561 8.35003L19.5722 8.57142L19.5722 8.57142L19.4561 8.35003ZM18.3649 8.92253L18.481 9.14391L18.481 9.14391L18.3649 8.92253ZM12.1866 12.1638L12.0705 11.9424L12.0705 11.9424L12.1866 12.1638ZM12.0924 12.2132L12.2085 12.4346L12.2085 12.4346L12.0924 12.2132ZM11.658 12.4411L11.5403 12.6617L11.657 12.7239L11.7741 12.6625L11.658 12.4411ZM11.2255 12.2105L11.3432 11.9899L11.3432 11.9899L11.2255 12.2105ZM20.5444 7.22202L20.4304 7.44456L20.4304 7.44456L20.5444 7.22202ZM20.5638 7.23198L20.6777 7.00944L20.6777 7.00944L20.5638 7.23198ZM20.4494 7.1734L20.5633 6.95086L20.5633 6.95086L20.4494 7.1734ZM12.557 3.13293L12.6709 2.9104L12.6709 2.9104L12.557 3.13293ZM12.5401 3.12427L12.4262 3.3468L12.4262 3.3468L12.5401 3.12427ZM10.7724 3.12428L10.8864 3.34681L10.8864 3.34681L10.7724 3.12428ZM10.7555 3.13295L10.6416 2.91042L10.6416 2.91042L10.7555 3.13295ZM2.93442 7.13706L3.04835 7.3596L3.04835 7.3596L2.93442 7.13706ZM2.84612 7.18227L2.7322 6.95974L2.7322 6.95974L2.84612 7.18227ZM2.74892 7.23203L2.86285 7.45457L2.86285 7.45457L2.74892 7.23203ZM1.71536 8.55142L1.47248 8.49216L1.47248 8.49216L1.71536 8.55142ZM1.66906 8.81374L1.91754 8.84122L1.91754 8.84122L1.66906 8.81374ZM1.6565 9.04174L1.9065 9.04176L1.9065 9.04176L1.6565 9.04174ZM1.65626 12.9106L1.40626 12.9106L1.40626 12.9106L1.65626 12.9106ZM1.65626 12.9107L1.40626 12.9107L1.40626 12.9107L1.65626 12.9107ZM1.65626 12.9108L1.90626 12.9108L1.65626 12.9108ZM1.65625 16.7796L1.90625 16.7796L1.90625 16.7796L1.65625 16.7796ZM2.73181 18.5807L2.61574 18.8021L2.61682 18.8027L2.73181 18.5807ZM2.7487 18.5894L2.6337 18.8114L2.63478 18.812L2.7487 18.5894ZM10.7555 22.6885L10.6416 22.911L10.6416 22.911L10.7555 22.6885ZM10.7725 22.6971L10.8864 22.4746L10.8864 22.4746L10.7725 22.6971ZM12.5401 22.6971L12.4261 22.4746L12.4261 22.4746L12.5401 22.6971ZM12.557 22.6885L12.6709 22.911L12.6709 22.911L12.557 22.6885ZM20.5638 18.5894L20.6777 18.812L20.6788 18.8114L20.5638 18.5894ZM20.5807 18.5807L20.6957 18.8027L20.6968 18.8021L20.5807 18.5807ZM21.6509 8.89249L21.9002 8.87452L21.9002 8.87452L21.6509 8.89249ZM21.6254 8.68537L21.3791 8.72838L21.3791 8.72838L21.6254 8.68537ZM3.25712 8.81823L3.25712 8.81822L3.03351 9.26544L3.03352 9.26544L3.25712 8.81823ZM3.27414 8.8272L3.26297 8.82124L3.02768 9.26242L3.03885 9.26838L3.27414 8.8272ZM4.26224 9.35418L3.27414 8.8272L3.03885 9.26838L4.02695 9.79536L4.26224 9.35418ZM11.302 13.1087L4.26224 9.35418L4.02695 9.79536L11.0667 13.5498L11.302 13.1087ZM11.3329 13.1251L11.302 13.1087L11.0667 13.5498L11.0976 13.5663L11.3329 13.1251ZM11.4652 21.7926V13.3457H10.9652V21.7926H11.4652ZM11.1026 22.0159L11.1035 22.0163L11.3269 21.569L11.3261 21.5686L11.1026 22.0159ZM3.09361 17.9157L11.1004 22.0148L11.3283 21.5697L3.32146 17.4707L3.09361 17.9157ZM3.07668 17.9071L3.09361 17.9157L3.32145 17.4707L3.30452 17.462L3.07668 17.9071ZM2.39438 16.7796C2.39437 17.2544 2.65639 17.6919 3.07668 17.9071L3.30452 17.462C3.05528 17.3344 2.89438 17.0712 2.89438 16.7796L2.39438 16.7796ZM2.39439 12.9108L2.39438 16.7796L2.89438 16.7796L2.89439 12.9108L2.39439 12.9108ZM2.39439 12.9107V12.9108H2.89439V12.9107H2.39439ZM2.39454 10.4747L2.39439 12.9107L2.89439 12.9107L2.89454 10.4748L2.39454 10.4747ZM2.39461 9.33401L2.39454 10.4747L2.89454 10.4748L2.89461 9.33404L2.39461 9.33401ZM2.39462 9.04179L2.39461 9.33401L2.89461 9.33404L2.89462 9.04182L2.39462 9.04179ZM2.43285 8.73063C2.40776 8.83105 2.39463 8.93547 2.39462 9.04179L2.89462 9.04182C2.89463 8.9767 2.90267 8.91295 2.91794 8.85179L2.43285 8.73063ZM3.03724 8.70086L2.79304 8.57062L2.55775 9.0118L2.80195 9.14204L3.03724 8.70086ZM3.26296 8.82124L3.03724 8.70086L2.80195 9.14204L3.02767 9.26242L3.26296 8.82124ZM12.2682 21.986L20.2189 17.9157L19.991 17.4706L12.0404 21.5409L12.2682 21.986ZM20.2189 17.9157L20.2358 17.907L20.008 17.462L19.991 17.4706L20.2189 17.9157ZM20.2358 17.907C20.6561 17.6919 20.9181 17.2544 20.9181 16.7796H20.4181C20.4181 17.0712 20.2572 17.3344 20.008 17.462L20.2358 17.907ZM20.9181 16.7796L20.9181 12.9107L20.4181 12.9107L20.4181 16.7796L20.9181 16.7796ZM20.9181 12.9107L20.9181 10.5449L20.4181 10.5449L20.4181 12.9107L20.9181 12.9107ZM20.9181 10.5449V9.40807H20.4181V10.5449H20.9181ZM20.9181 9.40807V9.36121H20.4181V9.40807H20.9181ZM20.9181 9.36121V9.04182H20.4181V9.36121H20.9181ZM20.9181 9.04182C20.9181 8.96511 20.9113 8.88939 20.8981 8.81545L20.4059 8.90347C20.4139 8.94857 20.4181 8.99483 20.4181 9.04182H20.9181ZM20.5358 8.63808L20.3421 8.73972L20.5744 9.18249L20.7681 9.08084L20.5358 8.63808ZM20.3421 8.73972L20.1882 8.82044L20.4205 9.26321L20.5744 9.18249L20.3421 8.73972ZM20.1882 8.82044L20.0401 8.89814L20.2724 9.34091L20.4205 9.26321L20.1882 8.82044ZM20.0401 8.89814L19.052 9.41654L19.2843 9.85931L20.2724 9.34091L20.0401 8.89814ZM19.052 9.41654L12.0382 13.0962L12.2704 13.5389L19.2843 9.85931L19.052 9.41654ZM11.9043 13.3176V21.7635H12.4043V13.3176H11.9043ZM4.88776 9.1137L11.0138 12.3809L11.2491 11.9397L5.12305 8.67252L4.88776 9.1137ZM3.80561 8.53656L4.88776 9.1137L5.12305 8.67252L4.0409 8.09538L3.80561 8.53656ZM3.27562 8.2539L3.80561 8.53656L4.0409 8.09538L3.51091 7.81272L3.27562 8.2539ZM3.81434 7.53688L3.27934 7.81078L3.50719 8.25584L4.0422 7.98194L3.81434 7.53688ZM4.90567 6.97815L3.81434 7.53688L4.0422 7.98194L5.13353 7.42322L4.90567 6.97815ZM11.1004 3.80667L4.90567 6.97815L5.13353 7.42322L11.3283 4.25173L11.1004 3.80667ZM11.1196 3.79707L11.1026 3.80557L11.3261 4.25282L11.3431 4.24432L11.1196 3.79707ZM12.1907 3.79599C11.8528 3.63117 11.4597 3.63118 11.1218 3.79599L11.341 4.24539C11.5406 4.14804 11.772 4.14804 11.9716 4.24539L12.1907 3.79599ZM12.2099 3.80556L12.1929 3.79706L11.9694 4.24431L11.9864 4.25282L12.2099 3.80556ZM18.4703 7.01053L12.2121 3.80666L11.9842 4.25172L18.2425 7.4556L18.4703 7.01053ZM19.567 7.57198L18.4703 7.01053L18.2425 7.4556L19.3392 8.01705L19.567 7.57198ZM20.1045 7.84712L19.567 7.57198L19.3392 8.01705L19.8766 8.29218L20.1045 7.84712ZM19.5722 8.57142L20.1067 8.29103L19.8744 7.84827L19.34 8.12865L19.5722 8.57142ZM18.481 9.14391L19.5722 8.57142L19.34 8.12865L18.2487 8.70114L18.481 9.14391ZM12.3027 12.3852L18.481 9.14391L18.2487 8.70114L12.0705 11.9424L12.3027 12.3852ZM12.2085 12.4346L12.3027 12.3852L12.0705 11.9424L11.9762 11.9918L12.2085 12.4346ZM11.7741 12.6625L12.2085 12.4346L11.9762 11.9918L11.5418 12.2197L11.7741 12.6625ZM11.1079 12.4311L11.5403 12.6617L11.7756 12.2205L11.3432 11.9899L11.1079 12.4311ZM11.0138 12.3809L11.1079 12.4311L11.3432 11.9899L11.2491 11.9397L11.0138 12.3809ZM20.4304 7.44456L20.4499 7.45451L20.6777 7.00944L20.6583 6.99949L20.4304 7.44456ZM20.3354 7.39593L20.4304 7.44456L20.6583 6.99949L20.5633 6.95086L20.3354 7.39593ZM12.4431 3.35547L20.3355 7.39593L20.5633 6.95086L12.6709 2.9104L12.4431 3.35547ZM12.4262 3.3468L12.4431 3.35547L12.6709 2.9104L12.654 2.90173L12.4262 3.3468ZM10.8864 3.34681C11.3712 3.09859 11.9413 3.09859 12.4262 3.3468L12.654 2.90173C12.0261 2.58028 11.2864 2.58028 10.6585 2.90175L10.8864 3.34681ZM10.8694 3.35548L10.8864 3.34681L10.6585 2.90175L10.6416 2.91042L10.8694 3.35548ZM3.04835 7.3596L10.8694 3.35548L10.6416 2.91042L2.82049 6.91453L3.04835 7.3596ZM2.96005 7.4048L3.04835 7.3596L2.82049 6.91453L2.7322 6.95974L2.96005 7.4048ZM2.86285 7.45457L2.96005 7.4048L2.7322 6.95974L2.63499 7.0095L2.86285 7.45457ZM1.95823 8.61068C2.07957 8.11343 2.40666 7.68811 2.86285 7.45457L2.63499 7.0095C2.04506 7.31153 1.62706 7.85866 1.47248 8.49216L1.95823 8.61068ZM1.91754 8.84122C1.92619 8.76304 1.93984 8.68605 1.95823 8.61068L1.47248 8.49216C1.44901 8.58835 1.4316 8.68657 1.42057 8.78626L1.91754 8.84122ZM1.9065 9.04176C1.9065 8.97421 1.91024 8.90728 1.91754 8.84122L1.42057 8.78626C1.41126 8.87049 1.4065 8.95575 1.4065 9.04173L1.9065 9.04176ZM1.90626 12.9107L1.9065 9.04176L1.4065 9.04173L1.40626 12.9106L1.90626 12.9107ZM1.90626 12.9107L1.90626 12.9107L1.40626 12.9106L1.40626 12.9107L1.90626 12.9107ZM1.90626 12.9108L1.90626 12.9107L1.40626 12.9107L1.40626 12.9108L1.90626 12.9108ZM1.90625 16.7796L1.90626 12.9108L1.40626 12.9108L1.40625 16.7796L1.90625 16.7796ZM2.84788 18.3593C2.27236 18.0576 1.90625 17.4487 1.90625 16.7796L1.40625 16.7796C1.40625 17.6304 1.87178 18.4121 2.61574 18.8021L2.84788 18.3593ZM2.8637 18.3675L2.84681 18.3587L2.61682 18.8027L2.6337 18.8114L2.8637 18.3675ZM10.8694 22.4659L2.86262 18.3669L2.63478 18.812L10.6416 22.911L10.8694 22.4659ZM10.8864 22.4746L10.8694 22.4659L10.6416 22.911L10.6585 22.9197L10.8864 22.4746ZM12.4261 22.4746C11.9413 22.7228 11.3712 22.7228 10.8864 22.4746L10.6585 22.9197C11.2864 23.2411 12.0261 23.2411 12.654 22.9197L12.4261 22.4746ZM12.4431 22.4659L12.4261 22.4746L12.654 22.9197L12.6709 22.911L12.4431 22.4659ZM20.4499 18.3669L12.4431 22.4659L12.6709 22.911L20.6777 18.812L20.4499 18.3669ZM20.4657 18.3587L20.4488 18.3674L20.6788 18.8114L20.6957 18.8027L20.4657 18.3587ZM21.4062 16.7796C21.4062 17.4487 21.0401 18.0576 20.4646 18.3592L20.6968 18.8021C21.4407 18.4121 21.9062 17.6304 21.9062 16.7796H21.4062ZM21.4062 12.9107V16.7796H21.9062V12.9107H21.4062ZM21.4062 9.04182V12.9107H21.9062V9.04182H21.4062ZM21.4015 8.91046C21.4047 8.95394 21.4062 8.99775 21.4062 9.04182H21.9062C21.9062 8.98572 21.9042 8.92993 21.9002 8.87452L21.4015 8.91046ZM21.3791 8.72838C21.3896 8.78828 21.3971 8.84904 21.4015 8.91046L21.9002 8.87452C21.8946 8.79626 21.885 8.71878 21.8717 8.64235L21.3791 8.72838ZM20.4499 7.45451C20.9418 7.70632 21.2836 8.18114 21.3791 8.72838L21.8717 8.64235C21.75 7.94557 21.3138 7.33507 20.6777 7.00944L20.4499 7.45451Z" fill="#101827"/>
</svg>
