<svg width="24" height="25" viewBox="0 0 24 25" fill="none" xmlns="http://www.w3.org/2000/svg">
<path d="M11.007 21.6248H9.605C6.02 21.6248 4.228 21.6248 3.114 20.4898C2 19.3548 2 17.5278 2 13.8748C2 10.2218 2 8.39476 3.114 7.25976C4.228 6.12476 6.02 6.12476 9.605 6.12476H13.408C16.993 6.12476 18.786 6.12476 19.9 7.25976C20.757 8.13276 20.954 9.41576 21 11.6248" stroke="#101827" stroke-width="1.5" stroke-linecap="round" stroke-linejoin="round"/>
<path d="M16 6.12476L15.9 5.81476C15.405 4.27476 15.158 3.50476 14.569 3.06476C13.979 2.62476 13.197 2.62476 11.63 2.62476H11.367C9.802 2.62476 9.019 2.62476 8.43 3.06476C7.84 3.50476 7.593 4.27476 7.098 5.81476L7 6.12476" stroke="#101827" stroke-width="1.5" stroke-linecap="round" stroke-linejoin="round"/>
<path d="M17.1133 13.8775L17.1108 13.8798L16.3978 14.5368C16.3118 14.6158 16.2688 14.6548 16.2158 14.6748C16.1618 14.6948 16.1038 14.6928 15.9868 14.6878L15.0238 14.6498C14.7758 14.6398 14.6518 14.6358 14.5668 14.7068C14.4818 14.7778 14.4648 14.9018 14.4318 15.1468L14.2988 16.1318L14.2982 16.1365C14.2836 16.2483 14.2764 16.3034 14.2488 16.3518C14.2208 16.4008 14.1758 16.4358 14.0858 16.5078L13.3098 17.1178L13.3067 17.1202C13.1168 17.2696 13.0217 17.3443 13.0028 17.4518C12.9838 17.5598 13.0478 17.6638 13.1778 17.8718L13.7028 18.7198C13.7484 18.7796 13.7823 18.8474 13.8028 18.9198C13.8126 18.9725 13.8013 19.0272 13.7794 19.1341L13.7778 19.1418L13.5678 20.1198C13.5168 20.3608 13.4918 20.4798 13.5468 20.5758C13.6017 20.6716 13.7183 20.7096 13.9503 20.7853L13.9518 20.7858L14.8778 21.0878C14.9878 21.1228 15.0438 21.1418 15.0868 21.1778C15.1298 21.2138 15.1558 21.2658 15.2098 21.3688L15.6618 22.2398L15.6619 22.2399C15.7768 22.4618 15.8348 22.5738 15.9398 22.6118C16.0443 22.6496 16.1586 22.6022 16.3883 22.5072L16.3918 22.5058L17.2798 22.1378L17.2891 22.1339C17.3919 22.0915 17.4444 22.0698 17.4998 22.0698C17.5552 22.0698 17.6077 22.0915 17.7105 22.1339L17.7198 22.1378L18.6078 22.5058L18.6113 22.5072C18.841 22.6022 18.9553 22.6496 19.0598 22.6118C19.1648 22.5738 19.2228 22.4628 19.3378 22.2398L19.7898 21.3688C19.8428 21.2658 19.8698 21.2138 19.9128 21.1768C19.9552 21.1413 20.0102 21.1233 20.117 21.0883L20.1218 21.0868L21.0478 20.7858L21.0493 20.7853C21.2813 20.7096 21.3979 20.6716 21.4528 20.5758C21.5071 20.481 21.4825 20.3629 21.4337 20.1291L21.4318 20.1198L21.2228 19.1418C21.1988 19.0298 21.1868 18.9728 21.1968 18.9188C21.2068 18.8648 21.2368 18.8158 21.2968 18.7188L21.8228 17.8718L21.8272 17.8646C21.9523 17.6614 22.0156 17.5585 21.9968 17.4518C21.978 17.3449 21.8838 17.2703 21.6959 17.1216L21.6898 17.1168L20.9138 16.5068L20.9088 16.5028C20.8221 16.4344 20.7783 16.3999 20.7508 16.3528C20.7239 16.3047 20.7164 16.2511 20.7016 16.1457L20.6998 16.1328L20.5678 15.1468C20.5348 14.9008 20.5178 14.7778 20.4328 14.7068C20.3478 14.6358 20.2238 14.6398 19.9758 14.6498L19.0138 14.6878C18.8958 14.6928 18.8378 14.6948 18.7838 14.6748C18.7317 14.6561 18.6892 14.6171 18.606 14.5406L18.6018 14.5368L17.8888 13.8798L17.8863 13.8775C17.703 13.709 17.6113 13.6248 17.4998 13.6248C17.3883 13.6248 17.2966 13.709 17.1133 13.8775Z" fill="#101827" stroke="#101827" stroke-width="1.5" stroke-linecap="round" stroke-linejoin="round"/>
</svg>
