<svg width="24" height="25" viewBox="0 0 24 25" fill="none" xmlns="http://www.w3.org/2000/svg">
<g clip-path="url(#clip0_436_1537)">
<path d="M10.6506 19.9998C10.1943 19.9998 9.7621 19.7967 9.48516 19.4467L5.73702 14.7253C5.62114 14.5795 5.53654 14.4133 5.48805 14.2363C5.43957 14.0593 5.42815 13.8749 5.45446 13.6937C5.48076 13.5125 5.54427 13.338 5.64136 13.1802C5.73844 13.0224 5.86719 12.8844 6.02026 12.7741C6.17326 12.6633 6.3477 12.5824 6.53357 12.536C6.71944 12.4896 6.91308 12.4786 7.10341 12.5037C7.29373 12.5288 7.47699 12.5894 7.64268 12.6822C7.80838 12.7749 7.95325 12.8979 8.06899 13.0441L10.5352 16.1484L16.736 6.65551C16.9416 6.34208 17.2693 6.11921 17.647 6.03578C18.0248 5.95235 18.4219 6.01517 18.7511 6.21047C19.4361 6.61651 19.647 7.47659 19.219 8.13065L11.8927 19.3417C11.7676 19.5339 11.5952 19.6942 11.3905 19.8085C11.1857 19.9228 10.9548 19.9878 10.7178 19.9978C10.6947 19.9998 10.6737 19.9998 10.6506 19.9998Z" fill="#101827"/>
</g>
<defs>
<clipPath id="clip0_436_1537">
<rect width="14" height="14" fill="white" transform="translate(5.44067 5.99976)"/>
</clipPath>
</defs>
</svg>
