<svg width="24" height="25" viewBox="0 0 24 25" fill="none" xmlns="http://www.w3.org/2000/svg">
<path fill-rule="evenodd" clip-rule="evenodd" d="M12 21.6248C16.9706 21.6248 21 17.5953 21 12.6248C21 7.65419 16.9706 3.62476 12 3.62476C7.02944 3.62476 3 7.65419 3 12.6248C3 17.5953 7.02944 21.6248 12 21.6248ZM16.6301 10.7862C16.9816 10.4347 16.9816 9.86483 16.6301 9.51336C16.2787 9.16189 15.7088 9.16189 15.3574 9.51336L10.9313 13.9395L9.0364 12.0446C8.68492 11.6931 8.11508 11.6931 7.7636 12.0446C7.41213 12.3961 7.41213 12.9659 7.7636 13.3174L10.2949 15.8487C10.6463 16.2001 11.2162 16.2001 11.5676 15.8487L16.6301 10.7862Z" fill="#101827"/>
</svg>
