<svg width="24" height="25" viewBox="0 0 24 25" fill="none" xmlns="http://www.w3.org/2000/svg">
<path d="M12.7101 11.9148C12.5231 11.7315 12.2718 11.6289 12.0101 11.6289C11.7483 11.6289 11.497 11.7315 11.3101 11.9148L8.31008 14.8148C8.20397 14.9023 8.11706 15.0108 8.0548 15.1335C7.99254 15.2562 7.95627 15.3904 7.94824 15.5277C7.94021 15.6651 7.96061 15.8026 8.00815 15.9317C8.05569 16.0608 8.12936 16.1787 8.22454 16.278C8.31973 16.3773 8.43439 16.4559 8.56134 16.5089C8.6883 16.5619 8.82482 16.5881 8.96237 16.586C9.09993 16.5838 9.23555 16.5532 9.36076 16.4962C9.48598 16.4393 9.59809 16.3571 9.69008 16.2548L11.0001 14.9848V20.6248C11.0001 20.89 11.1054 21.1443 11.293 21.3319C11.4805 21.5194 11.7349 21.6248 12.0001 21.6248C12.2653 21.6248 12.5196 21.5194 12.7072 21.3319C12.8947 21.1443 13.0001 20.89 13.0001 20.6248V15.0348L14.2901 16.3348C14.383 16.4285 14.4936 16.5029 14.6155 16.5537C14.7374 16.6044 14.8681 16.6306 15.0001 16.6306C15.1321 16.6306 15.2628 16.6044 15.3847 16.5537C15.5065 16.5029 15.6171 16.4285 15.7101 16.3348C15.8038 16.2418 15.8782 16.1312 15.929 16.0093C15.9797 15.8875 16.0059 15.7568 16.0059 15.6248C16.0059 15.4928 15.9797 15.362 15.929 15.2402C15.8782 15.1183 15.8038 15.0077 15.7101 14.9148L12.7101 11.9148Z" fill="#101827"/>
<path d="M17.6699 7.62474C17.2619 6.44579 16.4965 5.42335 15.4802 4.6997C14.464 3.97604 13.2475 3.58716 11.9999 3.58716C10.7523 3.58716 9.5358 3.97604 8.51956 4.6997C7.50332 5.42335 6.73794 6.44579 6.3299 7.62474C5.43145 7.74507 4.58261 8.10739 3.8742 8.67293C3.16578 9.23847 2.62443 9.98595 2.30806 10.8354C1.99169 11.6849 1.91221 12.6044 2.0781 13.4956C2.244 14.3867 2.64904 15.216 3.2499 15.8947C3.32247 16.0226 3.42235 16.1328 3.5424 16.2177C3.66246 16.3025 3.79974 16.3599 3.94448 16.3856C4.08922 16.4113 4.23785 16.4048 4.3798 16.3666C4.52174 16.3283 4.6535 16.2592 4.76569 16.1642C4.87789 16.0692 4.96776 15.9507 5.02891 15.817C5.09006 15.6833 5.12098 15.5378 5.11947 15.3908C5.11796 15.2438 5.08406 15.0989 5.02018 14.9665C4.9563 14.8341 4.86402 14.7174 4.7499 14.6247C4.36301 14.1922 4.10988 13.6567 4.02118 13.0832C3.93249 12.5097 4.01203 11.9228 4.25017 11.3936C4.48831 10.8644 4.87483 10.4156 5.36289 10.1017C5.85094 9.7877 6.41958 9.62204 6.9999 9.62474H7.0999C7.33384 9.62945 7.56204 9.55198 7.74475 9.40581C7.92747 9.25963 8.05314 9.05401 8.0999 8.82474C8.28351 7.92051 8.77408 7.10756 9.48849 6.52363C10.2029 5.93971 11.0972 5.62073 12.0199 5.62073C12.9426 5.62073 13.8369 5.93971 14.5513 6.52363C15.2657 7.10756 15.7563 7.92051 15.9399 8.82474C15.9866 9.05401 16.1123 9.25963 16.295 9.40581C16.4778 9.55198 16.7059 9.62945 16.9399 9.62474H16.9999C17.5802 9.62204 18.1488 9.7877 18.6369 10.1017C19.125 10.4156 19.5115 10.8644 19.7496 11.3936C19.9878 11.9228 20.0673 12.5097 19.9786 13.0832C19.8899 13.6567 19.6368 14.1922 19.2499 14.6247C19.1618 14.7235 19.0942 14.8388 19.051 14.9639C19.0078 15.089 18.9899 15.2215 18.9983 15.3535C19.0066 15.4856 19.0411 15.6147 19.0998 15.7334C19.1584 15.852 19.24 15.9579 19.3399 16.0447C19.5222 16.2055 19.7568 16.2944 19.9999 16.2947C20.1419 16.2946 20.2822 16.2641 20.4115 16.2055C20.5408 16.1469 20.6562 16.0614 20.7499 15.9547C21.3674 15.2772 21.7868 14.4429 21.9621 13.5431C22.1375 12.6433 22.0621 11.7126 21.7441 10.8527C21.4262 9.99286 20.878 9.23697 20.1595 8.66767C19.4409 8.09837 18.5797 7.73758 17.6699 7.62474Z" fill="#101827"/>
</svg>
