<svg width="24" height="25" viewBox="0 0 24 25" fill="none" xmlns="http://www.w3.org/2000/svg">
<path d="M15.2089 3.68889C15.0775 3.64108 14.9379 3.61963 14.7981 3.62579C14.6584 3.63194 14.5212 3.66556 14.3944 3.72474C14.2677 3.78391 14.1538 3.86748 14.0594 3.97066C13.9649 4.07385 13.8917 4.19463 13.8439 4.32611L8.16394 19.9461C8.06766 20.2115 8.0807 20.5043 8.20019 20.7601C8.31968 21.0159 8.53584 21.2137 8.80117 21.3102C8.91766 21.3532 9.04087 21.3751 9.16504 21.375C9.3837 21.375 9.59708 21.3078 9.77618 21.1823C9.95528 21.0569 10.0914 20.8794 10.1661 20.6739L15.8461 5.05386C15.894 4.9224 15.9154 4.7828 15.9092 4.64305C15.9031 4.5033 15.8695 4.36612 15.8103 4.23937C15.7511 4.11261 15.6676 3.99876 15.5644 3.9043C15.4612 3.80985 15.3404 3.73665 15.2089 3.68889Z" fill="#101827"/>
<path d="M7.00655 9.76812L3.72812 12.4998L7.00655 15.2316C7.11528 15.3207 7.20529 15.4304 7.27139 15.5545C7.3375 15.6785 7.37839 15.8145 7.3917 15.9544C7.40502 16.0944 7.3905 16.2355 7.34898 16.3699C7.30746 16.5042 7.23976 16.6289 7.14979 16.7369C7.05982 16.8449 6.94936 16.9341 6.82477 16.9992C6.70019 17.0643 6.56394 17.1041 6.4239 17.1163C6.28385 17.1285 6.14278 17.1128 6.00881 17.0702C5.87485 17.0276 5.75064 16.959 5.64335 16.8681L1.38335 13.3181C1.26337 13.2182 1.16683 13.0931 1.10059 12.9517C1.03434 12.8102 1 12.656 1 12.4998C1 12.3437 1.03434 12.1894 1.10059 12.048C1.16683 11.9066 1.26337 11.7815 1.38335 11.6816L5.64335 8.13157C5.86067 7.95347 6.13958 7.86846 6.41929 7.89508C6.69901 7.9217 6.95688 8.05778 7.13671 8.27367C7.31655 8.48956 7.40377 8.76778 7.37939 9.0477C7.35501 9.32762 7.221 9.58657 7.00655 9.76812ZM22.6266 11.6816L18.3666 8.13157C18.2593 8.04074 18.1351 7.97204 18.0011 7.92945C17.8671 7.88686 17.7261 7.87121 17.586 7.88341C17.446 7.89561 17.3097 7.93541 17.1851 8.00052C17.0606 8.06563 16.9501 8.15476 16.8601 8.26277C16.7701 8.37078 16.7024 8.49554 16.6609 8.62984C16.6194 8.76414 16.6049 8.90534 16.6182 9.04528C16.6315 9.18522 16.6724 9.32114 16.7385 9.44521C16.8046 9.56927 16.8946 9.67902 17.0034 9.76812L20.2818 12.4998L17.0034 15.2316C16.8946 15.3207 16.8046 15.4304 16.7385 15.5545C16.6724 15.6785 16.6315 15.8145 16.6182 15.9544C16.6049 16.0944 16.6194 16.2355 16.6609 16.3699C16.7024 16.5042 16.7701 16.6289 16.8601 16.7369C16.9501 16.8449 17.0606 16.9341 17.1851 16.9992C17.3097 17.0643 17.446 17.1041 17.586 17.1163C17.7261 17.1285 17.8671 17.1128 18.0011 17.0702C18.1351 17.0276 18.2593 16.959 18.3666 16.8681L22.6266 13.3181C22.7465 13.2182 22.8431 13.0931 22.9093 12.9517C22.9756 12.8102 23.0099 12.656 23.0099 12.4998C23.0099 12.3437 22.9756 12.1894 22.9093 12.048C22.8431 11.9066 22.7465 11.7815 22.6266 11.6816Z" fill="#101827"/>
</svg>
