<svg width="24" height="25" viewBox="0 0 24 25" fill="none" xmlns="http://www.w3.org/2000/svg">
<path d="M12 19.3748C12.9311 19.3748 13.8181 19.1863 14.625 18.8453C15.4282 18.506 16.152 18.0156 16.7608 17.4098C17.4712 16.7031 18.025 15.8392 18.3659 14.8748C18.6147 14.171 18.75 13.4137 18.75 12.6248C18.75 11.7864 18.5972 10.9837 18.3178 10.243M5.25 12.6248C5.25 11.8455 5.38205 11.0971 5.625 10.4006C5.94681 9.47814 6.4632 8.64688 7.125 7.95603C7.69981 7.35599 8.3843 6.86187 9.14628 6.50589C10.0131 6.10094 10.9801 5.87476 12 5.87476C12.9311 5.87476 13.8181 6.06326 14.625 6.40419" stroke="#101827" stroke-width="1.25" stroke-linecap="round" stroke-linejoin="round"/>
<circle cx="12" cy="12.6248" r="9" stroke="#101827" stroke-width="1.25"/>
<path d="M9.5348 18.9103C8.66776 18.57 7.88823 18.0555 7.2393 17.4098C6.64389 16.8174 6.15842 16.1146 5.81616 15.3347M16.1251 7.28137C16.3917 7.48745 16.6424 7.71304 16.8751 7.95598C17.1159 8.20728 17.3374 8.47715 17.5372 8.76324" stroke="#101827" stroke-width="1.25" stroke-linecap="round" stroke-linejoin="round"/>
<circle cx="12" cy="12.6245" r="2.32027" stroke="#101827" stroke-width="1.25"/>
<path d="M13.6409 10.9839L14.6253 9.99948" stroke="#101827" stroke-width="1.25" stroke-linecap="round"/>
<path d="M9.37476 15.2495L10.3592 14.2651" stroke="#101827" stroke-width="1.25" stroke-linecap="round"/>
<path d="M13.6409 14.2648L14.6253 15.2492" stroke="#101827" stroke-width="1.25" stroke-linecap="round"/>
<path d="M9.37476 9.99927L10.3592 10.9837" stroke="#101827" stroke-width="1.25" stroke-linecap="round"/>
</svg>
