<svg width="24" height="25" viewBox="0 0 24 25" fill="none" xmlns="http://www.w3.org/2000/svg">
<path d="M12 2.62476C6.48 2.62476 2 7.10476 2 12.6248C2 18.1448 6.48 22.6248 12 22.6248C17.52 22.6248 22 18.1448 22 12.6248C22 7.10476 17.52 2.62476 12 2.62476ZM12 20.6248C7.59 20.6248 4 17.0348 4 12.6248C4 8.21476 7.59 4.62476 12 4.62476C16.41 4.62476 20 8.21476 20 12.6248C20 17.0348 16.41 20.6248 12 20.6248Z" fill="#101827"/>
<path fill-rule="evenodd" clip-rule="evenodd" d="M8.36103 17.2598L12.3529 15.4048C13.423 14.9075 14.2827 14.0477 14.78 12.9776L16.6351 8.98579C16.9297 8.35169 16.273 7.69489 15.6388 7.98957L11.647 9.84463C10.5769 10.3419 9.71717 11.2017 9.21987 12.2718L7.36482 16.2636C7.07014 16.8977 7.72693 17.5545 8.36103 17.2598ZM11.9998 11.5247C12.6098 11.5247 13.0998 12.0147 13.0998 12.6247C13.0998 13.2347 12.6098 13.7247 11.9998 13.7247C11.3898 13.7247 10.8998 13.2347 10.8998 12.6247C10.8998 12.0147 11.3898 11.5247 11.9998 11.5247Z" fill="#101827"/>
</svg>
