<svg width="25" height="25" viewBox="0 0 25 25" fill="none" xmlns="http://www.w3.org/2000/svg">
<g clip-path="url(#clip0_447_4690)">
<path fill-rule="evenodd" clip-rule="evenodd" d="M12.8263 3.73286C12.9213 3.73679 13.0161 3.72145 13.1051 3.68779C13.194 3.65413 13.2753 3.60283 13.3439 3.53698C13.4125 3.47113 13.4671 3.39208 13.5044 3.30459C13.5417 3.2171 13.561 3.12297 13.561 3.02786C13.561 2.93275 13.5417 2.83862 13.5044 2.75112C13.4671 2.66363 13.4125 2.58459 13.3439 2.51873C13.2753 2.45288 13.194 2.40158 13.1051 2.36792C13.0161 2.33426 12.9213 2.31893 12.8263 2.32285C12.6443 2.33036 12.4723 2.40792 12.3462 2.53931C12.2201 2.6707 12.1497 2.84575 12.1497 3.02786C12.1497 3.20996 12.2201 3.38501 12.3462 3.5164C12.4723 3.6478 12.6443 3.72536 12.8263 3.73286ZM14.9443 3.02726C14.9443 3.14726 14.9371 3.27446 14.9155 3.38726L20.4211 6.5565C20.7066 6.23501 21.0832 6.00808 21.5008 5.90589C21.9185 5.8037 22.3573 5.83111 22.759 5.98445C23.1606 6.13779 23.5061 6.40981 23.7494 6.76431C23.9926 7.11881 24.1222 7.53898 24.1208 7.96891C24.1216 8.40715 23.9861 8.8348 23.733 9.19259C23.48 9.55037 23.1219 9.82057 22.7084 9.96574V12.9106C22.7084 13.3003 22.3925 13.6162 22.0028 13.6162V13.6162C21.6131 13.6162 21.2972 13.3003 21.2972 12.9106V9.96574C20.8673 9.81543 20.4976 9.53022 20.243 9.15265C19.9885 8.77507 19.8628 8.32534 19.8847 7.87051L14.2243 4.62207C14.021 4.79835 13.7866 4.9351 13.5331 5.02528V7.96831C13.5331 8.35834 13.2169 8.67452 12.8269 8.67452V8.67452C12.4368 8.67452 12.1206 8.35834 12.1206 7.96831V5.02528C11.7547 4.89573 11.4314 4.6681 11.186 4.36725C10.9407 4.0664 10.7828 3.70391 10.7295 3.31938C10.6762 2.93484 10.7296 2.54306 10.8839 2.18684C11.0382 1.83061 11.2874 1.52365 11.6044 1.29947C11.9213 1.0753 12.2938 0.942545 12.6811 0.915711C13.0683 0.888877 13.4555 0.968997 13.8004 1.14732C14.1452 1.32564 14.4344 1.5953 14.6363 1.92684C14.8383 2.25838 14.944 2.63905 14.9443 3.02726ZM12.8275 23.4995C12.9201 23.4995 13.0119 23.4812 13.0975 23.4458C13.1831 23.4103 13.2609 23.3583 13.3264 23.2928C13.3919 23.2273 13.4439 23.1495 13.4794 23.0639C13.5148 22.9783 13.5331 22.8865 13.5331 22.7939C13.5331 22.7012 13.5148 22.6095 13.4794 22.5239C13.4439 22.4383 13.3919 22.3605 13.3264 22.2949C13.2609 22.2294 13.1831 22.1774 13.0975 22.142C13.0119 22.1065 12.9201 22.0883 12.8275 22.0883C12.6455 22.0958 12.4735 22.1733 12.3474 22.3047C12.2213 22.4361 12.1509 22.6112 12.1509 22.7933C12.1509 22.9754 12.2213 23.1504 12.3474 23.2818C12.4735 23.4132 12.6455 23.492 12.8275 23.4995ZM12.8275 24.9095C13.1135 24.9101 13.3968 24.8527 13.66 24.7407C13.9233 24.6287 14.1611 24.4645 14.3591 24.258C14.5571 24.0515 14.7111 23.807 14.8119 23.5392C14.9127 23.2715 14.9581 22.9861 14.9455 22.7003L20.6059 19.4458C20.9145 19.7163 21.295 19.8913 21.7011 19.9495C22.1072 20.0078 22.5215 19.9469 22.8937 19.7742C23.2659 19.6014 23.5798 19.3243 23.7975 18.9765C24.0151 18.6287 24.127 18.2251 24.1196 17.8149C24.1123 17.4047 23.9859 17.0054 23.7559 16.6657C23.5259 16.3259 23.2021 16.0603 22.824 15.901C22.4459 15.7418 22.0296 15.6958 21.6259 15.7686C21.2221 15.8415 20.8482 16.0301 20.5495 16.3114L17.8879 14.768C17.549 14.5715 17.1149 14.6879 16.9199 15.0277V15.0277C16.7255 15.3662 16.8422 15.7983 17.1807 15.9929L19.9075 17.5606C19.8763 17.7774 19.8787 17.9938 19.9147 18.2098L14.4079 21.3803C14.0656 20.9968 13.5954 20.7508 13.0852 20.6884C12.5749 20.6259 12.0594 20.7511 11.6346 21.0407L8.71929 19.3561C8.37986 19.1599 7.94567 19.2767 7.75045 19.6167V19.6167C7.55597 19.9554 7.67226 20.3876 8.01042 20.5829L10.7946 22.1915C10.7011 22.5075 10.6826 22.841 10.7406 23.1655C10.7986 23.4899 10.9315 23.7963 11.1288 24.0604C11.3261 24.3244 11.5822 24.5388 11.8769 24.6864C12.1716 24.834 12.4967 24.9108 12.8263 24.9107M4.35416 7.96891C4.35416 8.15605 4.27982 8.33553 4.14749 8.46785C4.01516 8.60018 3.83569 8.67452 3.64855 8.67452C3.46141 8.67452 3.28194 8.60018 3.14961 8.46785C3.01728 8.33553 2.94294 8.15605 2.94294 7.96891C2.94294 7.78162 3.01734 7.60199 3.14978 7.46955C3.28222 7.33711 3.46185 7.26271 3.64915 7.26271C3.83645 7.26271 4.01607 7.33711 4.14851 7.46955C4.28095 7.60199 4.35416 7.78162 4.35416 7.96891ZM5.76777 7.96891C5.76782 8.4068 5.63214 8.83394 5.37942 9.19154C5.12669 9.54913 4.76934 9.81961 4.35656 9.96574V15.8542C4.63256 15.9514 4.88456 16.1062 5.09697 16.3054L7.76571 14.7672C8.10492 14.5717 8.53842 14.6885 8.73339 15.0281V15.0281C8.92806 15.3671 8.81116 15.7997 8.47225 15.9946L5.74617 17.5618C5.80104 17.9588 5.74216 18.3632 5.57637 18.7281C5.41058 19.0929 5.14468 19.4032 4.80956 19.623C4.47443 19.8428 4.08384 19.9629 3.68314 19.9696C3.28245 19.9762 2.88809 19.869 2.54588 19.6605C2.20367 19.4519 1.92764 19.1505 1.74987 18.7914C1.5721 18.4322 1.49987 18.03 1.54157 17.6314C1.58328 17.2328 1.7372 16.8543 1.98547 16.5397C2.23374 16.2251 2.56617 15.9874 2.94414 15.8542V9.96574C2.64998 9.86302 2.38212 9.69663 2.15968 9.47845C1.93724 9.26027 1.76571 8.99567 1.65733 8.70355C1.54895 8.41142 1.5064 8.09897 1.53271 7.7885C1.55902 7.47803 1.65354 7.1772 1.80953 6.90748C1.96552 6.63776 2.17913 6.4058 2.43511 6.22816C2.69109 6.05051 2.98313 5.93157 3.29038 5.87982C3.59764 5.82807 3.91253 5.84478 4.21257 5.92877C4.51262 6.01276 4.79043 6.16195 5.02617 6.3657L4.99136 6.29609L8.04806 4.53242C8.38708 4.33681 8.8205 4.45346 9.01554 4.7928V4.7928C9.21018 5.13142 9.09377 5.5637 8.75542 5.75879L5.71737 7.51051C5.75337 7.65211 5.76657 7.81411 5.76657 7.97011M3.64855 18.559C3.83569 18.559 4.01516 18.4847 4.14749 18.3524C4.27982 18.22 4.35416 18.0406 4.35416 17.8534C4.35416 17.6663 4.27982 17.4868 4.14749 17.3545C4.01516 17.2222 3.83569 17.1478 3.64855 17.1478C3.46141 17.1478 3.28194 17.2222 3.14961 17.3545C3.01728 17.4868 2.94294 17.6663 2.94294 17.8534C2.94294 18.0406 3.01728 18.22 3.14961 18.3524C3.28194 18.4847 3.46141 18.559 3.64855 18.559ZM22.7084 7.96891C22.7123 8.0641 22.6969 8.1591 22.6632 8.24821C22.6295 8.33731 22.5781 8.41868 22.5121 8.48742C22.4462 8.55616 22.367 8.61085 22.2794 8.64822C22.1917 8.68558 22.0974 8.70484 22.0022 8.70484C21.9069 8.70484 21.8126 8.68558 21.725 8.64822C21.6373 8.61085 21.5581 8.55616 21.4922 8.48742C21.4262 8.41868 21.3748 8.33731 21.3411 8.24821C21.3074 8.1591 21.292 8.0641 21.296 7.96891C21.3035 7.78665 21.3812 7.61435 21.5128 7.48805C21.6444 7.36175 21.8197 7.29122 22.0022 7.29122C22.1846 7.29122 22.3599 7.36175 22.4915 7.48805C22.6232 7.61435 22.7009 7.78665 22.7084 7.96891ZM22.7084 17.851C22.7123 17.9462 22.6969 18.0412 22.6632 18.1303C22.6295 18.2194 22.5781 18.3008 22.5121 18.3695C22.4462 18.4383 22.367 18.493 22.2794 18.5303C22.1917 18.5677 22.0974 18.587 22.0022 18.587C21.9069 18.587 21.8126 18.5677 21.725 18.5303C21.6373 18.493 21.5581 18.4383 21.4922 18.3695C21.4262 18.3008 21.3748 18.2194 21.3411 18.1303C21.3074 18.0412 21.292 17.9462 21.296 17.851C21.3035 17.6688 21.3812 17.4965 21.5128 17.3702C21.6444 17.2439 21.8197 17.1733 22.0022 17.1733C22.1846 17.1733 22.3599 17.2439 22.4915 17.3702C22.6232 17.4965 22.7009 17.6688 22.7084 17.851Z" fill="#101827"/>
<path fill-rule="evenodd" clip-rule="evenodd" d="M12.8208 13.6163C13.0079 13.6163 13.1874 13.542 13.3197 13.4096C13.4521 13.2773 13.5264 13.0978 13.5264 12.9107C13.5264 12.7236 13.4521 12.5441 13.3197 12.4118C13.1874 12.2794 13.0079 12.2051 12.8208 12.2051C12.6337 12.2051 12.4542 12.2794 12.3219 12.4118C12.1895 12.5441 12.1152 12.7236 12.1152 12.9107C12.1152 13.0978 12.1895 13.2773 12.3219 13.4096C12.4542 13.542 12.6337 13.6163 12.8208 13.6163ZM13.5264 14.9075C13.9861 14.7447 14.3756 14.4282 14.629 14.0115C14.8824 13.5948 14.9842 13.1034 14.9172 12.6203L17.6424 11.053C17.9811 10.8582 18.0978 10.4257 17.9031 10.0869V10.0869C17.7082 9.74776 17.2751 9.63108 16.9362 9.82637L14.268 11.3639C13.8852 11.0026 13.3813 10.7973 12.8549 10.7882C12.3286 10.7791 11.8179 10.9668 11.4228 11.3147L8.84163 9.83002C8.50407 9.63587 8.07305 9.75169 7.87828 10.0889V10.0889C7.68325 10.4265 7.79888 10.8584 8.13654 11.0534L10.7292 12.5507C10.6471 13.0434 10.7406 13.5493 10.9935 13.9801C11.2464 14.4108 11.6425 14.7391 12.1128 14.9075V17.8516C12.1128 18.2417 12.429 18.558 12.8191 18.558V18.558C13.2091 18.558 13.5253 18.2419 13.5254 17.8519L13.5264 14.9075Z" fill="#101827"/>
</g>
<defs>
<clipPath id="clip0_447_4690">
<rect width="24" height="24" fill="white" transform="translate(0.166748 0.624756)"/>
</clipPath>
</defs>
</svg>
