<svg width="24" height="25" viewBox="0 0 24 25" fill="none" xmlns="http://www.w3.org/2000/svg">
<path d="M10.4285 6.57751H14.4285C14.4285 6.04708 14.2178 5.53837 13.8427 5.1633C13.4676 4.78823 12.9589 4.57751 12.4285 4.57751C11.898 4.57751 11.3893 4.78823 11.0143 5.1633C10.6392 5.53837 10.4285 6.04708 10.4285 6.57751ZM8.42847 6.57751C8.42847 5.51665 8.84989 4.49923 9.60004 3.74909C10.3502 2.99894 11.3676 2.57751 12.4285 2.57751C13.4893 2.57751 14.5067 2.99894 15.2569 3.74909C16.007 4.49923 16.4285 5.51665 16.4285 6.57751H21.4285C21.6937 6.57751 21.948 6.68287 22.1356 6.87041C22.3231 7.05794 22.4285 7.3123 22.4285 7.57751C22.4285 7.84273 22.3231 8.09708 22.1356 8.28462C21.948 8.47216 21.6937 8.57751 21.4285 8.57751H20.5465L19.6605 18.9175C19.5753 19.916 19.1184 20.8461 18.3803 21.5239C17.6422 22.2016 16.6766 22.5776 15.6745 22.5775H9.18247C8.18038 22.5776 7.21474 22.2016 6.47662 21.5239C5.73849 20.8461 5.28164 19.916 5.19647 18.9175L4.31047 8.57751H3.42847C3.16325 8.57751 2.9089 8.47216 2.72136 8.28462C2.53382 8.09708 2.42847 7.84273 2.42847 7.57751C2.42847 7.3123 2.53382 7.05794 2.72136 6.87041C2.9089 6.68287 3.16325 6.57751 3.42847 6.57751H8.42847ZM7.18847 18.7475C7.23107 19.2469 7.45963 19.7121 7.82891 20.051C8.19818 20.3899 8.68125 20.5778 9.18247 20.5775H15.6745C16.1753 20.5773 16.6579 20.3892 17.0268 20.0503C17.3956 19.7115 17.6239 19.2466 17.6665 18.7475L18.5385 8.57751H6.31847L7.18847 18.7475Z" fill="#101827"/>
<path fill-rule="evenodd" clip-rule="evenodd" d="M9.56894 11.6947C9.94312 11.3266 10.5452 11.3328 10.9118 11.7084L12.4284 13.2626L13.9449 11.7084C14.3115 11.3328 14.9136 11.3266 15.2878 11.6947C15.6598 12.0607 15.6659 12.6586 15.3014 13.0321L13.7652 14.6065L15.3014 16.1808C15.6659 16.5543 15.6598 17.1522 15.2878 17.5182C14.9136 17.8863 14.3115 17.8802 13.9449 17.5045L12.4284 15.9503L10.9118 17.5045C10.5452 17.8802 9.94312 17.8863 9.56894 17.5182C9.19693 17.1522 9.19083 16.5543 9.5553 16.1808L11.0915 14.6065L9.5553 13.0321C9.19083 12.6586 9.19693 12.0607 9.56894 11.6947Z" fill="#101827"/>
</svg>
