<svg width="24" height="25" viewBox="0 0 24 25" fill="none" xmlns="http://www.w3.org/2000/svg">
<path d="M5.12858 15.9187L5.12872 15.9181C5.15502 15.8038 5.21291 15.6993 5.29578 15.6164C5.29579 15.6164 5.29579 15.6164 5.2958 15.6164L13.6787 7.23261C13.7275 7.18379 13.8066 7.18378 13.8555 7.2326L17.3912 10.7684C17.44 10.8172 17.44 10.8963 17.3912 10.9451L9.00731 19.329L9.00719 19.3291C8.9244 19.412 8.82002 19.4699 8.70594 19.4962L4.25033 20.5241L4.24942 20.5243C4.22875 20.5291 4.20719 20.5286 4.18679 20.5227C4.16639 20.5169 4.14781 20.506 4.1328 20.491C4.1178 20.476 4.10686 20.4574 4.10102 20.437C4.09518 20.4166 4.09463 20.395 4.09942 20.3743L4.09958 20.3737L5.12858 15.9187Z" stroke="#101827" stroke-width="1.75"/>
<path fill-rule="evenodd" clip-rule="evenodd" d="M19.511 4.39899C18.9484 3.83658 18.1855 3.52063 17.39 3.52063C16.5945 3.52063 15.8316 3.83658 15.269 4.39899C14.8785 4.79009 14.8787 5.42367 15.2695 5.81449L18.8055 9.35049C19.1956 9.7406 19.8282 9.74037 20.218 9.34999C20.4966 9.07141 20.7177 8.74067 20.8685 8.37666C21.0193 8.01265 21.0969 7.6225 21.0969 7.22849C21.0969 6.83448 21.0193 6.44433 20.8685 6.08032C20.7177 5.71631 20.4966 5.38557 20.218 5.10699L19.511 4.39899Z" fill="#101827"/>
</svg>
