<svg width="24" height="25" viewBox="0 0 24 25" fill="none" xmlns="http://www.w3.org/2000/svg">
<path d="M22.0242 12.3934C20.1028 8.64442 16.2989 6.10791 11.9434 6.10791C7.58784 6.10791 3.7829 8.64619 1.86254 12.3937C1.78149 12.5541 1.73926 12.7312 1.73926 12.9108C1.73926 13.0905 1.78149 13.2676 1.86254 13.428C3.78396 17.1769 7.58784 19.7134 11.9434 19.7134C16.2989 19.7134 20.1039 17.1751 22.0242 13.4276C22.1053 13.2673 22.1475 13.0901 22.1475 12.9105C22.1475 12.7308 22.1053 12.5537 22.0242 12.3934ZM11.9434 18.0127C8.4481 18.0127 5.24372 16.064 3.51327 12.9107C5.24372 9.75731 8.44775 7.8086 11.9434 7.8086C15.439 7.8086 18.643 9.75731 20.3735 12.9107C18.6434 16.064 15.439 18.0127 11.9434 18.0127Z" fill="#101827"/>
<path d="M11.9314 8.9424C11.5559 8.9483 11.1831 9.00796 10.8245 9.11956C10.9904 9.41127 11.0787 9.74063 11.0811 10.0762C11.0811 10.3368 11.0297 10.5948 10.93 10.8355C10.8303 11.0762 10.6842 11.2949 10.4999 11.4792C10.3157 11.6634 10.0969 11.8096 9.85622 11.9093C9.6155 12.009 9.35749 12.0603 9.09693 12.0603C8.76136 12.058 8.432 11.9697 8.14029 11.8038C7.91014 12.602 7.93696 13.4524 8.21696 14.2345C8.49696 15.0166 9.01593 15.6907 9.70038 16.1615C10.3848 16.6322 11.2 16.8757 12.0305 16.8574C12.861 16.8391 13.6647 16.56 14.3278 16.0595C14.9908 15.5591 15.4796 14.8627 15.7249 14.0691C15.9702 13.2754 15.9595 12.4247 15.6944 11.6374C15.4294 10.8501 14.9233 10.1662 14.2479 9.6825C13.5725 9.19882 12.7621 8.93989 11.9314 8.9424Z" fill="#101827"/>
</svg>
