<svg width="24" height="25" viewBox="0 0 24 25" fill="none" xmlns="http://www.w3.org/2000/svg">
<g clip-path="url(#clip0_436_1497)">
<path d="M13.3956 9.07726C13.5696 7.62803 11.7472 6.84376 10.8144 7.96648L10.5882 8.23926C10.4486 8.40739 10.2732 8.54215 10.0748 8.63368C9.87645 8.7252 9.66008 8.77115 9.44161 8.76817C9.22314 8.76518 9.00811 8.71334 8.81229 8.61643C8.61646 8.51952 8.44481 8.38002 8.30992 8.20814L8.09237 7.92944C7.18978 6.78113 5.34645 7.51526 5.48175 8.96915L5.51405 9.32163C5.59958 10.2511 4.80744 11.0218 3.88097 10.9105L3.52914 10.8679C2.0799 10.6939 1.29564 12.5163 2.41835 13.4491L2.69113 13.6753C2.85926 13.8149 2.99403 13.9903 3.08555 14.1887C3.17707 14.3871 3.22303 14.6034 3.22004 14.8219C3.21706 15.0404 3.16521 15.2554 3.06831 15.4512C2.9714 15.647 2.83189 15.8187 2.66001 15.9536L2.38132 16.1711C1.233 17.0737 1.96713 18.9171 3.42103 18.7818L3.77351 18.7495C3.99106 18.7293 4.21038 18.758 4.41538 18.8336C4.62038 18.9092 4.80586 19.0297 4.95822 19.1863C5.11058 19.3429 5.22596 19.5316 5.29589 19.7386C5.36582 19.9456 5.38854 20.1656 5.36237 20.3825L5.31982 20.7344C5.14577 22.1836 6.96818 22.9679 7.90096 21.8452L8.12721 21.5724C8.26675 21.4042 8.44214 21.2695 8.64054 21.178C8.83894 21.0864 9.05531 21.0405 9.27378 21.0435C9.49225 21.0465 9.70728 21.0983 9.9031 21.1952C10.0989 21.2921 10.2706 21.4316 10.4055 21.6035L10.623 21.8822C11.5256 23.0305 13.3689 22.2964 13.2336 20.8425L13.2013 20.49C13.1811 20.2725 13.2099 20.0531 13.2855 19.8481C13.361 19.6431 13.4816 19.4577 13.6382 19.3053C13.7948 19.1529 13.9835 19.0376 14.1905 18.9676C14.3975 18.8977 14.6175 18.875 14.8344 18.9011L15.1863 18.9437C16.6355 19.1177 17.4198 17.2953 16.297 16.3626L16.0243 16.1363C15.8561 15.9968 15.7214 15.8214 15.6298 15.623C15.5383 15.4246 15.4924 15.2082 15.4953 14.9897C15.4983 14.7713 15.5502 14.5562 15.6471 14.3604C15.744 14.1646 15.8835 13.9929 16.0554 13.858L16.3341 13.6405C17.4824 12.7379 16.7483 10.8946 15.2944 11.0299L14.9419 11.0622C14.7243 11.0824 14.505 11.0536 14.3 10.978C14.095 10.9025 13.9095 10.7819 13.7572 10.6253C13.6048 10.4687 13.4894 10.28 13.4195 10.073C13.3496 9.86604 13.3269 9.64601 13.353 9.4291L13.3956 9.07726ZM8.19948 17.5972C7.48568 17.29 6.92315 16.7119 6.63563 15.9899C6.34811 15.268 6.35915 14.4614 6.66633 13.7476C6.97351 13.0338 7.55166 12.4713 8.2736 12.1838C8.99553 11.8962 9.80212 11.9073 10.5159 12.2145C11.2295 12.5215 11.7918 13.0995 12.0792 13.8212C12.3666 14.5429 12.3556 15.3492 12.0485 16.0627C11.7415 16.7763 11.1635 17.3386 10.4418 17.626C9.72013 17.9135 8.91382 17.9024 8.20027 17.5953L8.19948 17.5972Z" fill="#101827"/>
<path d="M20.4925 3.75587C20.4767 3.02621 19.5194 2.76616 19.1366 3.38755L19.0438 3.5385C18.9865 3.63154 18.9092 3.71059 18.8174 3.76985C18.7256 3.82911 18.6218 3.86708 18.5134 3.88097C18.405 3.89486 18.2949 3.88432 18.1912 3.85012C18.0874 3.81592 17.9927 3.75894 17.9138 3.68334L17.7865 3.56068C17.2589 3.05572 16.3981 3.54879 16.5673 4.25899L16.6081 4.4312C16.7158 4.88532 16.3779 5.32253 15.9114 5.3326L15.7343 5.33629C15.0046 5.35206 14.7445 6.30937 15.3659 6.69215L15.5169 6.78497C15.6099 6.84221 15.689 6.91956 15.7482 7.01134C15.8075 7.10311 15.8455 7.20699 15.8594 7.31535C15.8732 7.4237 15.8627 7.5338 15.8285 7.63755C15.7943 7.74131 15.7373 7.83609 15.6617 7.91495L15.5391 8.04225C15.0341 8.56983 15.5272 9.43069 16.2374 9.26145L16.4096 9.22067C16.5159 9.19536 16.6265 9.19417 16.7333 9.21716C16.84 9.24016 16.9403 9.28677 17.0268 9.35358C17.1132 9.42038 17.1836 9.50569 17.2328 9.60324C17.282 9.70079 17.3087 9.80811 17.311 9.91733L17.3147 10.0945C17.3304 10.8241 18.2878 11.0842 18.6705 10.4628L18.7634 10.3119C18.8206 10.2188 18.8979 10.1398 18.9897 10.0805C19.0815 10.0212 19.1854 9.98328 19.2937 9.96939C19.4021 9.9555 19.5122 9.96604 19.6159 10.0002C19.7197 10.0344 19.8145 10.0914 19.8933 10.167L20.0206 10.2897C20.5482 10.7946 21.4091 10.3016 21.2398 9.59137L21.1991 9.41915C21.1737 9.31288 21.1726 9.20229 21.1956 9.09549C21.2185 8.9887 21.2652 8.8884 21.332 8.80196C21.3988 8.71553 21.4841 8.64514 21.5816 8.59596C21.6792 8.54678 21.7865 8.52006 21.8957 8.51776L22.0729 8.51407C22.8025 8.4983 23.0626 7.54099 22.4412 7.15821L22.2902 7.06539C22.1972 7.00814 22.1182 6.9308 22.0589 6.83902C21.9996 6.74725 21.9617 6.64337 21.9478 6.53501C21.9339 6.42665 21.9444 6.31656 21.9786 6.21281C22.0128 6.10905 22.0698 6.01427 22.1454 5.9354L22.2681 5.80811C22.773 5.28053 22.28 4.41967 21.5698 4.58891L21.3975 4.62969C21.2913 4.65499 21.1807 4.65619 21.0739 4.63319C20.9671 4.61019 20.8668 4.56358 20.7804 4.49678C20.6939 4.42997 20.6235 4.34467 20.5743 4.24712C20.5252 4.14957 20.4984 4.04225 20.4961 3.93303L20.4925 3.75587ZM18.5195 8.33895C18.1446 8.23709 17.8254 7.99046 17.6323 7.6533C17.4392 7.31615 17.3879 6.91609 17.4898 6.54113C17.5917 6.16618 17.8383 5.84704 18.1754 5.65393C18.5126 5.46082 18.9127 5.40956 19.2876 5.51141C19.6624 5.61323 19.9815 5.85978 20.1745 6.19682C20.3676 6.53386 20.4188 6.93378 20.317 7.30861C20.2152 7.68344 19.9686 8.00246 19.6316 8.19551C19.2945 8.38855 18.8946 8.4398 18.5198 8.33798L18.5195 8.33895Z" fill="#101827"/>
</g>
<defs>
<clipPath id="clip0_436_1497">
<rect width="24" height="24" fill="white" transform="translate(0 0.624756)"/>
</clipPath>
</defs>
</svg>
