<svg width="24" height="25" viewBox="0 0 24 25" fill="none" xmlns="http://www.w3.org/2000/svg">
<path d="M10.3181 14.7085H16.8181M6.81812 14.7085H7.31812M6.81812 11.2085H7.31812M6.81812 18.2085H7.31812M10.3181 11.2085H16.8181M10.3181 18.2085H16.8181" stroke="#101827" stroke-width="1.75" stroke-linecap="round"/>
<path d="M7.81812 4.2085C7.81812 3.81067 7.97615 3.42914 8.25745 3.14784C8.53876 2.86653 8.92029 2.7085 9.31812 2.7085H14.3181C14.7159 2.7085 15.0975 2.86653 15.3788 3.14784C15.6601 3.42914 15.8181 3.81067 15.8181 4.2085V5.2085C15.8181 5.60632 15.6601 5.98785 15.3788 6.26916C15.0975 6.55046 14.7159 6.7085 14.3181 6.7085H9.31812C8.92029 6.7085 8.53876 6.55046 8.25745 6.26916C7.97615 5.98785 7.81812 5.60632 7.81812 5.2085V4.2085Z" stroke="#101827" stroke-width="1.75"/>
<path d="M20.8181 16.7084C20.8181 19.5374 20.8181 20.9514 19.9391 21.8304C19.0611 22.7084 17.6461 22.7085 14.8181 22.7085H8.81812C5.99012 22.7085 4.57512 22.7084 3.69712 21.8304C2.81812 20.9504 2.81812 19.5374 2.81812 16.7084V13.7084M15.8181 4.71045C17.9931 4.72245 19.1711 4.81945 19.9391 5.58745C20.8181 6.46645 20.8181 7.88045 20.8181 10.7084V12.7084M7.81812 4.71045C5.64312 4.72245 4.46512 4.81945 3.69712 5.58745C2.92912 6.35545 2.83212 7.53345 2.82012 9.70845" stroke="#101827" stroke-width="1.75" stroke-linecap="round"/>
</svg>
