<svg width="33" height="33" viewBox="0 0 33 33" fill="none" xmlns="http://www.w3.org/2000/svg">
<path d="M8.47343 26.8265C7.7401 26.8265 7.11232 26.5654 6.5901 26.0432C6.06787 25.5209 5.80676 24.8932 5.80676 24.1598C5.80676 23.4265 6.06787 22.7987 6.5901 22.2765C7.11232 21.7543 7.7401 21.4932 8.47343 21.4932C9.20676 21.4932 9.83454 21.7543 10.3568 22.2765C10.879 22.7987 11.1401 23.4265 11.1401 24.1598C11.1401 24.8932 10.879 25.5209 10.3568 26.0432C9.83454 26.5654 9.20676 26.8265 8.47343 26.8265ZM16.4734 26.8265C15.7401 26.8265 15.1123 26.5654 14.5901 26.0432C14.0679 25.5209 13.8068 24.8932 13.8068 24.1598C13.8068 23.4265 14.0679 22.7987 14.5901 22.2765C15.1123 21.7543 15.7401 21.4932 16.4734 21.4932C17.2068 21.4932 17.8345 21.7543 18.3568 22.2765C18.879 22.7987 19.1401 23.4265 19.1401 24.1598C19.1401 24.8932 18.879 25.5209 18.3568 26.0432C17.8345 26.5654 17.2068 26.8265 16.4734 26.8265ZM24.4734 26.8265C23.7401 26.8265 23.1123 26.5654 22.5901 26.0432C22.0679 25.5209 21.8068 24.8932 21.8068 24.1598C21.8068 23.4265 22.0679 22.7987 22.5901 22.2765C23.1123 21.7543 23.7401 21.4932 24.4734 21.4932C25.2068 21.4932 25.8345 21.7543 26.3568 22.2765C26.879 22.7987 27.1401 23.4265 27.1401 24.1598C27.1401 24.8932 26.879 25.5209 26.3568 26.0432C25.8345 26.5654 25.2068 26.8265 24.4734 26.8265ZM8.47343 18.8265C7.7401 18.8265 7.11232 18.5654 6.5901 18.0432C6.06787 17.5209 5.80676 16.8932 5.80676 16.1598C5.80676 15.4265 6.06787 14.7987 6.5901 14.2765C7.11232 13.7543 7.7401 13.4932 8.47343 13.4932C9.20676 13.4932 9.83454 13.7543 10.3568 14.2765C10.879 14.7987 11.1401 15.4265 11.1401 16.1598C11.1401 16.8932 10.879 17.5209 10.3568 18.0432C9.83454 18.5654 9.20676 18.8265 8.47343 18.8265ZM16.4734 18.8265C15.7401 18.8265 15.1123 18.5654 14.5901 18.0432C14.0679 17.5209 13.8068 16.8932 13.8068 16.1598C13.8068 15.4265 14.0679 14.7987 14.5901 14.2765C15.1123 13.7543 15.7401 13.4932 16.4734 13.4932C17.2068 13.4932 17.8345 13.7543 18.3568 14.2765C18.879 14.7987 19.1401 15.4265 19.1401 16.1598C19.1401 16.8932 18.879 17.5209 18.3568 18.0432C17.8345 18.5654 17.2068 18.8265 16.4734 18.8265ZM24.4734 18.8265C23.7401 18.8265 23.1123 18.5654 22.5901 18.0432C22.0679 17.5209 21.8068 16.8932 21.8068 16.1598C21.8068 15.4265 22.0679 14.7987 22.5901 14.2765C23.1123 13.7543 23.7401 13.4932 24.4734 13.4932C25.2068 13.4932 25.8345 13.7543 26.3568 14.2765C26.879 14.7987 27.1401 15.4265 27.1401 16.1598C27.1401 16.8932 26.879 17.5209 26.3568 18.0432C25.8345 18.5654 25.2068 18.8265 24.4734 18.8265ZM8.47343 10.8265C7.7401 10.8265 7.11232 10.5654 6.5901 10.0432C6.06787 9.52094 5.80676 8.89316 5.80676 8.15983C5.80676 7.4265 6.06787 6.79872 6.5901 6.2765C7.11232 5.75428 7.7401 5.49316 8.47343 5.49316C9.20676 5.49316 9.83454 5.75428 10.3568 6.2765C10.879 6.79872 11.1401 7.4265 11.1401 8.15983C11.1401 8.89316 10.879 9.52094 10.3568 10.0432C9.83454 10.5654 9.20676 10.8265 8.47343 10.8265ZM16.4734 10.8265C15.7401 10.8265 15.1123 10.5654 14.5901 10.0432C14.0679 9.52094 13.8068 8.89316 13.8068 8.15983C13.8068 7.4265 14.0679 6.79872 14.5901 6.2765C15.1123 5.75428 15.7401 5.49316 16.4734 5.49316C17.2068 5.49316 17.8345 5.75428 18.3568 6.2765C18.879 6.79872 19.1401 7.4265 19.1401 8.15983C19.1401 8.89316 18.879 9.52094 18.3568 10.0432C17.8345 10.5654 17.2068 10.8265 16.4734 10.8265ZM24.4734 10.8265C23.7401 10.8265 23.1123 10.5654 22.5901 10.0432C22.0679 9.52094 21.8068 8.89316 21.8068 8.15983C21.8068 7.4265 22.0679 6.79872 22.5901 6.2765C23.1123 5.75428 23.7401 5.49316 24.4734 5.49316C25.2068 5.49316 25.8345 5.75428 26.3568 6.2765C26.879 6.79872 27.1401 7.4265 27.1401 8.15983C27.1401 8.89316 26.879 9.52094 26.3568 10.0432C25.8345 10.5654 25.2068 10.8265 24.4734 10.8265Z" fill="#101827"/>
</svg>
