<svg width="33" height="33" viewBox="0 0 33 33" fill="none" xmlns="http://www.w3.org/2000/svg">
<path d="M16.7966 4.16016C23.424 4.16016 28.7966 9.53274 28.7966 16.1602C28.7966 22.7876 23.424 28.1602 16.7966 28.1602C10.1692 28.1602 4.79663 22.7876 4.79663 16.1602C4.79663 9.53274 10.1692 4.16016 16.7966 4.16016ZM22.9705 12.0117C22.5018 11.5431 21.7418 11.5431 21.2732 12.0117L15.3718 17.9131L12.8455 15.3867C12.3768 14.9181 11.6168 14.9181 11.1482 15.3867C10.6796 15.8553 10.6796 16.6154 11.1482 17.084L14.5232 20.459C14.9918 20.9274 15.7519 20.9275 16.2205 20.459L22.9705 13.709C23.439 13.2404 23.4389 12.4804 22.9705 12.0117Z" fill="#101827"/>
</svg>
