<svg width="33" height="33" viewBox="0 0 33 33" fill="none" xmlns="http://www.w3.org/2000/svg">
<path d="M15.9979 4.41016C16.4283 4.4102 16.8426 4.49903 17.2362 4.67578C17.647 4.86029 17.9938 5.14686 18.2782 5.51953H18.2792L21.5419 9.69336L26.4803 11.3301L26.7069 11.4082C27.2243 11.6097 27.6505 11.9389 27.9716 12.3936C28.3298 12.9011 28.5126 13.4702 28.5126 14.0879C28.5126 14.3745 28.4704 14.6588 28.3876 14.9395C28.3005 15.2344 28.1583 15.5108 27.9696 15.7686L27.9706 15.7695L24.7714 20.252L24.8866 24.9385L24.8817 25.2432C24.836 25.9412 24.5579 26.5536 24.0497 27.0557C23.4824 27.6161 22.7987 27.9101 22.0204 27.9102C21.9578 27.9102 21.8491 27.896 21.7587 27.8838L21.288 27.8164L21.2274 27.8037L15.9969 26.3594L10.7694 27.8027C10.6332 27.8513 10.4914 27.8816 10.3456 27.8936C10.2149 27.9043 10.0913 27.9101 9.97546 27.9102C9.19714 27.9102 8.51344 27.616 7.94617 27.0557C7.36533 26.4817 7.08441 25.7639 7.10828 24.9385L7.22351 20.2227L4.05457 15.7695V15.7686C3.86603 15.5109 3.72459 15.2342 3.63757 14.9395C3.55478 14.6588 3.51258 14.3745 3.51257 14.0879C3.51257 13.4897 3.69033 12.9334 4.03406 12.4297C4.38885 11.9099 4.88481 11.545 5.4989 11.335L5.50281 11.334L10.452 9.69336L13.7157 5.51953C14.0001 5.14662 14.3477 4.86039 14.7587 4.67578C15.1523 4.49897 15.5674 4.41016 15.9979 4.41016ZM12.618 12.4688C12.5567 12.5482 12.4723 12.6076 12.3768 12.6387L7.20593 14.3232L10.5341 19.0703C10.5798 19.1356 10.6092 19.2108 10.62 19.2891L10.6249 19.3682L10.5184 24.3535L15.8661 22.9014L15.9325 22.8877C15.9986 22.879 16.066 22.8844 16.1307 22.9023L21.4755 24.3799L21.37 19.3682C21.3677 19.261 21.4008 19.1558 21.4628 19.0684L24.788 14.377L19.6132 12.6377C19.5196 12.6062 19.4372 12.5469 19.3768 12.4688L15.9969 8.0957L12.618 12.4688Z" fill="#101827"/>
</svg>
