<svg width="33" height="33" viewBox="0 0 33 33" fill="none" xmlns="http://www.w3.org/2000/svg">
<path d="M28.9517 27.2271C28.4363 27.7426 27.6005 27.7426 27.0851 27.2271L21.7517 21.8938C20.8406 22.6049 19.8351 23.1605 18.7351 23.5605C17.6351 23.9605 16.4628 24.1605 15.2184 24.1605C13.2184 24.1605 11.4128 23.6716 9.80172 22.6938C8.95924 22.1825 8.20944 21.5862 7.55229 20.9047C6.74957 20.0723 7.4373 18.8271 8.59369 18.8271V18.8271C9.01305 18.8271 9.4085 19.008 9.71472 19.2945C10.3615 19.8996 11.0905 20.3938 11.9017 20.7771C12.9128 21.2549 14.0184 21.4938 15.2184 21.4938C17.4406 21.4938 19.3295 20.716 20.8851 19.1605C22.4406 17.6049 23.2184 15.716 23.2184 13.4938C23.2184 11.2716 22.4406 9.3827 20.8851 7.82715C19.3295 6.27159 17.4406 5.49382 15.2184 5.49382C13.1295 5.49382 11.3239 6.19937 9.80172 7.61048C8.58859 8.73506 7.80241 10.0678 7.44317 11.6087C7.28466 12.2886 6.71559 12.8271 6.01745 12.8271V12.8271C5.24136 12.8271 4.61753 12.169 4.76 11.4061C5.17207 9.19951 6.21931 7.30096 7.90172 5.71048C9.93505 3.78826 12.3739 2.82715 15.2184 2.82715C18.1962 2.82715 20.7184 3.86048 22.7851 5.92715C24.8517 7.99382 25.8851 10.516 25.8851 13.4938C25.8851 14.7383 25.6851 15.9105 25.2851 17.0105C24.8851 18.1105 24.3295 19.116 23.6184 20.0271L28.9517 25.3605C29.4672 25.8759 29.4672 26.7117 28.9517 27.2271V27.2271ZM14.7786 18.8271C14.1886 18.8271 13.6681 18.441 13.497 17.8763L11.6851 11.8938L9.95172 16.8271H4.21838C3.6661 16.8271 3.21838 16.3794 3.21838 15.8271V15.8271C3.21838 15.2749 3.6661 14.8271 4.21838 14.8271H8.55172L10.4311 9.41672C10.6231 8.8642 11.1438 8.49382 11.7287 8.49382V8.49382C12.3358 8.49382 12.8709 8.89231 13.0448 9.47393L14.7851 15.2938L15.8876 11.858C16.0847 11.2438 16.6559 10.8271 17.301 10.8271V10.8271C17.8632 10.8271 18.3772 11.1448 18.6287 11.6477L20.2184 14.8271V14.8271C20.7707 14.8271 21.2184 15.2749 21.2184 15.8271V15.8271C21.2184 16.3794 20.7707 16.8271 20.2184 16.8271H18.9851L17.4184 13.6938L16.0522 17.9016C15.873 18.4535 15.3588 18.8271 14.7786 18.8271V18.8271Z" fill="#101827"/>
</svg>
