<svg width="33" height="33" viewBox="0 0 33 33" fill="none" xmlns="http://www.w3.org/2000/svg">
<path d="M16.405 8.52441C16.9793 8.09081 17.802 8.1526 18.3035 8.69238L24.3386 15.1934H24.3396L24.4275 15.2988C24.8139 15.8063 24.8153 16.5144 24.4275 17.0225L24.3386 17.127L18.3035 23.627C17.7693 24.2022 16.869 24.2358 16.2937 23.7031V23.7021C15.7185 23.168 15.6856 22.2679 16.2195 21.6924L20.0359 17.582H10.2966C9.55956 17.5817 8.95539 17.0203 8.88257 16.3047L8.87573 16.1592C8.87618 15.3744 9.51194 14.7386 10.2966 14.7383H20.0369L16.2195 10.626C15.6861 10.0505 15.7186 9.15212 16.2927 8.61816H16.2937L16.405 8.52441Z" fill="black"/>
</svg>
