<svg width="33" height="33" viewBox="0 0 33 33" fill="none" xmlns="http://www.w3.org/2000/svg">
<path d="M9.5616 27.7913C9.29505 27.7913 9.04668 27.7247 8.81648 27.5914C8.58629 27.4582 8.41061 27.2704 8.28945 27.0281L5.45439 21.9758H7.56251L9.01639 24.8836H12.3603V23.4297H9.88872L8.43484 20.522H4.65476L2.58298 16.8873C2.53452 16.7661 2.49211 16.6449 2.45577 16.5238C2.41942 16.4026 2.40125 16.2815 2.40125 16.1603C2.40125 16.0634 2.46182 15.8211 2.58298 15.4334L4.65476 11.7987H8.43484L9.88872 8.89093H12.3603V7.43705H9.01639L7.56251 10.3448H5.45439L8.28945 5.29258C8.41061 5.05027 8.58629 4.86248 8.81648 4.72921C9.04668 4.59593 9.29505 4.5293 9.5616 4.5293H13.0873C13.4992 4.5293 13.8445 4.66863 14.1231 4.94729C14.4018 5.22595 14.5411 5.57124 14.5411 5.98318V11.7987H12.3603L10.9064 13.2526H14.5411V17.6142H11.3426L9.88872 14.7064H6.5448L5.09092 16.1603H9.01639L10.4703 19.0681H14.5411V26.3375C14.5411 26.7494 14.4018 27.0947 14.1231 27.3734C13.8445 27.652 13.4992 27.7913 13.0873 27.7913H9.5616ZM18.1758 27.7913C17.3762 27.7913 16.6917 27.5066 16.1222 26.9372C15.5528 26.3678 15.2681 25.6832 15.2681 24.8836C15.2681 24.3263 15.4013 23.8356 15.6679 23.4115C15.9344 22.9875 16.2858 22.6422 16.7219 22.3757V9.94499C16.2858 9.67845 15.9344 9.33315 15.6679 8.90911C15.4013 8.48506 15.2681 7.99437 15.2681 7.43705C15.2681 6.63742 15.5528 5.95289 16.1222 5.38345C16.6917 4.81401 17.3762 4.5293 18.1758 4.5293C18.9755 4.5293 19.66 4.81401 20.2294 5.38345C20.7989 5.95289 21.0836 6.63742 21.0836 7.43705C21.0836 7.99437 20.9503 8.48506 20.6838 8.90911C20.4172 9.33315 20.0659 9.67845 19.6297 9.94499V13.616L22.5375 11.8714C22.5375 11.0475 22.8222 10.3448 23.3916 9.76326C23.9611 9.18171 24.6456 8.89093 25.4452 8.89093C26.2449 8.89093 26.9294 9.17565 27.4988 9.74509C28.0683 10.3145 28.353 10.9991 28.353 11.7987C28.353 12.5983 28.0683 13.2829 27.4988 13.8523C26.9294 14.4217 26.2449 14.7064 25.4452 14.7064C25.1787 14.7064 24.9303 14.6762 24.7001 14.6156C24.4699 14.555 24.2458 14.4641 24.0277 14.343L20.7201 16.3421L24.3912 19.2498C24.5608 19.1771 24.7304 19.1287 24.9 19.1044C25.0696 19.0802 25.2514 19.0681 25.4452 19.0681C26.2449 19.0681 26.9294 19.3528 27.4988 19.9222C28.0683 20.4917 28.353 21.1762 28.353 21.9758C28.353 22.7755 28.0683 23.46 27.4988 24.0294C26.9294 24.5989 26.2449 24.8836 25.4452 24.8836C24.5487 24.8836 23.8157 24.5444 23.2462 23.8659C22.6768 23.1874 22.4527 22.412 22.5738 21.5397L19.6297 19.1771V22.412C20.0659 22.6785 20.4112 23.0238 20.6656 23.4479C20.92 23.8719 21.0472 24.3505 21.0472 24.8836C21.0472 25.6832 20.7686 26.3678 20.2113 26.9372C19.6539 27.5066 18.9755 27.7913 18.1758 27.7913Z" fill="#101827"/>
</svg>
