<svg width="33" height="33" viewBox="0 0 33 33" fill="none" xmlns="http://www.w3.org/2000/svg">
<path d="M20.6524 17.4307L18.3772 15.1835H20.3154L23.4052 9.56558H12.7593L10.5121 7.31841H25.2591C25.6898 7.31841 26.0222 7.50099 26.2563 7.86615C26.4904 8.23132 26.4951 8.62925 26.2704 9.05996L22.2816 16.2509C22.0756 16.6254 21.8135 16.9157 21.4951 17.1217C21.1768 17.3277 20.8959 17.4307 20.6524 17.4307ZM10.7087 27.5429C10.0907 27.5429 9.56172 27.3229 9.12165 26.8828C8.68158 26.4428 8.46154 25.9137 8.46154 25.2958C8.46154 24.6778 8.68158 24.1488 9.12165 23.7087C9.56172 23.2686 10.0907 23.0486 10.7087 23.0486C11.3267 23.0486 11.8557 23.2686 12.2958 23.7087C12.7358 24.1488 12.9559 24.6778 12.9559 25.2958C12.9559 25.9137 12.7358 26.4428 12.2958 26.8828C11.8557 27.3229 11.3267 27.5429 10.7087 27.5429ZM25.8771 29.0036L18.7423 21.925H11.3829C10.5589 21.925 9.93157 21.5739 9.50086 20.8716C9.07015 20.1694 9.04206 19.4344 9.41659 18.6666L10.5964 16.2509L8.5739 11.7004L3.63013 6.75661L5.20315 5.18359L27.4501 27.4306L25.8771 29.0036ZM16.4952 19.6778L14.248 17.4307H12.5064L11.3829 19.6778H16.4952ZM21.9446 27.5429C21.3266 27.5429 20.7976 27.3229 20.3575 26.8828C19.9174 26.4428 19.6974 25.9137 19.6974 25.2958C19.6974 24.6778 19.9174 24.1488 20.3575 23.7087C20.7976 23.2686 21.3266 23.0486 21.9446 23.0486C22.5625 23.0486 23.0916 23.2686 23.5316 23.7087C23.9717 24.1488 24.1917 24.6778 24.1917 25.2958C24.1917 25.9137 23.9717 26.4428 23.5316 26.8828C23.0916 27.3229 22.5625 27.5429 21.9446 27.5429Z" fill="#101827"/>
</svg>
