<svg width="33" height="33" viewBox="0 0 33 33" fill="none" xmlns="http://www.w3.org/2000/svg">
<path d="M16.5518 21.4938C18.8185 19.4494 20.274 18.0105 20.9185 17.1771C21.5629 16.3438 21.8851 15.516 21.8851 14.6938C21.8851 13.8938 21.5962 13.2049 21.0185 12.6271C20.4407 12.0494 19.7518 11.7605 18.9518 11.7605C18.4851 11.7605 18.0351 11.8549 17.6018 12.0438C17.1685 12.2327 16.8185 12.4938 16.5518 12.8271C16.2851 12.4938 15.9407 12.2327 15.5185 12.0438C15.0962 11.8549 14.6407 11.7605 14.1518 11.7605C13.3518 11.7605 12.6629 12.0494 12.0851 12.6271C11.5074 13.2049 11.2185 13.8938 11.2185 14.6938C11.2185 15.116 11.274 15.5049 11.3851 15.8605C11.4962 16.216 11.7407 16.6327 12.1185 17.1105C12.4962 17.5883 13.0351 18.1716 13.7351 18.8605C14.4351 19.5494 15.374 20.4271 16.5518 21.4938ZM16.5518 29.4938C13.4629 28.716 10.9129 26.9438 8.9018 24.1771C6.89069 21.4105 5.88513 18.3383 5.88513 14.9605V8.90615C5.88513 7.65562 6.66085 6.53625 7.83176 6.09716L15.4984 3.22216C16.1776 2.96748 16.926 2.96748 17.6052 3.22216L25.2718 6.09716C26.4427 6.53625 27.2185 7.65562 27.2185 8.90615V14.9605C27.2185 18.3383 26.2129 21.4105 24.2018 24.1771C22.1907 26.9438 19.6407 28.716 16.5518 29.4938ZM16.5518 26.6938C18.8629 25.9605 20.774 24.4938 22.2851 22.2938C23.7962 20.0938 24.5518 17.6494 24.5518 14.9605V10.7395C24.5518 9.48895 23.7761 8.36959 22.6052 7.9305L17.6052 6.0555C16.926 5.80081 16.1776 5.80081 15.4984 6.0555L10.4984 7.9305C9.32752 8.36959 8.5518 9.48895 8.5518 10.7395V14.9605C8.5518 17.6494 9.30735 20.0938 10.8185 22.2938C12.3296 24.4938 14.2407 25.9605 16.5518 26.6938Z" fill="#101827"/>
</svg>
