<svg width="33" height="33" viewBox="0 0 33 33" fill="none" xmlns="http://www.w3.org/2000/svg">
<path d="M27.616 27.3174L25.8884 29.0449L23.9109 27.0674C23.8538 27.0709 23.7957 27.0752 23.7371 27.0752H19.1326C19.1325 26.1057 18.8238 25.2574 18.2078 24.5303C17.5918 23.8032 16.8093 23.4395 15.8601 23.4395C14.9107 23.4395 14.1275 23.8031 13.5115 24.5303C12.8955 25.2574 12.5877 26.1057 12.5876 27.0752H7.98218C7.31561 27.0752 6.74494 26.838 6.27026 26.3633C5.79561 25.8886 5.55835 25.3179 5.55835 24.6514V20.0459C6.52782 20.0459 7.37615 19.7381 8.10327 19.1221C8.83044 18.506 9.19409 17.7228 9.19409 16.7734C9.194 15.8242 8.83034 15.0418 8.10327 14.4258C7.37612 13.8097 6.52788 13.502 5.55835 13.502V8.89648C5.55835 8.83787 5.56263 8.7798 5.56616 8.72266L3.58862 6.74512L5.31616 5.01758L27.616 27.3174ZM20.6853 23.8418C20.8316 24.0973 20.9605 24.367 21.071 24.6514H21.4949L20.6853 23.8418ZM10.9255 14.082C11.3865 14.9025 11.6179 15.7993 11.6179 16.7734C11.6179 17.9248 11.2845 18.9754 10.6179 19.9248C9.95136 20.8741 9.0729 21.5612 7.98218 21.9854V24.6514H10.6482C11.0724 23.5607 11.7594 22.6822 12.7087 22.0156C13.6581 21.3491 14.7088 21.0156 15.8601 21.0156C16.8438 21.0157 17.7534 21.2595 18.5896 21.7461L10.9255 14.082ZM15.8601 3.44238C16.7083 3.44245 17.4258 3.73558 18.0115 4.32129C18.597 4.907 18.8894 5.62446 18.8894 6.47266H23.7371C24.4036 6.47266 24.9743 6.70992 25.449 7.18457C25.9237 7.65925 26.1609 8.22991 26.1609 8.89648V13.7441C27.0093 13.7441 27.7265 14.0373 28.3123 14.623C28.8979 15.2087 29.1911 15.9253 29.1912 16.7734C29.1912 17.6218 28.898 18.339 28.3123 18.9248C27.7265 19.5105 27.0092 19.8037 26.1609 19.8037V22.4092L23.7371 19.9854V17.3799H26.1609C26.3225 17.3799 26.4645 17.3194 26.5857 17.1982C26.7069 17.077 26.7673 16.935 26.7673 16.7734C26.7672 16.612 26.7068 16.4707 26.5857 16.3496C26.4645 16.2284 26.3225 16.168 26.1609 16.168H23.7371V8.89648H16.4656V6.47266C16.4656 6.31106 16.4051 6.16905 16.2839 6.04785C16.1628 5.92682 16.0215 5.86628 15.8601 5.86621C15.6985 5.86621 15.5565 5.92666 15.4353 6.04785C15.3142 6.16903 15.2537 6.31109 15.2537 6.47266V8.89648H12.6482L10.2244 6.47266H12.8298C12.8298 5.62432 13.123 4.90705 13.7087 4.32129C14.2945 3.73551 15.0117 3.44238 15.8601 3.44238ZM7.98218 11.5625C8.25493 11.6635 8.51427 11.7819 8.7605 11.917L7.98218 11.1387V11.5625Z" fill="#101827"/>
</svg>
