<svg width="33" height="33" viewBox="0 0 33 33" fill="none" xmlns="http://www.w3.org/2000/svg">
<path d="M24.8887 15.1323C24.8475 14.9482 24.7621 14.7769 24.6398 14.6332C24.5176 14.4895 24.3622 14.3778 24.187 14.3077L19.2337 12.3265L20.2586 5.49267C20.2962 5.24728 20.2542 4.99628 20.1387 4.7765C20.0233 4.55673 19.8404 4.37973 19.617 4.27149C19.3936 4.16324 19.1413 4.12943 18.8973 4.17503C18.6533 4.22063 18.4303 4.34323 18.261 4.52484L7.4213 16.1388C7.29245 16.2768 7.19919 16.4441 7.14958 16.6263C7.09997 16.8084 7.09551 16.9999 7.1366 17.1842C7.17769 17.3685 7.26307 17.5399 7.38537 17.6838C7.50766 17.8276 7.66317 17.9394 7.83844 18.0096L12.7918 19.9908L11.7669 26.8275C11.7292 27.0729 11.7712 27.3239 11.8867 27.5437C12.0022 27.7635 12.185 27.9405 12.4085 28.0487C12.6319 28.1569 12.8841 28.1908 13.1281 28.1452C13.3722 28.0996 13.5952 27.977 13.7645 27.7953L24.6042 16.1814C24.7336 16.043 24.8271 15.875 24.8767 15.6922C24.9263 15.5093 24.9304 15.3171 24.8887 15.1323ZM14.6191 23.472L15.2259 19.4294C15.2647 19.1707 15.2149 18.9064 15.0848 18.6795C14.9546 18.4525 14.7516 18.2762 14.5087 18.179L10.2774 16.4863L17.4064 8.84814L16.7996 12.8908C16.7608 13.1495 16.8105 13.4138 16.9407 13.6407C17.0708 13.8677 17.2738 14.044 17.5167 14.1412L21.7481 15.8339L14.6191 23.472Z" fill="#101827"/>
</svg>
