<svg width="33" height="33" viewBox="0 0 33 33" fill="none" xmlns="http://www.w3.org/2000/svg">
<path d="M21.3518 15.5812C21.6918 15.5812 21.9768 15.4702 22.2068 15.2483C22.4368 15.0264 22.5518 14.7514 22.5518 14.4233C22.5518 14.0952 22.4368 13.8202 22.2068 13.5983C21.9768 13.3764 21.6918 13.2654 21.3518 13.2654C21.0118 13.2654 20.7268 13.3764 20.4968 13.5983C20.2668 13.8202 20.1518 14.0952 20.1518 14.4233C20.1518 14.7514 20.2668 15.0264 20.4968 15.2483C20.7268 15.4702 21.0118 15.5812 21.3518 15.5812ZM11.7518 13.2654H17.7518V10.9496H11.7518V13.2654ZM7.55176 27.1602C6.87176 24.9602 6.20176 22.765 5.54176 20.5746C4.88176 18.3843 4.55176 16.1409 4.55176 13.8444C4.55176 12.0689 5.19176 10.5637 6.47176 9.32858C7.75176 8.09349 9.31176 7.47595 11.1518 7.47595H17.1518C17.7318 6.74261 18.4368 6.17331 19.2668 5.76805C20.0968 5.36279 20.9918 5.16016 21.9518 5.16016C22.4518 5.16016 22.8768 5.32902 23.2268 5.66674C23.5768 6.00445 23.7518 6.41454 23.7518 6.897C23.7518 7.01279 23.7368 7.12858 23.7068 7.24437C23.6768 7.36016 23.6418 7.4663 23.6018 7.56279C23.5218 7.77507 23.4468 7.99217 23.3768 8.2141C23.3068 8.43603 23.2518 8.66279 23.2118 8.89437L25.9418 11.5286H28.5518V19.6049L25.1618 20.6759L23.1518 27.1602H16.5518V24.8444H14.1518V27.1602H7.55176ZM9.35176 24.8444H11.7518V22.5286H18.9518V24.8444H21.3518L23.2118 18.8812L26.1518 17.9259V13.8444H24.9518L20.7518 9.79174C20.7518 9.40577 20.7768 9.03428 20.8268 8.67726C20.8768 8.32024 20.9518 7.9584 21.0518 7.59174C20.4718 7.74612 19.9618 8.01147 19.5218 8.38779C19.0818 8.7641 18.7618 9.23209 18.5618 9.79174H11.1518C9.99176 9.79174 9.00176 10.1873 8.18176 10.9786C7.36176 11.7698 6.95176 12.7251 6.95176 13.8444C6.95176 15.7356 7.22176 17.5834 7.76176 19.3878C8.30176 21.1922 8.83176 23.011 9.35176 24.8444Z" fill="#101827"/>
</svg>
