<svg width="24" height="25" viewBox="0 0 24 25" fill="none" xmlns="http://www.w3.org/2000/svg">
<path d="M12.2383 7.62476C12.6525 7.62476 12.9883 7.28897 12.9883 6.87476C12.9883 6.46054 12.6525 6.12476 12.2383 6.12476C11.8241 6.12476 11.4883 6.46054 11.4883 6.87476C11.4883 7.28897 11.8241 7.62476 12.2383 7.62476Z" stroke="#101827" stroke-width="1.5" stroke-linecap="round" stroke-linejoin="round"/>
<path d="M12.2383 13.1248C12.6525 13.1248 12.9883 12.789 12.9883 12.3748C12.9883 11.9605 12.6525 11.6248 12.2383 11.6248C11.8241 11.6248 11.4883 11.9605 11.4883 12.3748C11.4883 12.789 11.8241 13.1248 12.2383 13.1248Z" stroke="#101827" stroke-width="1.5" stroke-linecap="round" stroke-linejoin="round"/>
<path d="M12.2383 18.6248C12.6525 18.6248 12.9883 18.289 12.9883 17.8748C12.9883 17.4605 12.6525 17.1248 12.2383 17.1248C11.8241 17.1248 11.4883 17.4605 11.4883 17.8748C11.4883 18.289 11.8241 18.6248 12.2383 18.6248Z" stroke="#101827" stroke-width="1.5" stroke-linecap="round" stroke-linejoin="round"/>
</svg>
