<svg width="24" height="25" viewBox="0 0 24 25" fill="none" xmlns="http://www.w3.org/2000/svg">
<path d="M11.9575 23.2648C11.9796 23.3682 12.0364 23.4609 12.1186 23.5274C12.2008 23.5939 12.3033 23.6301 12.409 23.6301C12.5147 23.6301 12.6171 23.5939 12.6993 23.5274C12.7815 23.4609 12.8383 23.3682 12.8604 23.2648C13.0032 22.5903 13.1989 22.1355 13.4697 21.8118C13.7337 21.4942 14.1029 21.2622 14.6698 21.0942C14.7651 21.0659 14.8488 21.0075 14.9083 20.9278C14.9678 20.848 15 20.7512 15 20.6517C15 20.5522 14.9678 20.4554 14.9083 20.3756C14.8488 20.2959 14.7651 20.2375 14.6698 20.2092C14.1251 20.0479 13.7589 19.8295 13.4906 19.5168C13.2173 19.1993 13.0093 18.7414 12.8604 18.0385C12.8383 17.9352 12.7815 17.8425 12.6993 17.776C12.6171 17.7095 12.5147 17.6732 12.409 17.6732C12.3033 17.6732 12.2008 17.7095 12.1186 17.776C12.0364 17.8425 11.9796 17.9352 11.9575 18.0385C11.8086 18.742 11.6006 19.1993 11.3273 19.5168C11.059 19.8295 10.6934 20.0479 10.1475 20.2092C10.0522 20.2375 9.96847 20.2959 9.90896 20.3756C9.84945 20.4554 9.8173 20.5522 9.8173 20.6517C9.8173 20.7512 9.84945 20.848 9.90896 20.9278C9.96847 21.0075 10.0522 21.0659 10.1475 21.0942C10.6928 21.2554 11.059 21.4739 11.3273 21.7866C11.6006 22.1041 11.8086 22.562 11.9575 23.2648ZM6.84758 21.264C6.87192 21.3647 6.92939 21.4542 7.01076 21.5183C7.09214 21.5823 7.19268 21.6172 7.29623 21.6172C7.39979 21.6172 7.50033 21.5823 7.58171 21.5183C7.66308 21.4542 7.72055 21.3647 7.74489 21.264C8.08584 19.8535 8.4471 19.0029 8.95852 18.4096C9.46318 17.8237 10.1568 17.4397 11.2787 17.0606C11.3702 17.0297 11.4496 16.9709 11.5059 16.8924C11.5622 16.814 11.5925 16.7199 11.5925 16.6233C11.5925 16.5268 11.5622 16.4327 11.5059 16.3542C11.4496 16.2758 11.3702 16.217 11.2787 16.1861C10.1069 15.7903 9.4041 15.3725 8.90806 14.7755C8.40402 14.1687 8.06984 13.3261 7.74489 11.9832C7.72055 11.8826 7.66308 11.793 7.58171 11.729C7.50033 11.6649 7.39979 11.6301 7.29624 11.6301C7.19268 11.6301 7.09214 11.6649 7.01076 11.729C6.92939 11.793 6.87192 11.8826 6.84758 11.9832C6.50663 13.3932 6.14476 14.2437 5.63395 14.837C5.12929 15.4229 4.43569 15.807 3.31376 16.1861C3.2223 16.217 3.14284 16.2758 3.08655 16.3542C3.03027 16.4327 3 16.5268 3 16.6233C3 16.7199 3.03027 16.814 3.08655 16.8924C3.14284 16.9709 3.2223 17.0297 3.31376 17.0606C4.48739 17.4569 5.18899 17.873 5.68441 18.47C6.18784 19.0755 6.5214 19.9175 6.84758 21.264Z" fill="#101827"/>
<path fill-rule="evenodd" clip-rule="evenodd" d="M11.2964 14.8052C12.1411 13.9401 12.7097 12.8346 12.917 11.6302H15V14.6302C15 15.1825 15.4477 15.6302 16 15.6302C16.5523 15.6302 17 15.1825 17 14.6302V11.6302H19V14.6302C19 15.1825 19.4477 15.6302 20 15.6302C20.5523 15.6302 21 15.1825 21 14.6302V11.6302H22C22.5523 11.6302 23 11.1825 23 10.6302C23 10.078 22.5523 9.63024 22 9.63024H12.917C12.6675 8.14567 11.869 6.80915 10.68 5.88584C9.49103 4.96253 7.9984 4.5199 6.49828 4.64578C4.99816 4.77166 3.60017 5.45685 2.58168 6.5654C1.56319 7.67395 0.998629 9.12485 1 10.6302C1.00452 12.1321 1.57191 13.5776 2.59016 14.6816C2.67984 14.7788 2.77245 14.8728 2.8678 14.9633L4.24795 14.4526C4.49235 14.3621 4.70597 14.2108 4.87089 14.0165C4.61962 13.8586 4.3848 13.6719 4.17158 13.4587C3.42143 12.7085 3 11.6911 3 10.6302C3 9.56938 3.42143 8.55196 4.17158 7.80181C4.92172 7.05167 5.93914 6.63024 7 6.63024C8.06087 6.63024 9.07828 7.05167 9.82843 7.80181C10.5786 8.55196 11 9.56938 11 10.6302C11 11.6911 10.5786 12.7085 9.82843 13.4587C9.73278 13.5543 9.63278 13.6446 9.52889 13.7294C9.6992 14.0621 9.98896 14.3214 10.3435 14.4526L11.2964 14.8052Z" fill="#101827"/>
</svg>
