<svg width="24" height="25" viewBox="0 0 24 25" fill="none" xmlns="http://www.w3.org/2000/svg">
<path fill-rule="evenodd" clip-rule="evenodd" d="M8 10.6248V7.62476C8 6.56389 8.42143 5.54647 9.17157 4.79633C9.92172 4.04618 10.9391 3.62476 12 3.62476C13.0609 3.62476 14.0783 4.04618 14.8284 4.79633C15.5786 5.54647 16 6.56389 16 7.62476V10.6248H17C17.5304 10.6248 18.0391 10.8355 18.4142 11.2105C18.7893 11.5856 19 12.0943 19 12.6248V19.6248C19 20.1552 18.7893 20.6639 18.4142 21.039C18.0391 21.414 17.5304 21.6248 17 21.6248H7C6.46957 21.6248 5.96086 21.414 5.58579 21.039C5.21071 20.6639 5 20.1552 5 19.6248V12.6248C5 12.0943 5.21071 11.5856 5.58579 11.2105C5.96086 10.8355 6.46957 10.6248 7 10.6248H8ZM10 7.62476C10 7.09432 10.2107 6.58561 10.5858 6.21054C10.9609 5.83547 11.4696 5.62476 12 5.62476C12.5304 5.62476 13.0391 5.83547 13.4142 6.21054C13.7893 6.58561 14 7.09432 14 7.62476V10.6248H10V7.62476ZM12 13.6248C12.2652 13.6248 12.5196 13.7301 12.7071 13.9176C12.8946 14.1052 13 14.3595 13 14.6248V17.6248C13 17.89 12.8946 18.1443 12.7071 18.3319C12.5196 18.5194 12.2652 18.6248 12 18.6248C11.7348 18.6248 11.4804 18.5194 11.2929 18.3319C11.1054 18.1443 11 17.89 11 17.6248V14.6248C11 14.3595 11.1054 14.1052 11.2929 13.9176C11.4804 13.7301 11.7348 13.6248 12 13.6248Z" fill="#101827"/>
</svg>
