<svg width="24" height="25" viewBox="0 0 24 25" fill="none" xmlns="http://www.w3.org/2000/svg">
<path d="M21 7.31378C21 6.27078 21 6.22178 20.717 5.82878C20.434 5.43578 19.939 5.27078 18.949 4.94078L17.784 4.55278C16.417 4.09678 15.734 3.86878 15.045 3.96178C14.357 4.05378 13.757 4.45278 12.558 5.25178L11.176 6.17378C10.24 6.79778 9.772 7.10978 9.246 7.23378C9.05345 7.27975 8.85683 7.30655 8.659 7.31378C8.119 7.33178 7.586 7.15378 6.519 6.79778C5.121 6.33178 4.422 6.09878 3.89 6.33578C3.70147 6.41966 3.53228 6.54154 3.393 6.69378C3 7.12478 3 7.86078 3 9.33478V12.7355M21 12.411V15.9148C21 17.3888 21 18.1258 20.607 18.5548C20.4679 18.7078 20.2987 18.8303 20.11 18.9148C19.578 19.1508 18.879 18.9178 17.481 18.4518C16.414 18.0958 15.881 17.9178 15.341 17.9368C15.1429 17.9433 14.9459 17.9694 14.753 18.0148C14.228 18.1398 13.76 18.4518 12.824 19.0748L11.442 19.9968C10.242 20.7968 9.643 21.1968 8.955 21.2878C8.267 21.3808 7.583 21.1528 6.216 20.6968L5.051 20.3088C4.061 19.9788 3.566 19.8138 3.283 19.4208C3.015 19.0488 3.001 18.9508 3 18.0148M15 4.12478V7.23378M15 17.6248V12.9672M9 21.1248V18.0148M9 7.62478V12.411" stroke="#101827" stroke-width="1.5" stroke-linecap="round"/>
<path d="M0.809326 14.0606C1.5714 15.0513 4.69573 17.4326 8.46775 16.0039C12.2398 14.5751 11.2449 11.3451 14.9831 9.54563C18.1006 8.04492 21.3841 9.71721 22.6414 10.403" stroke="#101827" stroke-width="1.5" stroke-linecap="round" stroke-dasharray="2 2"/>
</svg>
