<svg width="24" height="25" viewBox="0 0 24 25" fill="none" xmlns="http://www.w3.org/2000/svg">
<path d="M6.25 3.62476C5.38805 3.62476 4.5614 3.96717 3.9519 4.57666C3.34241 5.18615 3 6.0128 3 6.87476V15.3748C3 16.2367 3.34241 17.0634 3.9519 17.6729C4.5614 18.2823 5.38805 18.6248 6.25 18.6248H14.75C15.612 18.6248 16.4386 18.2823 17.0481 17.6729C17.6576 17.0634 18 16.2367 18 15.3748V6.87476C18 6.0128 17.6576 5.18615 17.0481 4.57666C16.4386 3.96717 15.612 3.62476 14.75 3.62476H6.25ZM12.75 8.12476C12.75 8.42023 12.6918 8.71281 12.5787 8.98579C12.4657 9.25878 12.2999 9.50681 12.091 9.71575C11.8821 9.92468 11.634 10.0904 11.361 10.2035C11.0881 10.3166 10.7955 10.3748 10.5 10.3748C10.2045 10.3748 9.91194 10.3166 9.63896 10.2035C9.36598 10.0904 9.11794 9.92468 8.90901 9.71575C8.70008 9.50681 8.53434 9.25878 8.42127 8.98579C8.3082 8.71281 8.25 8.42023 8.25 8.12476C8.25 7.52802 8.48705 6.95572 8.90901 6.53377C9.33097 6.11181 9.90326 5.87476 10.5 5.87476C11.0967 5.87476 11.669 6.11181 12.091 6.53377C12.5129 6.95572 12.75 7.52802 12.75 8.12476ZM13.5 11.3748C13.8978 11.3748 14.2794 11.5328 14.5607 11.8141C14.842 12.0954 15 12.4769 15 12.8748V13.3748C15 13.8708 14.914 14.2348 14.746 14.5348C14.578 14.8378 14.316 15.0968 13.928 15.3648C13.195 15.8678 12.07 16.1248 10.5 16.1248C9.18 16.1248 8.055 15.8678 7.26 15.3648C6.841 15.0988 6.53 14.8408 6.322 14.5348C6.117 14.2348 6 13.8708 6 13.3748V12.8748C6 12.4769 6.15804 12.0954 6.43934 11.8141C6.72064 11.5328 7.10218 11.3748 7.5 11.3748H13.5Z" fill="#101827"/>
<path d="M6.05298 19.6248C6.34695 20.0848 6.75207 20.4634 7.23095 20.7255C7.70983 20.9877 8.24704 21.125 8.79298 21.1248H15.293C18.193 21.1248 20.543 18.7748 20.543 15.8748V9.37477C20.5432 8.82882 20.4059 8.29162 20.1437 7.81274C19.8816 7.33386 19.503 6.92874 19.043 6.63477V15.8748C19.043 16.8693 18.6479 17.8232 17.9446 18.5264C17.2414 19.2297 16.2875 19.6248 15.293 19.6248H6.05298Z" fill="#101827"/>
</svg>
