<svg width="24" height="25" viewBox="0 0 24 25" fill="none" xmlns="http://www.w3.org/2000/svg">
<path d="M6.36835 3.90015C6.99039 3.90015 7.49466 4.40441 7.49466 5.02646V12.0862C7.9241 12.3341 8.25974 12.7168 8.4495 13.175C8.63927 13.6331 8.67256 14.1411 8.54422 14.62C8.41587 15.099 8.13307 15.5223 7.73966 15.8241C7.34625 16.126 6.86423 16.2896 6.36835 16.2896C5.87247 16.2896 5.39044 16.126 4.99704 15.8241C4.60363 15.5223 4.32082 15.099 4.19248 14.62C4.06414 14.1411 4.09743 13.6331 4.28719 13.175C4.47696 12.7168 4.81259 12.3341 5.24204 12.0862V5.02646C5.24204 4.40441 5.7463 3.90015 6.36835 3.90015ZM18.7578 12.0862V5.02646C18.7578 4.40441 18.2535 3.90015 17.6315 3.90015C17.0094 3.90015 16.5052 4.40441 16.5052 5.02646V12.0862C16.0757 12.3341 15.7401 12.7168 15.5503 13.175C15.3606 13.6331 15.3273 14.1411 15.4556 14.62C15.5839 15.099 15.8668 15.5223 16.2602 15.8241C16.6536 16.126 17.1356 16.2896 17.6315 16.2896C18.1274 16.2896 18.6094 16.126 19.0028 15.8241C19.3962 15.5223 19.679 15.099 19.8073 14.62C19.9357 14.1411 19.9024 13.6331 19.7126 13.175C19.5229 12.7168 19.1872 12.3341 18.7578 12.0862Z" fill="#101827"/>
<path d="M7.49481 20.7948V18.5422C7.49481 17.9202 6.99054 17.4159 6.3685 17.4159C5.74645 17.4159 5.24219 17.9202 5.24219 18.5422V20.7948C5.24219 21.4169 5.74645 21.9211 6.3685 21.9211C6.99054 21.9211 7.49481 21.4169 7.49481 20.7948Z" fill="#F000B8"/>
<path d="M18.7579 18.5422V20.7948C18.7579 21.4169 18.2537 21.9211 17.6316 21.9211C17.0096 21.9211 16.5053 21.4169 16.5053 20.7948V18.5422C16.5053 17.9202 17.0096 17.4159 17.6316 17.4159C18.2537 17.4159 18.7579 17.9202 18.7579 18.5422Z" fill="#F000B8"/>
<path d="M13.1263 5.02646V6.45462C13.5557 6.70256 13.8913 7.08528 14.0811 7.54341C14.2709 8.00154 14.3042 8.50949 14.1758 8.98847C14.0475 9.46746 13.7647 9.89071 13.3713 10.1926C12.9778 10.4945 12.4958 10.6581 11.9999 10.6581C11.5041 10.6581 11.022 10.4945 10.6286 10.1926C10.2352 9.89071 9.95241 9.46746 9.82407 8.98847C9.69573 8.50949 9.72902 8.00154 9.91879 7.54341C10.1086 7.08528 10.4442 6.70256 10.8736 6.45462V5.02646C10.8736 4.40441 11.3779 3.90015 11.9999 3.90015C12.622 3.90015 13.1263 4.40441 13.1263 5.02646Z" fill="#101827"/>
<path d="M13.1264 12.9106V20.7948C13.1264 21.4168 12.6221 21.9211 12.0001 21.9211C11.378 21.9211 10.8738 21.4168 10.8738 20.7948V12.9106C10.8738 12.2886 11.378 11.7843 12.0001 11.7843C12.6221 11.7843 13.1264 12.2886 13.1264 12.9106Z" fill="#F000B8"/>
</svg>
