<svg width="24" height="25" viewBox="0 0 24 25" fill="none" xmlns="http://www.w3.org/2000/svg">
<path d="M12 4.91064C10.6868 4.91064 9.38646 5.1693 8.1732 5.67185C6.95995 6.1744 5.85756 6.91099 4.92897 7.83958C3.05361 9.71494 2.00004 12.2585 2.00004 14.9106C1.9945 16.8913 2.5832 18.8281 3.69004 20.4706C3.83856 20.6908 4.06844 20.8429 4.32912 20.8935C4.5898 20.9442 4.85991 20.8892 5.08004 20.7406C5.30017 20.5921 5.45228 20.3622 5.50292 20.1016C5.55355 19.8409 5.49856 19.5708 5.35004 19.3506C4.54455 18.1462 4.08132 16.7456 4.00979 15.2984C3.93827 13.8512 4.26113 12.4117 4.94392 11.1337C5.62671 9.85566 6.64378 8.78708 7.88654 8.04203C9.12929 7.29699 10.5511 6.90345 12 6.90345C13.449 6.90345 14.8708 7.29699 16.1135 8.04203C17.3563 8.78708 18.3734 9.85566 19.0562 11.1337C19.7389 12.4117 20.0618 13.8512 19.9903 15.2984C19.9188 16.7456 19.4555 18.1462 18.65 19.3506C18.5763 19.4596 18.5249 19.582 18.4985 19.7109C18.4722 19.8397 18.4716 19.9725 18.4967 20.1017C18.5217 20.2308 18.572 20.3537 18.6447 20.4633C18.7173 20.573 18.8109 20.6672 18.92 20.7406C19.0856 20.8519 19.2806 20.9111 19.48 20.9106C19.6438 20.9109 19.8052 20.8709 19.9499 20.7942C20.0946 20.7175 20.2183 20.6064 20.31 20.4706C21.4169 18.8281 22.0056 16.8913 22 14.9106C22 12.2585 20.9465 9.71494 19.0711 7.83958C17.1957 5.96421 14.6522 4.91064 12 4.91064Z" fill="#101827"/>
<path d="M15.2899 11.2006L12.5099 13.9806C12.3437 13.9354 12.1722 13.9119 11.9999 13.9106C11.4695 13.9106 10.9608 14.1213 10.5857 14.4964C10.2107 14.8714 9.99994 15.3802 9.99994 15.9106C10.0012 16.0829 10.0247 16.2543 10.0699 16.4206L9.28994 17.2006C9.19621 17.2935 9.12182 17.4041 9.07105 17.526C9.02028 17.6479 8.99414 17.7786 8.99414 17.9106C8.99414 18.0426 9.02028 18.1733 9.07105 18.2952C9.12182 18.417 9.19621 18.5276 9.28994 18.6206C9.3829 18.7143 9.4935 18.7887 9.61536 18.8395C9.73722 18.8902 9.86793 18.9164 9.99994 18.9164C10.132 18.9164 10.2627 18.8902 10.3845 18.8395C10.5064 18.7887 10.617 18.7143 10.7099 18.6206L11.4899 17.8406C11.6562 17.8858 11.8276 17.9093 11.9999 17.9106C12.5304 17.9106 13.0391 17.6999 13.4142 17.3248C13.7892 16.9497 13.9999 16.441 13.9999 15.9106C13.9987 15.7383 13.9751 15.5669 13.9299 15.4006L16.7099 12.6206C16.8982 12.4323 17.004 12.1769 17.004 11.9106C17.004 11.6443 16.8982 11.3889 16.7099 11.2006C16.5216 11.0123 16.2662 10.9065 15.9999 10.9065C15.7336 10.9065 15.4782 11.0123 15.2899 11.2006Z" fill="#F000B8"/>
</svg>
