<svg width="24" height="25" viewBox="0 0 24 25" fill="none" xmlns="http://www.w3.org/2000/svg">
<path d="M5.12858 16.2045L5.12872 16.204C5.15502 16.0897 5.21291 15.9852 5.29578 15.9023C5.29579 15.9023 5.29579 15.9023 5.2958 15.9023L13.6787 7.5185C13.7275 7.46968 13.8066 7.46967 13.8555 7.51849L17.3912 11.0542C17.44 11.1031 17.44 11.1822 17.3912 11.231L9.00731 19.6149L9.00719 19.615C8.9244 19.6978 8.82002 19.7557 8.70594 19.7821L4.25033 20.81L4.24942 20.8102C4.22875 20.815 4.20719 20.8145 4.18679 20.8086C4.16639 20.8028 4.14781 20.7919 4.1328 20.7769C4.1178 20.7618 4.10686 20.7433 4.10102 20.7229C4.09518 20.7025 4.09463 20.6809 4.09942 20.6602L4.09958 20.6595L5.12858 16.2045Z" stroke="#101827" stroke-width="1.75"/>
<path fill-rule="evenodd" clip-rule="evenodd" d="M19.511 4.68488C18.9484 4.12246 18.1855 3.80652 17.39 3.80652C16.5945 3.80652 15.8316 4.12246 15.269 4.68488C14.8785 5.07598 14.8787 5.70956 15.2695 6.10038L18.8055 9.63638C19.1956 10.0265 19.8282 10.0263 20.218 9.63588C20.4966 9.3573 20.7177 9.02656 20.8685 8.66255C21.0193 8.29854 21.0969 7.90839 21.0969 7.51438C21.0969 7.12037 21.0193 6.73022 20.8685 6.36621C20.7177 6.0022 20.4966 5.67146 20.218 5.39288L19.511 4.68488Z" fill="#F000B8"/>
</svg>
