<svg width="24" height="25" viewBox="0 0 24 25" fill="none" xmlns="http://www.w3.org/2000/svg">
<path d="M6.25 3.91064C5.38805 3.91064 4.5614 4.25305 3.9519 4.86255C3.34241 5.47204 3 6.29869 3 7.16064V15.6606C3 16.5226 3.34241 17.3492 3.9519 17.9587C4.5614 18.5682 5.38805 18.9106 6.25 18.9106H14.75C15.612 18.9106 16.4386 18.5682 17.0481 17.9587C17.6576 17.3492 18 16.5226 18 15.6606V7.16064C18 6.29869 17.6576 5.47204 17.0481 4.86255C16.4386 4.25305 15.612 3.91064 14.75 3.91064H6.25ZM12.75 8.41064C12.75 8.70612 12.6918 8.9987 12.5787 9.27168C12.4657 9.54467 12.2999 9.7927 12.091 10.0016C11.8821 10.2106 11.634 10.3763 11.361 10.4894C11.0881 10.6024 10.7955 10.6606 10.5 10.6606C10.2045 10.6606 9.91194 10.6024 9.63896 10.4894C9.36598 10.3763 9.11794 10.2106 8.90901 10.0016C8.70008 9.7927 8.53434 9.54467 8.42127 9.27168C8.3082 8.9987 8.25 8.70612 8.25 8.41064C8.25 7.81391 8.48705 7.24161 8.90901 6.81965C9.33097 6.3977 9.90326 6.16064 10.5 6.16064C11.0967 6.16064 11.669 6.3977 12.091 6.81965C12.5129 7.24161 12.75 7.81391 12.75 8.41064ZM13.5 11.6606C13.8978 11.6606 14.2794 11.8187 14.5607 12.1C14.842 12.3813 15 12.7628 15 13.1606V13.6606C15 14.1566 14.914 14.5206 14.746 14.8206C14.578 15.1236 14.316 15.3826 13.928 15.6506C13.195 16.1536 12.07 16.4106 10.5 16.4106C9.18 16.4106 8.055 16.1536 7.26 15.6506C6.841 15.3846 6.53 15.1266 6.322 14.8206C6.117 14.5206 6 14.1566 6 13.6606V13.1606C6 12.7628 6.15804 12.3813 6.43934 12.1C6.72064 11.8187 7.10218 11.6606 7.5 11.6606H13.5Z" fill="#101827"/>
<path d="M6.05298 19.9107C6.34695 20.3707 6.75207 20.7493 7.23095 21.0114C7.70983 21.2736 8.24704 21.4109 8.79298 21.4107H15.293C18.193 21.4107 20.543 19.0607 20.543 16.1607V9.66065C20.5432 9.11471 20.4059 8.57751 20.1437 8.09863C19.8816 7.61975 19.503 7.21462 19.043 6.92065V16.1607C19.043 17.1552 18.6479 18.109 17.9446 18.8123C17.2414 19.5156 16.2875 19.9107 15.293 19.9107H6.05298Z" fill="#F000B8"/>
</svg>
