<svg width="24" height="25" viewBox="0 0 24 25" fill="none" xmlns="http://www.w3.org/2000/svg">
<path fill-rule="evenodd" clip-rule="evenodd" d="M12 5.26112C7.93318 5.26112 4.63636 8.55793 4.63636 12.6248C4.63636 16.6916 7.93318 19.9884 12 19.9884C16.0668 19.9884 19.3636 16.6916 19.3636 12.6248C19.3636 8.55793 16.0668 5.26112 12 5.26112ZM3 12.6248C3 7.65419 7.02944 3.62476 12 3.62476C16.9706 3.62476 21 7.65419 21 12.6248C21 17.5953 16.9706 21.6248 12 21.6248C7.02944 21.6248 3 17.5953 3 12.6248Z" fill="#101827"/>
<path fill-rule="evenodd" clip-rule="evenodd" d="M12 3.62476C12.2239 3.62476 12.4381 3.71653 12.5925 3.87867C14.6495 6.03853 15.8733 8.84733 16.0645 11.8066H20.1818C20.6337 11.8066 21 12.1729 21 12.6248C21 13.0766 20.6337 13.4429 20.1818 13.4429H16.0645C15.8733 16.4022 14.6495 19.211 12.5925 21.3708C12.4381 21.533 12.2239 21.6248 12 21.6248C11.7761 21.6248 11.5619 21.533 11.4075 21.3708C9.35052 19.211 8.12671 16.4022 7.93549 13.4429H3.81818C3.36631 13.4429 3 13.0766 3 12.6248C3 12.1729 3.36631 11.8066 3.81818 11.8066H7.93549C8.12671 8.84733 9.35052 6.03853 11.4075 3.87867C11.5619 3.71653 11.7761 3.62476 12 3.62476ZM9.57578 13.4429C9.74214 15.6837 10.5884 17.8207 12 19.5673C13.4116 17.8207 14.2579 15.6837 14.4242 13.4429H9.57578ZM14.4242 11.8066H9.57578C9.74214 9.5658 10.5884 7.42883 12 5.68222C13.4116 7.42883 14.2579 9.5658 14.4242 11.8066Z" fill="#101827"/>
</svg>
