<svg width="24" height="25" viewBox="0 0 24 25" fill="none" xmlns="http://www.w3.org/2000/svg">
<path fill-rule="evenodd" clip-rule="evenodd" d="M12.9402 3.39444C10.808 3.26334 8.66945 3.7868 6.9266 4.9726C5.04981 6.16081 3.84578 7.87654 3.17943 9.97289C2.50782 11.9571 2.64455 14.1966 3.44587 16.1675C4.2506 18.1467 5.72451 19.7259 7.59254 20.776C9.47381 21.8337 11.6185 22.0944 13.7517 21.7009C15.8978 21.305 17.771 20.1187 19.107 18.5415L19.113 18.5338C20.443 16.8329 21.25 14.858 21.25 12.7417C21.25 10.1133 20.3127 7.87393 18.577 6.03501L18.5704 6.02851C17.1029 4.58473 15.0948 3.52693 12.9402 3.39444ZM7.86052 6.41004C9.23681 5.4253 10.9991 5.05004 12.6455 5.17463L12.6468 5.17473C14.405 5.29828 15.9135 6.03799 17.1778 7.2819C18.5578 8.63958 19.3173 10.6232 19.3173 12.6136V12.6227L19.318 12.6317C19.4426 14.3488 18.8215 15.9547 17.8076 17.3284C16.6734 18.6897 15.1618 19.5573 13.5207 19.9299C11.8882 20.3005 10.129 20.0535 8.62096 19.188C7.10353 18.3172 5.9664 17.0749 5.20624 15.4546C4.45573 13.8548 4.45242 12.1267 4.95807 10.5099L4.9595 10.505C5.46432 8.76672 6.47194 7.40358 7.86052 6.41004Z" fill="#101827"/>
<path fill-rule="evenodd" clip-rule="evenodd" d="M9.51438 9.05441C9.1703 8.7018 8.60515 8.69603 8.25395 9.04155C7.90478 9.38507 7.89906 9.94624 8.24114 10.2968L10.7519 12.8698L8.24114 15.4429C7.89906 15.7934 7.90478 16.3546 8.25395 16.6981C8.60515 17.0436 9.1703 17.0379 9.51438 16.6853L12.0129 14.1248L14.5114 16.6853C14.8555 17.0379 15.4206 17.0436 15.7718 16.6981C16.121 16.3546 16.1267 15.7934 15.7846 15.4429L13.2739 12.8698L15.7846 10.2968C16.1267 9.94624 16.121 9.38507 15.7718 9.04155C15.4206 8.69603 14.8555 8.7018 14.5114 9.05441L12.0129 11.6149L9.51438 9.05441Z" fill="#101827"/>
</svg>
