<svg width="24" height="25" viewBox="0 0 24 25" fill="none" xmlns="http://www.w3.org/2000/svg">
<path d="M14.3712 11.4232C14.0616 11.4232 13.7646 11.3002 13.5456 11.0812C13.3266 10.8622 13.2036 10.5652 13.2036 10.2556V4.41739C13.2036 3.77286 13.729 3.24159 14.3677 3.33149C16.1159 3.58274 17.7357 4.39347 18.9845 5.64231C20.2333 6.89115 21.0441 8.5109 21.2953 10.2591C21.3864 10.8978 20.8539 11.4232 20.2094 11.4232H14.3712Z" fill="#101827"/>
<path d="M9.70413 5.6667C10.3428 5.57796 10.8683 6.10924 10.8683 6.7526V12.5908C10.8683 12.9004 10.9913 13.1974 11.2103 13.4164C11.4292 13.6354 11.7262 13.7584 12.0359 13.7584H17.8741C18.5186 13.7584 19.051 14.2838 18.96 14.9225C18.6644 16.9674 17.6055 18.8245 15.9962 20.1203C14.3869 21.4161 12.3467 22.0544 10.2858 21.9069C8.225 21.7594 6.29645 20.837 4.88812 19.3253C3.47978 17.8135 2.69614 15.8245 2.69482 13.7584C2.69444 11.7921 3.40293 9.89155 4.69036 8.40531C5.97779 6.91907 7.75786 5.94676 9.70413 5.6667Z" fill="#101827"/>
</svg>
