<svg width="24" height="25" viewBox="0 0 24 25" fill="none" xmlns="http://www.w3.org/2000/svg">
<path d="M18.5 12.6248C18.5004 12.7946 18.4569 12.9616 18.3736 13.1095C18.2904 13.2575 18.1703 13.3814 18.025 13.4692L9.02 18.9779C8.86818 19.0709 8.69429 19.1217 8.5163 19.125C8.33831 19.1283 8.16266 19.084 8.0075 18.9967C7.85382 18.9108 7.7258 18.7855 7.6366 18.6337C7.54741 18.4818 7.50026 18.309 7.5 18.1329V7.1167C7.50026 6.94063 7.54741 6.7678 7.6366 6.61599C7.7258 6.46419 7.85382 6.33888 8.0075 6.25295C8.16266 6.16567 8.33831 6.12139 8.5163 6.12468C8.69429 6.12798 8.86818 6.17873 9.02 6.2717L18.025 11.7804C18.1703 11.8682 18.2904 11.9921 18.3736 12.1401C18.4569 12.2881 18.5004 12.4551 18.5 12.6248Z" fill="#101827"/>
</svg>
