<svg width="24" height="25" viewBox="0 0 24 25" fill="none" xmlns="http://www.w3.org/2000/svg">
<path d="M8.21045 10.3496L8.87076 9.43461C9.70255 8.28061 11.1748 8.37261 11.9109 9.62461C12.6214 10.8346 14.0301 10.9686 14.8799 9.90761L15.7894 8.77461" stroke="#101827" stroke-width="1.5" stroke-linecap="round" stroke-linejoin="round"/>
<path d="M3 8.62476C3 5.79676 3 4.38176 3.83274 3.50376C4.66453 2.62476 6.00505 2.62476 8.68421 2.62476H15.3158C17.9949 2.62476 19.3355 2.62476 20.1673 3.50376C21 4.38176 21 5.79676 21 8.62476V11.6248C21 14.4528 21 15.8678 20.1673 16.7458C19.3355 17.6248 17.9949 17.6248 15.3158 17.6248H8.68421C6.00505 17.6248 4.66453 17.6248 3.83274 16.7458C3 15.8678 3 14.4528 3 11.6248V8.62476Z" stroke="#101827" stroke-width="1.5" stroke-linecap="round" stroke-linejoin="round"/>
<path d="M7.26318 22.6248L12 19.6248L16.7369 22.6248M12 18.1248V22.6248" stroke="#101827" stroke-width="1.5" stroke-linecap="round" stroke-linejoin="round"/>
</svg>
