<svg width="24" height="25" viewBox="0 0 24 25" fill="none" xmlns="http://www.w3.org/2000/svg">
<path fill-rule="evenodd" clip-rule="evenodd" d="M9.03799 18.7412C11.3639 19.6091 13.837 19.331 15.8364 18.1912L18.7045 21.7278C19.0434 22.1457 19.6569 22.2097 20.0748 21.8708C20.4927 21.5319 20.5567 20.9184 20.2178 20.5005L17.4014 17.0276C18.2565 16.2133 18.9447 15.1974 19.3849 14.0176C20.9377 9.85596 18.8229 5.22348 14.6613 3.67066C10.4996 2.11783 5.86716 4.23269 4.31433 8.39431C2.76151 12.5559 4.87636 17.1884 9.03799 18.7412ZM17.5594 13.3364C16.3828 16.4899 12.8726 18.0924 9.71913 16.9158C6.56568 15.7391 4.96316 12.2289 6.1398 9.07545C7.31645 5.922 10.8267 4.31948 13.9801 5.49613C17.1336 6.67277 18.7361 10.183 17.5594 13.3364Z" fill="#101827"/>
<path d="M15.5972 10.7482C15.5972 8.83831 14.049 7.29004 12.1391 7.29004C11.2171 7.29004 10.3793 7.65086 9.7594 8.23899" stroke="#101827" stroke-width="2" stroke-linecap="round"/>
</svg>
