<svg width="24" height="25" viewBox="0 0 24 25" fill="none" xmlns="http://www.w3.org/2000/svg">
<path d="M6.36835 3.61426C6.99039 3.61426 7.49466 4.11852 7.49466 4.74057V11.8003C7.9241 12.0482 8.25974 12.431 8.4495 12.8891C8.63927 13.3472 8.67256 13.8552 8.54422 14.3341C8.41587 14.8131 8.13307 15.2364 7.73966 15.5383C7.34625 15.8401 6.86423 16.0037 6.36835 16.0037C5.87247 16.0037 5.39044 15.8401 4.99704 15.5383C4.60363 15.2364 4.32082 14.8131 4.19248 14.3341C4.06414 13.8552 4.09743 13.3472 4.28719 12.8891C4.47696 12.431 4.81259 12.0482 5.24204 11.8003V4.74057C5.24204 4.11853 5.7463 3.61426 6.36835 3.61426ZM18.7578 11.8003V4.74057C18.7578 4.11853 18.2535 3.61426 17.6315 3.61426C17.0094 3.61426 16.5052 4.11852 16.5052 4.74057V11.8003C16.0757 12.0482 15.7401 12.431 15.5503 12.8891C15.3606 13.3472 15.3273 13.8552 15.4556 14.3341C15.5839 14.8131 15.8668 15.2364 16.2602 15.5383C16.6536 15.8401 17.1356 16.0037 17.6315 16.0037C18.1274 16.0037 18.6094 15.8401 19.0028 15.5383C19.3962 15.2364 19.679 14.8131 19.8073 14.3341C19.9357 13.8552 19.9024 13.3472 19.7126 12.8891C19.5229 12.431 19.1872 12.0482 18.7578 11.8003Z" fill="#101827"/>
<path d="M7.49481 20.5089V18.2563C7.49481 17.6343 6.99054 17.13 6.3685 17.13C5.74645 17.13 5.24219 17.6343 5.24219 18.2563V20.5089C5.24219 21.131 5.74645 21.6353 6.3685 21.6353C6.99054 21.6353 7.49481 21.131 7.49481 20.5089Z" fill="#101827"/>
<path d="M18.7579 18.2563V20.5089C18.7579 21.131 18.2537 21.6353 17.6316 21.6353C17.0096 21.6353 16.5053 21.131 16.5053 20.5089V18.2563C16.5053 17.6343 17.0096 17.13 17.6316 17.13C18.2537 17.13 18.7579 17.6343 18.7579 18.2563Z" fill="#101827"/>
<path d="M13.1263 4.74057V6.16873C13.5557 6.41667 13.8913 6.79939 14.0811 7.25752C14.2709 7.71566 14.3042 8.2236 14.1758 8.70259C14.0475 9.18157 13.7647 9.60482 13.3713 9.90669C12.9778 10.2086 12.4958 10.3722 11.9999 10.3722C11.5041 10.3722 11.022 10.2086 10.6286 9.90669C10.2352 9.60482 9.95241 9.18157 9.82407 8.70259C9.69573 8.2236 9.72902 7.71566 9.91879 7.25752C10.1086 6.79939 10.4442 6.41667 10.8736 6.16873V4.74057C10.8736 4.11853 11.3779 3.61426 11.9999 3.61426C12.622 3.61426 13.1263 4.11853 13.1263 4.74057Z" fill="#101827"/>
<path d="M13.1264 12.6247V20.5089C13.1264 21.131 12.6221 21.6352 12.0001 21.6352C11.378 21.6352 10.8738 21.131 10.8738 20.5089V12.6247C10.8738 12.0027 11.378 11.4984 12.0001 11.4984C12.6221 11.4984 13.1264 12.0027 13.1264 12.6247Z" fill="#101827"/>
</svg>
