<svg width="24" height="25" viewBox="0 0 24 25" fill="none" xmlns="http://www.w3.org/2000/svg">
<path d="M10.8609 8.98776C11.3679 8.07876 11.6209 7.62476 11.9999 7.62476C12.3789 7.62476 12.6319 8.07876 13.1389 8.98776L13.2689 9.22276C13.4139 9.48176 13.4859 9.61076 13.5979 9.69576C13.7099 9.78076 13.8499 9.81276 14.1299 9.87576L14.3839 9.93376C15.3679 10.1558 15.8599 10.2678 15.9769 10.6438C16.0939 11.0208 15.7589 11.4128 15.0879 12.1968L14.9139 12.3998C14.7239 12.6228 14.6289 12.7338 14.5859 12.8718C14.5429 13.0098 14.5569 13.1588 14.5859 13.4558L14.6119 13.7258C14.7139 14.7728 14.7639 15.2958 14.4579 15.5288C14.1519 15.7618 13.6909 15.5488 12.7699 15.1258L12.5309 15.0158C12.2699 14.8958 12.1389 14.8348 11.9999 14.8348C11.8609 14.8348 11.7299 14.8948 11.4689 15.0148L11.2299 15.1248C10.3099 15.5498 9.84793 15.7618 9.54193 15.5288C9.23593 15.2958 9.28593 14.7728 9.38793 13.7268L9.41393 13.4558C9.44293 13.1588 9.45693 13.0098 9.41393 12.8718C9.37093 12.7338 9.27593 12.6218 9.08593 12.3998L8.91193 12.1968C8.24193 11.4128 7.90593 11.0208 8.02293 10.6438C8.13993 10.2678 8.63193 10.1558 9.61593 9.93376L9.86993 9.87576C10.1499 9.81276 10.2899 9.78076 10.4019 9.69576C10.5139 9.61076 10.5859 9.48176 10.7299 9.22276L10.8609 8.98776Z" fill="#101827"/>
<path d="M3 11.0418C3 7.84376 3 6.24476 3.378 5.70676C3.755 5.16976 5.258 4.65476 8.265 3.62576L8.838 3.42976C10.405 2.89276 11.188 2.62476 12 2.62476C12.812 2.62476 13.595 2.89276 15.162 3.42976L15.735 3.62576C18.742 4.65476 20.245 5.16976 20.622 5.70676C21 6.24476 21 7.84476 21 11.0418V12.6158C21 15.1208 20.163 17.0528 19 18.5288M3.193 14.6248C4.05 18.9228 7.576 21.1378 9.899 22.1518C10.62 22.4668 10.981 22.6248 12 22.6248C13.02 22.6248 13.38 22.4668 14.101 22.1518C14.68 21.8998 15.332 21.5718 16 21.1578" stroke="#101827" stroke-width="1.5" stroke-linecap="round"/>
</svg>
