<svg width="24" height="25" viewBox="0 0 24 25" fill="none" xmlns="http://www.w3.org/2000/svg">
<path d="M7.19494 3.46977C7.15912 3.30181 7.06673 3.15123 6.93323 3.04319C6.79972 2.93516 6.63318 2.87622 6.46144 2.87622C6.2897 2.87622 6.12317 2.93516 5.98966 3.04319C5.85615 3.15123 5.76377 3.30181 5.72794 3.46977C5.49594 4.56577 5.17794 5.30477 4.73794 5.83077C4.30894 6.34677 3.70894 6.72377 2.78794 6.99677C2.63295 7.04277 2.49698 7.13762 2.40028 7.26719C2.30358 7.39675 2.25134 7.5541 2.25134 7.71577C2.25134 7.87744 2.30358 8.03478 2.40028 8.16435C2.49698 8.29391 2.63295 8.38877 2.78794 8.43477C3.67294 8.69677 4.26794 9.05177 4.70394 9.55977C5.14794 10.0758 5.48594 10.8198 5.72794 11.9618C5.76377 12.1297 5.85615 12.2803 5.98966 12.3883C6.12317 12.4964 6.2897 12.5553 6.46144 12.5553C6.63318 12.5553 6.79972 12.4964 6.93323 12.3883C7.06673 12.2803 7.15912 12.1297 7.19494 11.9618C7.43694 10.8188 7.77494 10.0758 8.21894 9.55977C8.65494 9.05177 9.24894 8.69677 10.1359 8.43477C10.2909 8.38877 10.4269 8.29391 10.5236 8.16435C10.6203 8.03478 10.6725 7.87744 10.6725 7.71577C10.6725 7.5541 10.6203 7.39675 10.5236 7.26719C10.4269 7.13762 10.2909 7.04277 10.1359 6.99677C9.24994 6.73477 8.65494 6.37977 8.21894 5.87177C7.77494 5.35577 7.43694 4.61177 7.19494 3.46977Z" fill="#101827"/>
<path d="M15.4979 6.72074C15.4584 6.55719 15.365 6.41168 15.2328 6.30762C15.1005 6.20355 14.9372 6.14697 14.7689 6.14697C14.6006 6.14697 14.4373 6.20355 14.305 6.30762C14.1728 6.41168 14.0794 6.55719 14.0399 6.72074C13.4859 9.01274 12.8989 10.3947 12.0679 11.3587C11.2479 12.3107 10.1209 12.9347 8.2979 13.5507C8.14929 13.601 8.02018 13.6965 7.92873 13.824C7.83727 13.9514 7.78809 14.1044 7.78809 14.2612C7.78809 14.4181 7.83727 14.571 7.92873 14.6985C8.02018 14.8259 8.14929 14.9215 8.2979 14.9717C10.2019 15.6147 11.3439 16.2937 12.1499 17.2637C12.9689 18.2497 13.5119 19.6187 14.0399 21.8007C14.0794 21.9643 14.1728 22.1098 14.305 22.2139C14.4373 22.3179 14.6006 22.3745 14.7689 22.3745C14.9372 22.3745 15.1005 22.3179 15.2328 22.2139C15.365 22.1098 15.4584 21.9643 15.4979 21.8007C16.0519 19.5097 16.6399 18.1277 17.4699 17.1637C18.2899 16.2117 19.4169 15.5877 21.2399 14.9717C21.3885 14.9215 21.5176 14.8259 21.6091 14.6985C21.7005 14.571 21.7497 14.4181 21.7497 14.2612C21.7497 14.1044 21.7005 13.9514 21.6091 13.824C21.5176 13.6965 21.3885 13.601 21.2399 13.5507C19.3329 12.9067 18.1929 12.2307 17.3879 11.2607C16.5699 10.2767 16.0279 8.90874 15.4979 6.72074Z" fill="#101827"/>
</svg>
