<svg width="24" height="25" viewBox="0 0 24 25" fill="none" xmlns="http://www.w3.org/2000/svg">
<path d="M12 4.62476C10.6868 4.62476 9.38646 4.88341 8.1732 5.38596C6.95995 5.88851 5.85756 6.6251 4.92897 7.55369C3.05361 9.42905 2.00004 11.9726 2.00004 14.6248C1.9945 16.6054 2.5832 18.5422 3.69004 20.1848C3.83856 20.4049 4.06844 20.557 4.32912 20.6076C4.5898 20.6583 4.85991 20.6033 5.08004 20.4548C5.30017 20.3062 5.45228 20.0763 5.50292 19.8157C5.55355 19.555 5.49856 19.2849 5.35004 19.0648C4.54455 17.8603 4.08132 16.4597 4.00979 15.0125C3.93827 13.5653 4.26113 12.1258 4.94392 10.8478C5.62671 9.56977 6.64378 8.50119 7.88654 7.75614C9.12929 7.0111 10.5511 6.61757 12 6.61757C13.449 6.61757 14.8708 7.0111 16.1135 7.75614C17.3563 8.50119 18.3734 9.56977 19.0562 10.8478C19.7389 12.1258 20.0618 13.5653 19.9903 15.0125C19.9188 16.4597 19.4555 17.8603 18.65 19.0648C18.5763 19.1737 18.5249 19.2961 18.4985 19.425C18.4722 19.5539 18.4716 19.6867 18.4967 19.8158C18.5217 19.9449 18.572 20.0678 18.6447 20.1774C18.7173 20.2871 18.8109 20.3813 18.92 20.4548C19.0856 20.566 19.2806 20.6252 19.48 20.6248C19.6438 20.625 19.8052 20.585 19.9499 20.5083C20.0946 20.4316 20.2183 20.3205 20.31 20.1848C21.4169 18.5422 22.0056 16.6054 22 14.6248C22 11.9726 20.9465 9.42905 19.0711 7.55369C17.1957 5.67832 14.6522 4.62476 12 4.62476Z" fill="#101827"/>
<path d="M15.2899 10.9147L12.5099 13.6947C12.3437 13.6495 12.1722 13.626 11.9999 13.6247C11.4695 13.6247 10.9608 13.8354 10.5857 14.2105C10.2107 14.5856 9.99994 15.0943 9.99994 15.6247C10.0012 15.797 10.0247 15.9684 10.0699 16.1347L9.28994 16.9147C9.19621 17.0077 9.12182 17.1183 9.07105 17.2401C9.02028 17.362 8.99414 17.4927 8.99414 17.6247C8.99414 17.7567 9.02028 17.8874 9.07105 18.0093C9.12182 18.1311 9.19621 18.2417 9.28994 18.3347C9.3829 18.4284 9.4935 18.5028 9.61536 18.5536C9.73722 18.6044 9.86793 18.6305 9.99994 18.6305C10.132 18.6305 10.2627 18.6044 10.3845 18.5536C10.5064 18.5028 10.617 18.4284 10.7099 18.3347L11.4899 17.5547C11.6562 17.5999 11.8276 17.6234 11.9999 17.6247C12.5304 17.6247 13.0391 17.414 13.4142 17.0389C13.7892 16.6638 13.9999 16.1551 13.9999 15.6247C13.9987 15.4524 13.9751 15.281 13.9299 15.1147L16.7099 12.3347C16.8982 12.1464 17.004 11.891 17.004 11.6247C17.004 11.3584 16.8982 11.103 16.7099 10.9147C16.5216 10.7264 16.2662 10.6206 15.9999 10.6206C15.7336 10.6206 15.4782 10.7264 15.2899 10.9147Z" fill="#101827"/>
</svg>
