<svg width="24" height="25" viewBox="0 0 24 25" fill="none" xmlns="http://www.w3.org/2000/svg">
<g clip-path="url(#clip0_436_1359)">
<path d="M7.18745 12.6248C7.19247 14.4281 6.77575 16.2077 5.97058 17.8214C5.93215 17.9051 5.87731 17.9802 5.80931 18.0422C5.74131 18.1043 5.66153 18.1521 5.57472 18.1827C5.4879 18.2134 5.39581 18.2263 5.30392 18.2207C5.21202 18.215 5.12219 18.191 5.03975 18.15C4.95731 18.109 4.88394 18.0519 4.824 17.982C4.76406 17.9122 4.71876 17.8309 4.6908 17.7432C4.66284 17.6555 4.65279 17.5631 4.66123 17.4714C4.66967 17.3797 4.69644 17.2907 4.73995 17.2095C5.4498 15.7857 5.81706 14.2157 5.81245 12.6248C5.81084 11.697 6.01866 10.7809 6.42041 9.94462C6.82217 9.10838 7.4075 8.3736 8.13277 7.79507C8.20324 7.73864 8.28415 7.69665 8.37085 7.67149C8.45756 7.64632 8.54837 7.63849 8.63811 7.64842C8.72784 7.65836 8.81474 7.68587 8.89385 7.72939C8.97295 7.77291 9.04271 7.83158 9.09913 7.90206C9.15556 7.97254 9.19755 8.05344 9.22272 8.14015C9.24788 8.22685 9.25571 8.31767 9.24578 8.4074C9.23584 8.49714 9.20833 8.58404 9.16481 8.66314C9.12129 8.74224 9.06262 8.812 8.99214 8.86843C8.42791 9.31826 7.97256 9.88971 7.66007 10.5401C7.34758 11.1906 7.18603 11.9032 7.18745 12.6248ZM12 11.9373C11.8176 11.9373 11.6427 12.0097 11.5138 12.1386C11.3849 12.2676 11.3125 12.4424 11.3125 12.6248C11.3124 15.3033 10.6323 17.9379 9.33589 20.2818C9.24746 20.4413 9.22603 20.6295 9.27631 20.8048C9.32659 20.9802 9.44447 21.1284 9.60402 21.2168C9.76356 21.3052 9.9517 21.3267 10.127 21.2764C10.3024 21.2261 10.4506 21.1082 10.539 20.9487C11.948 18.4005 12.6872 15.5365 12.6875 12.6248C12.6875 12.4424 12.615 12.2676 12.4861 12.1386C12.3572 12.0097 12.1823 11.9373 12 11.9373ZM12 9.18726C11.0883 9.18726 10.2139 9.54942 9.56927 10.1941C8.92462 10.8387 8.56245 11.7131 8.56245 12.6248C8.56245 12.8071 8.63489 12.982 8.76382 13.1109C8.89275 13.2398 9.06762 13.3123 9.24995 13.3123C9.43229 13.3123 9.60716 13.2398 9.73609 13.1109C9.86502 12.982 9.93745 12.8071 9.93745 12.6248C9.93745 12.0777 10.1548 11.5531 10.5415 11.1663C10.9283 10.7796 11.4529 10.5623 12 10.5623C12.547 10.5623 13.0716 10.7796 13.4584 11.1663C13.8452 11.5531 14.0625 12.0777 14.0625 12.6248C14.0696 15.3584 13.4674 18.0592 12.2999 20.531C12.2613 20.6129 12.2393 20.7015 12.235 20.7919C12.2308 20.8823 12.2443 20.9727 12.275 21.0578C12.3056 21.143 12.3527 21.2213 12.4136 21.2882C12.4745 21.3551 12.548 21.4094 12.6299 21.448C12.7118 21.4865 12.8004 21.5085 12.8908 21.5128C12.9812 21.5171 13.0716 21.5035 13.1567 21.4729C13.2418 21.4422 13.3201 21.3951 13.3871 21.3342C13.454 21.2733 13.5083 21.1998 13.5468 21.118C14.8001 18.4625 15.4459 15.5611 15.4375 12.6248C15.4375 11.7131 15.0753 10.8387 14.4306 10.1941C13.786 9.54942 12.9116 9.18726 12 9.18726ZM12 3.68726C9.63035 3.68976 7.35851 4.63219 5.68295 6.30775C4.00739 7.98332 3.06495 10.2552 3.06245 12.6248C3.06366 13.4833 2.91835 14.3357 2.63276 15.1453C2.57202 15.3173 2.58208 15.5063 2.66073 15.6709C2.73938 15.8354 2.88017 15.962 3.05214 16.0227C3.22411 16.0835 3.41316 16.0734 3.57771 15.9948C3.74225 15.9161 3.86882 15.7753 3.92956 15.6034C4.26684 14.6465 4.4386 13.6393 4.43745 12.6248C4.43745 10.6191 5.23421 8.6955 6.65246 7.27726C8.0707 5.85902 9.99425 5.06226 12 5.06226C14.0057 5.06226 15.9292 5.85902 17.3475 7.27726C18.7657 8.6955 19.5625 10.6191 19.5625 12.6248C19.5629 14.1956 19.4107 15.7627 19.1078 17.3041C19.0903 17.3926 19.0905 17.4838 19.1082 17.5724C19.1259 17.6609 19.1609 17.7451 19.2112 17.8201C19.2615 17.8951 19.326 17.9595 19.4012 18.0096C19.4764 18.0596 19.5607 18.0944 19.6493 18.1119C19.6931 18.1205 19.7377 18.1248 19.7825 18.1248C19.9415 18.1246 20.0957 18.0693 20.2185 17.9682C20.3414 17.8671 20.4254 17.7265 20.4562 17.5705C20.7763 15.9414 20.9375 14.285 20.9375 12.6248C20.9347 10.2552 19.9922 7.98352 18.3167 6.308C16.6412 4.63249 14.3695 3.68999 12 3.68726ZM16.9783 17.4587C16.8909 17.4361 16.7998 17.431 16.7103 17.4436C16.6209 17.4562 16.5348 17.4863 16.457 17.5322C16.3791 17.578 16.3111 17.6388 16.2568 17.711C16.2025 17.7832 16.163 17.8654 16.1404 17.9529C16.015 18.4419 15.8697 18.9326 15.7107 19.4138C15.6526 19.5862 15.6651 19.7747 15.7457 19.9379C15.8262 20.1011 15.9682 20.2257 16.1404 20.2844C16.211 20.3083 16.285 20.3205 16.3596 20.3205C16.5036 20.3204 16.644 20.275 16.7609 20.1908C16.8778 20.1066 16.9652 19.9878 17.011 19.8512C17.1828 19.3425 17.3367 18.82 17.4707 18.3001C17.4938 18.2126 17.4993 18.1215 17.4871 18.0318C17.4748 17.9422 17.445 17.8559 17.3994 17.7778C17.3537 17.6997 17.2931 17.6314 17.221 17.5768C17.1489 17.5222 17.0667 17.4824 16.9792 17.4596L16.9783 17.4587Z" fill="#101827"/>
<path d="M9.11253 14.7019C8.93422 14.6664 8.74913 14.703 8.59774 14.8036C8.44635 14.9043 8.34099 15.0608 8.30472 15.239C8.02576 16.6119 7.5263 17.9307 6.82573 19.144C6.73456 19.3019 6.70987 19.4896 6.75709 19.6658C6.80432 19.8419 6.91958 19.9921 7.07753 20.0833C7.23548 20.1744 7.42317 20.1991 7.59933 20.1519C7.77548 20.1047 7.92566 19.9894 8.01683 19.8315C8.79099 18.4898 9.34242 17.0314 9.64964 15.5131C9.6677 15.4246 9.66814 15.3333 9.65091 15.2446C9.63369 15.1559 9.59915 15.0715 9.54926 14.9961C9.49938 14.9208 9.43513 14.856 9.36019 14.8055C9.28525 14.755 9.20109 14.7198 9.11253 14.7019ZM12 6.43726C11.7415 6.43734 11.4832 6.45342 11.2266 6.48538C11.0491 6.51203 10.889 6.60707 10.7806 6.75018C10.6722 6.89328 10.6241 7.07311 10.6466 7.25122C10.669 7.42934 10.7602 7.5916 10.9007 7.70335C11.0412 7.81509 11.2199 7.86744 11.3985 7.84921C12.0758 7.76499 12.7632 7.82559 13.4153 8.02699C14.0674 8.22839 14.6693 8.56601 15.1812 9.01748C15.693 9.46896 16.1031 10.024 16.3844 10.6459C16.6656 11.2677 16.8115 11.9423 16.8125 12.6248C16.8124 13.5153 16.7573 14.405 16.6475 15.2888C16.6355 15.3787 16.6413 15.4701 16.6647 15.5577C16.6881 15.6453 16.7286 15.7274 16.7839 15.7993C16.8392 15.8712 16.9081 15.9314 16.9868 15.9766C17.0654 16.0217 17.1523 16.0508 17.2422 16.0623C17.2707 16.0658 17.2994 16.0675 17.3282 16.0674C17.4954 16.0671 17.6567 16.0058 17.782 15.895C17.9072 15.7843 17.9879 15.6317 18.0088 15.4658C18.1246 14.525 18.182 13.5779 18.1807 12.6299C18.1802 10.9897 17.5293 9.4167 16.3706 8.25579C15.212 7.09489 13.6402 6.4409 12 6.43726Z" fill="#101827"/>
</g>
<defs>
<clipPath id="clip0_436_1359">
<rect width="22" height="22" fill="white" transform="translate(1 1.62476)"/>
</clipPath>
</defs>
</svg>
