<svg width="24" height="25" viewBox="0 0 24 25" fill="none" xmlns="http://www.w3.org/2000/svg">
<path d="M20.6409 9.99981L19.0181 7.18731C18.67 6.58459 18.0968 6.14477 17.4245 5.96457C16.7522 5.78438 16.0359 5.87854 15.4331 6.22637C15.0969 6.42064 14.8086 6.68782 14.5893 7.00824L12.9562 4.18731C12.7257 3.78864 12.3944 3.45763 11.9955 3.2275C11.5966 2.99737 11.1442 2.87622 10.6837 2.87622C10.2232 2.87622 9.77077 2.99737 9.37189 3.2275C8.97301 3.45763 8.64169 3.78864 8.41119 4.18731C7.93182 3.80985 7.33593 3.61117 6.72596 3.62542C6.11599 3.63966 5.53003 3.86595 5.06881 4.26537C4.60758 4.6648 4.2999 5.21241 4.19865 5.81409C4.0974 6.41577 4.2089 7.03393 4.514 7.56231L4.66306 7.82106C4.27518 7.85124 3.89905 7.96818 3.56243 8.16325C2.95962 8.51148 2.51982 9.08491 2.33979 9.7574C2.15976 10.4299 2.25423 11.1463 2.60243 11.7492L6.35244 18.2479C6.89195 19.1878 7.61242 20.0115 8.4722 20.6712C9.33197 21.331 10.314 21.8138 11.3615 22.0917C12.0624 22.2789 12.7848 22.3734 13.5102 22.3729C14.9572 22.3705 16.3781 21.9875 17.6303 21.2624C18.8825 20.5373 19.922 19.4956 20.6444 18.2418C21.3668 16.9881 21.7468 15.5664 21.7462 14.1194C21.7456 12.6724 21.3644 11.2511 20.6409 9.99793V9.99981ZM20.0165 15.8723C19.6707 17.1615 18.9505 18.3193 17.9468 19.1993C16.9432 20.0792 15.7011 20.6419 14.3778 20.8161C13.0544 20.9903 11.7091 20.7682 10.5119 20.1779C9.31471 19.5876 8.31941 18.6557 7.65181 17.4998L3.90181 11.0011C3.75906 10.7431 3.72327 10.4394 3.80214 10.1554C3.88101 9.87129 4.06824 9.62953 4.32354 9.4821C4.57884 9.33467 4.88182 9.29335 5.16728 9.36702C5.45274 9.4407 5.69787 9.62349 5.84994 9.87606L7.65275 12.9998C7.70054 13.0878 7.76548 13.1654 7.84373 13.2279C7.92198 13.2904 8.01196 13.3366 8.10835 13.3638C8.20475 13.3909 8.30561 13.3985 8.40499 13.3861C8.50437 13.3737 8.60025 13.3414 8.68697 13.2914C8.7737 13.2413 8.84951 13.1743 8.90994 13.0944C8.97037 13.0146 9.01419 12.9234 9.03882 12.8263C9.06345 12.7292 9.06838 12.6282 9.05333 12.5292C9.03828 12.4302 9.00355 12.3352 8.95119 12.2498L5.81244 6.81231C5.73534 6.68426 5.68454 6.54213 5.66299 6.39423C5.64144 6.24633 5.64958 6.09562 5.68693 5.95089C5.72429 5.80617 5.7901 5.67035 5.88054 5.55135C5.97097 5.43235 6.08421 5.33256 6.21364 5.25781C6.34308 5.18307 6.4861 5.13487 6.63438 5.11602C6.78265 5.09717 6.93319 5.10806 7.0772 5.14804C7.22122 5.18803 7.35582 5.25631 7.47315 5.3489C7.59049 5.44149 7.68819 5.55653 7.76056 5.68731L10.6874 10.7498C10.7352 10.8378 10.8002 10.9154 10.8784 10.9779C10.9567 11.0404 11.0466 11.0866 11.143 11.1138C11.2394 11.1409 11.3403 11.1485 11.4397 11.1361C11.5391 11.1237 11.6349 11.0914 11.7217 11.0414C11.8084 10.9913 11.8842 10.9243 11.9446 10.8444C12.0051 10.7646 12.0489 10.6734 12.0735 10.5763C12.0981 10.4792 12.1031 10.3782 12.088 10.2792C12.073 10.1802 12.0382 10.0852 11.9859 9.99981L9.70962 6.06231C9.63253 5.93426 9.58173 5.79213 9.56018 5.64423C9.53863 5.49633 9.54677 5.34562 9.58412 5.20089C9.62147 5.05617 9.68729 4.92035 9.77772 4.80135C9.86816 4.68235 9.9814 4.58256 10.1108 4.50781C10.2403 4.43307 10.3833 4.38487 10.5316 4.36602C10.6798 4.34717 10.8304 4.35806 10.9744 4.39804C11.1184 4.43803 11.253 4.50631 11.3703 4.5989C11.4877 4.69149 11.5854 4.80653 11.6577 4.93731L14.7909 10.3654C14.0611 11.1065 13.6105 12.0775 13.5159 13.1132C13.4212 14.149 13.6882 15.1856 14.2715 16.0467C14.3834 16.2113 14.5561 16.3247 14.7516 16.362C14.9471 16.3992 15.1494 16.3573 15.314 16.2454C15.4786 16.1335 15.592 15.9609 15.6293 15.7653C15.6666 15.5698 15.6246 15.3675 15.5127 15.2029C15.082 14.565 14.9129 13.786 15.0405 13.0269C15.1681 12.2679 15.5825 11.5869 16.1981 11.1248C16.3448 11.0148 16.4461 10.8549 16.4829 10.6752C16.5197 10.4955 16.4894 10.3086 16.3977 10.1498L15.7715 9.06231C15.6919 8.93424 15.6388 8.79147 15.6154 8.64248C15.592 8.49349 15.5989 8.34132 15.6355 8.19502C15.6721 8.04873 15.7378 7.91128 15.8286 7.79087C15.9194 7.67045 16.0334 7.56952 16.164 7.49408C16.2946 7.41863 16.439 7.37021 16.5887 7.35169C16.7384 7.33318 16.8902 7.34494 17.0353 7.38629C17.1803 7.42764 17.3155 7.49773 17.4329 7.59239C17.5503 7.68705 17.6475 7.80434 17.7187 7.93731L19.3415 10.7498C19.7868 11.5164 20.0757 12.3636 20.1915 13.2426C20.3074 14.1215 20.2479 15.0146 20.0165 15.8704V15.8723Z" fill="#101827"/>
<path d="M17.2735 3.59752C17.324 3.40546 17.4486 3.24126 17.6199 3.1409C17.7913 3.04055 17.9954 3.01225 18.1876 3.06221C18.9039 3.25099 19.5756 3.58026 20.1635 4.0309C20.7514 4.48154 21.2439 5.04456 21.6123 5.68721L21.6432 5.74065C21.6956 5.82602 21.7303 5.92102 21.7454 6.02004C21.7604 6.11905 21.7555 6.22008 21.7309 6.31716C21.7062 6.41424 21.6624 6.5054 21.602 6.58527C21.5416 6.66514 21.4657 6.7321 21.379 6.78219C21.2923 6.83228 21.1964 6.8645 21.097 6.87694C20.9977 6.88938 20.8968 6.88179 20.8004 6.85461C20.704 6.82744 20.614 6.78123 20.5358 6.71872C20.4575 6.65621 20.3926 6.57866 20.3448 6.49065L20.3139 6.43721C20.0435 5.96623 19.6821 5.55376 19.2507 5.22381C18.8194 4.89386 18.3267 4.65303 17.8014 4.51533C17.6099 4.4633 17.4468 4.33749 17.3478 4.16546C17.2489 3.99343 17.2222 3.78921 17.2735 3.59752ZM7.58354 22.8435C7.46041 22.9995 7.28036 23.1003 7.08295 23.1237C6.88553 23.1471 6.68691 23.0911 6.53073 22.9681C5.40903 22.082 4.46712 20.9896 3.75573 19.7497C3.70649 19.6644 3.67453 19.5702 3.66168 19.4725C3.64883 19.3749 3.65535 19.2756 3.68086 19.1805C3.70636 19.0853 3.75036 18.9961 3.81034 18.918C3.87032 18.8398 3.9451 18.7743 4.03042 18.725C4.11574 18.6758 4.20992 18.6438 4.30759 18.631C4.40526 18.6181 4.5045 18.6246 4.59965 18.6501C4.6948 18.6757 4.784 18.7197 4.86215 18.7796C4.94029 18.8396 5.00586 18.9144 5.05511 18.9997C5.67168 20.073 6.48754 21.0187 7.45886 21.786C7.53681 21.847 7.60191 21.9228 7.65041 22.0091C7.69891 22.0954 7.72985 22.1904 7.74144 22.2887C7.75303 22.387 7.74504 22.4867 7.71794 22.5819C7.69085 22.6771 7.64517 22.766 7.58354 22.8435Z" fill="#101827"/>
</svg>
