<svg width="24" height="25" viewBox="0 0 24 25" fill="none" xmlns="http://www.w3.org/2000/svg">
<path d="M12 12.6248V10.1248L19.5 2.62476L22 5.12476L14.5 12.6248H12Z" fill="#101827" stroke="#101827" stroke-width="1.5" stroke-linecap="round" stroke-linejoin="round"/>
<path d="M8 12.6248H4.5C3.83696 12.6248 3.20107 12.8881 2.73223 13.357C2.26339 13.8258 2 14.4617 2 15.1248C2 15.7878 2.26339 16.4237 2.73223 16.8925C3.20107 17.3614 3.83696 17.6248 4.5 17.6248H19.5C20.163 17.6248 20.7989 17.8881 21.2678 18.357C21.7366 18.8258 22 19.4617 22 20.1248C22 20.7878 21.7366 21.4237 21.2678 21.8925C20.7989 22.3614 20.163 22.6248 19.5 22.6248H9" stroke="#101827" stroke-width="1.5" stroke-linecap="round" stroke-linejoin="round"/>
</svg>
