<?xml version="1.0" encoding="UTF-8" standalone="no"?>
<svg
   id="Layer_2"
   data-name="Layer 2"
   viewBox="0 0 367.97186 299.09276"
   version="1.1"
   width="367.97186"
   height="299.09274"
   xmlns="http://www.w3.org/2000/svg"
   xmlns:svg="http://www.w3.org/2000/svg">
  <defs
     id="defs1">
    <style
       id="style1">
      .cls-1 {
        font-family: IBMPlexSans-Bold, 'IBM Plex Sans';
        font-size: 80px;
        font-weight: 700;
      }

      .cls-1, .cls-2 {
        fill: #231f20;
      }

      .cls-3 {
        letter-spacing: 0em;
      }

      .cls-4 {
        letter-spacing: 0em;
      }

      .cls-5 {
        letter-spacing: 0em;
      }

      .cls-6 {
        letter-spacing: 0em;
      }

      .cls-2 {
        stroke-width: 0px;
      }
    </style>
  </defs>
  <g
     id="Layer_1-2"
     data-name="Layer 1"
     transform="translate(5.9258416,5.7404759)"
     style="stroke:none;stroke-width:1;stroke-dasharray:none;stroke-opacity:1">
    <g
       id="g9"
       style="stroke:none;stroke-width:1;stroke-dasharray:none;stroke-opacity:1">
      <path
         id="path21"
         style="display:inline;fill:none;fill-opacity:1;stroke:#ffffff;stroke-width:10;stroke-dasharray:none;stroke-opacity:1"
         d="m 112.61419,-0.60280371 c -18.711344,-0.0275 -37.409954,4.66551001 -53.860424,13.58945071 -20.02645,10.78748 -36.66602,27.73453 -47.07718,47.96004 -8.4004681,16.19736 -12.7311281,34.458376 -12.59950806,52.699343 0,58.22369 0,116.44739 0,174.67109 37.17252806,0 74.34504806,0 111.51758206,0 2.7414,0.0684 5.60977,0.01 8.4,0.0293 42.19153,0 84.38307,0 126.57461,0 0.83716,-0.12815 1.87608,-0.0681 2.79607,-0.13525 19.37967,-0.7876 38.52022,-6.68453 54.97375,-16.95653 19.30186,-11.96698 34.87976,-29.84164 44.0393,-50.62703 6.58275,-14.81341 9.85139,-31.05876 9.65963,-47.26127 0,-57.9897 0,-115.97943 0,-173.96914071 -38.51693,0 -77.03386,0 -115.55078,0 -1.00611,0.10952 -2.21573,0.0155 -3.3,0.0469 -41.18646,0 -82.37292,0 -123.55938,0 -0.53647,-0.13505 -1.37659,-0.0126 -2.01367,-0.0469 z" />
      <g
         id="g8"
         style="fill:#a13df7;fill-opacity:1;stroke:none;stroke-width:1;stroke-dasharray:none;stroke-opacity:1"
         transform="translate(-1.8999186,1.3313068)">
        <rect
           style="fill:#fffff7;fill-opacity:1;stroke:none;stroke-width:1;stroke-dasharray:none;stroke-opacity:1"
           id="rect9"
           width="130.97404"
           height="284.90073"
           x="114.49739"
           y="0.048444089" />
        <path
           class="cls-2"
           d="M 235.6,0.32 H 124.05 v 111.55 c 61.61,0 111.55,-49.94 111.55,-111.55 z"
           id="path5"
           style="display:inline;fill:#a13df7;fill-opacity:1;stroke:none;stroke-width:1;stroke-dasharray:none;stroke-opacity:1" />
        <path
           class="cls-2"
           d="M 114.53,0 V 0 284.92 H 2.98 V 111.55 C 2.98,49.98 52.97,0 114.53,0 Z"
           id="path6"
           style="fill:#a13df7;fill-opacity:1;stroke:none;stroke-width:1;stroke-dasharray:none;stroke-opacity:1" />
        <path
           class="cls-2"
           d="M 124.31,284.6 H 235.86 V 173.05 c -61.61,0 -111.55,49.94 -111.55,111.55 z"
           id="path7"
           style="fill:#a13df7;fill-opacity:1;stroke:none;stroke-width:1;stroke-dasharray:none;stroke-opacity:1" />
        <path
           class="cls-2"
           d="M 356.93,0 V 0 284.92 H 245.38 V 111.55 C 245.38,49.98 295.37,0 356.93,0 Z"
           transform="rotate(180,301.16,142.46)"
           id="path8"
           style="display:inline;fill:#a13df7;fill-opacity:1;stroke:none;stroke-width:1;stroke-dasharray:none;stroke-opacity:1" />
      </g>
    </g>
  </g>
</svg>
