<svg class="" width="182" height="182" role="img" aria-label="CircleCI" viewBox="0 0 182 182" xmlns="http://www.w3.org/2000/svg">
    <!-- CircleCI logo (top portion) -->
    <g transform="translate(47, 47) scale(4.5)">
        <path d="m8.87876 12.6691c0-1.5781 1.30334-2.87304 2.89174-2.87304s2.8917 1.29494 2.8917 2.87304c0 1.5782-1.3033 2.8731-2.8917 2.8731-1.6292 0-2.89174-1.2544-2.89174-2.8731zm2.89174-12.018362c-5.66126 0-10.42647 3.844272-11.7705 9.064382v.1214c0 .32368.24437.56648.570196.56648h4.887394c.24437 0 .44801-.1214.52947-.3237 1.0182-2.18515 3.21753-3.68239 5.78344-3.68239 3.5026 0 6.3536 2.83262 6.3536 6.31269 0 3.4801-2.851 6.3127-6.3536 6.3127-2.56591 0-4.76524-1.4972-5.78344-3.6824-.08146-.2023-.2851-.3237-.52947-.3237h-4.887394c-.325826-.0405-.570196.2023-.570196.526v.1214c1.34403 5.2201 6.10924 9.0644 11.7705 9.0644 6.6794 0 12.0963-5.382 12.0963-12.0184 0-6.67688-5.4169-12.058862-12.0963-12.058862z" fill="currentColor"/>
    </g>
</svg>
