<svg xmlns="http://www.w3.org/2000/svg" width="100%" height="100%" viewBox="0 0 32 32" fill="none" preserveAspectRatio="xMidYMid meet" aria-hidden="true" role="img">
<path d="M17.6698 31.9997C13.2968 31.9997 9.20309 30.4852 6.14258 27.7353C3.07163 24.9761 1.24607 21.1596 1.00182 16.9889C0.967537 16.4027 1.42161 15.8999 2.01605 15.8661C2.61315 15.8307 3.12033 16.2801 3.15462 16.8663C3.36591 20.4789 4.94281 23.7808 7.59471 26.1636C10.2572 28.5558 13.8352 29.8732 17.6696 29.8732C22.0478 29.8732 25.8628 28.14 28.3321 25.0739C28.4126 24.9739 28.387 24.8262 28.2787 24.7563L23.2742 21.5207C23.1388 21.4332 22.9595 21.4408 22.8369 21.5448C21.2565 22.8851 18.7499 23.8342 16.7263 23.8342C10.0356 23.8342 4.86497 18.8328 4.69885 12.2005C4.62543 9.2598 5.7275 6.38962 7.80217 4.11826C9.86919 1.85502 12.6807 0.430011 15.7187 0.105282C22.0429 -0.565506 27.8652 2.00418 30.9165 6.81084L31.1881 7.23874C31.3488 7.49179 31.2746 7.82493 31.0212 7.98846L24.1408 12.4377C24.1408 12.4377 23.651 12.7697 23.5368 12.8529C23.11 13.1637 22.5172 13.122 22.1395 12.7545C21.9363 12.557 21.3583 12.0009 21.1271 11.8029C20.2818 11.0792 19.2857 10.6258 18.2464 10.4914C17.8083 10.4352 17.3657 10.4342 16.9319 10.4889C14.4311 10.8013 12.3653 12.8063 12.0135 15.2593C11.9331 15.8194 11.4147 16.2408 10.8437 16.1878C10.2284 16.1308 9.79135 15.5807 9.87522 14.9833C10.3518 11.5885 13.2053 8.81116 16.6603 8.3795C17.276 8.3023 17.904 8.30332 18.5253 8.38283C19.9869 8.57175 21.3751 9.19901 22.541 10.1973C22.6112 10.2575 22.6995 10.3369 22.7954 10.4251C22.9193 10.539 23.1065 10.5552 23.2483 10.4638L28.2871 7.21175C28.3954 7.14181 28.4213 6.99439 28.3409 6.89427C25.5852 3.46256 20.9595 1.68859 15.9506 2.21951C13.4414 2.48779 11.1163 3.66744 9.40481 5.54138C7.70064 7.40719 6.79515 9.75343 6.85503 12.1481C6.99379 17.6874 11.1453 21.7076 16.7266 21.7076C18.3137 21.7076 20.46 20.8568 21.6127 19.7704L21.6795 19.7124C21.7672 19.6426 22.0451 19.3956 22.2143 19.2426C22.581 18.9111 23.13 18.8702 23.5432 19.1433C23.5432 19.1433 24.1172 19.5229 24.1663 19.5548L31.0126 23.9809C31.2721 24.1488 31.3467 24.4912 31.1799 24.7492L30.9085 25.1688C28.1426 29.4463 23.1939 32 17.6699 32L17.6698 31.9997Z" fill="url(#paint0_linear_2627_28418)" style=""></path>
<defs>
<linearGradient id="paint0_linear_2627_28418" x1="22.5556" y1="35.0166" x2="13.2998" y2="2.28374" gradientUnits="userSpaceOnUse">
<stop offset="0.177" stop-color="#F413F7" style="stop-color:#F413F7;stop-color:color(display-p3 0.9569 0.0745 0.9686);stop-opacity:1;"></stop>
<stop offset="0.528" stop-color="#722EF2" style="stop-color:#722EF2;stop-color:color(display-p3 0.4471 0.1804 0.9490);stop-opacity:1;"></stop>
<stop offset="0.849" stop-color="#0047EE" style="stop-color:#0047EE;stop-color:color(display-p3 0.0000 0.2784 0.9333);stop-opacity:1;"></stop>
</linearGradient>
</defs>
</svg>