<svg xmlns="http://www.w3.org/2000/svg" xmlns:xlink="http://www.w3.org/1999/xlink" viewBox="0 0 82 81" fill="#fff" fill-rule="evenodd" stroke="#000" stroke-linecap="round" stroke-linejoin="round"><use xlink:href="#A" x=".5" y=".5"/><symbol id="A" overflow="visible"><g stroke="none"><path d="M0 40C0 17.84 17.84 0 40 0s40 17.84 40 40-17.84 40-40 40S0 62.16 0 40z" fill="#0072c6"/><path d="M11.716 68.285c-15.621-15.621-15.621-40.947 0-56.568s40.947-15.621 56.568 0L11.716 68.285z" opacity=".2"/><path d="M76.801 39.994c0-8.243-2.797-16.192-7.949-22.669h0l-.294-.294c-.147-.147-.147-.294-.294-.442l-2.355-2.502h0C58.99 7.021 49.863 3.194 40.001 3.194h-.147 0-.147c-9.715.147-18.694 3.827-25.613 10.746h0l-2.502 2.65c-.147.147-.147.295-.294.442l-.294.147h0c-5.005 6.476-7.802 14.573-7.802 22.816s2.797 16.192 7.949 22.669h0l.294.294c.147.147.147.294.294.442l2.355 2.502h0c6.918 6.918 15.898 10.746 25.613 10.746h.147 0 .147c9.715 0 18.989-3.827 25.907-10.746h0l2.355-2.65c.147-.147.147-.294.294-.442l.294-.294h0c5.152-6.182 7.949-14.279 7.949-22.522zM61.934 16c-.147 0-.294.147-.442.147-.294.147-.589.294-.736.294-.589.294-1.325.442-2.061.736-.147 0-.294.147-.442.147-.883.294-1.619.442-2.502.736h0c-.147 0-.442.147-.589.147-1.325-3.533-2.944-6.624-4.858-8.979 4.269 1.325 8.243 3.68 11.629 6.771zM39.706 7.463h.147c3.974 0 8.096 4.269 11.04 11.629-3.386.589-7.066.883-10.893.883s-7.654-.294-11.187-.883c2.797-7.213 6.918-11.482 10.893-11.629zM29.255 9.376c-1.766 2.355-3.386 5.299-4.71 8.832h-.294 0c-.883-.294-1.766-.442-2.502-.736-.147 0-.294-.147-.442-.147-.589-.294-1.325-.589-1.914-.883-.294-.147-.442-.147-.736-.294-.147-.147-.294-.147-.589-.294 3.386-2.797 7.066-5.152 11.187-6.477zM18.068 63.988c.147 0 .294-.147.442-.147.294-.147.442-.147.736-.294.589-.294 1.325-.442 2.061-.736.147 0 .294-.147.442-.147.883-.294 1.619-.442 2.502-.736h0 .294c1.325 3.386 2.944 6.477 4.71 8.832-4.122-1.472-7.949-3.827-11.187-6.771zm21.786 8.538h-.147c-3.974-.147-8.096-4.269-10.893-11.482 3.533-.589 7.36-.883 11.187-.883s7.36.294 10.893.883c-2.797 7.213-7.066 11.482-11.04 11.482zm10.451-1.766c1.914-2.355 3.533-5.446 4.858-8.979.147 0 .442.147.589.147h0c.883.294 1.766.442 2.502.736.147 0 .294.147.442.147.736.294 1.325.442 2.061.736.294.147.442.147.736.294.147 0 .294.147.589.294-3.533 2.944-7.507 5.299-11.776 6.624zm14.867-10.157h0c-.442 0-.736-.147-1.178-.294s-1.03-.442-1.472-.589c-.147 0-.294-.147-.442-.147-1.766-.736-3.68-1.177-5.594-1.766.442-1.766.883-3.533 1.178-5.299h-4.416c-.294 1.619-.589 3.091-1.03 4.416-3.827-.736-7.949-1.03-12.218-1.03-4.416 0-8.537.442-12.512 1.178-.442-1.472-.736-2.944-1.03-4.563h-4.416c.294 1.914.736 3.68 1.178 5.447-1.766.442-3.533 1.03-5.152 1.619-.147.147-.442.147-.589.295-.442.147-1.03.442-1.472.589-.294 0-.736.147-1.03.295h0c-4.416-5.299-6.918-11.923-7.36-18.695h3.68v-4.269h-3.68c.442-6.771 2.944-13.248 7.213-18.4l.147-.147c.294.147.736.295 1.03.442.589.294 1.03.441 1.619.736.147 0 .294.147.442.147 1.619.589 3.386 1.178 5.299 1.619-.442 1.619-.736 3.238-1.03 4.858h4.416l.883-3.974c3.974.736 8.243 1.178 12.512 1.178s8.39-.442 12.218-1.03c.294 1.178.589 2.502.883 3.974h4.416c-.294-1.619-.589-3.238-1.03-4.858 1.914-.442 3.68-1.03 5.446-1.766.147 0 .442-.147.589-.147.589-.147 1.03-.442 1.619-.589.294-.147.736-.294 1.03-.442h0c4.269 5.299 6.918 11.776 7.36 18.547h-4.416v4.269h4.416c-.736 6.624-3.238 13.248-7.507 18.4z" opacity=".8"/><path d="M30.756 39.768c0 1.744-.229 3.237-.683 4.475s-1.11 2.251-1.962 3.034-1.888 1.36-3.109 1.726-2.672.55-4.357.55h-4.541c-.322 0-.597-.096-.816-.285s-.33-.502-.33-.933V31.76c0-.432.11-.742.33-.933s.493-.287.816-.287h4.878c1.694 0 3.133.198 4.314.597s2.174.984 2.984 1.763 1.422 1.741 1.845 2.886.63 2.474.63 3.981zm-3.997.133c0-.902-.106-1.739-.317-2.514a5.36 5.36 0 0 0-1.014-2.013c-.466-.568-1.062-1.011-1.794-1.33s-1.686-.478-2.874-.478h-1.955v12.931h2.014c1.058 0 1.949-.136 2.675-.411s1.33-.688 1.814-1.241.848-1.242 1.088-2.066.362-1.781.362-2.879zm22.85 8.304a1.45 1.45 0 0 1-.117.602 1.33 1.33 0 0 1-.318.442 1.19 1.19 0 0 1-.469.256 1.92 1.92 0 0 1-.552.082h-1.645a3.44 3.44 0 0 1-.891-.102c-.253-.068-.48-.194-.69-.374s-.414-.427-.61-.734-.416-.709-.659-1.199l-4.733-8.891-.837-1.712-.765-1.785h-.029l.088 2.107.029 2.166v9.949c0 .099-.027.187-.082.266s-.147.144-.28.198a2.13 2.13 0 0 1-.536.123c-.226.031-.515.045-.867.045-.342 0-.627-.014-.853-.045s-.402-.071-.528-.123a.56.56 0 0 1-.266-.198.5.5 0 0 1-.074-.266V31.92c0-.461.134-.805.403-1.037a1.48 1.48 0 0 1 .992-.346h2.07c.373 0 .686.032.941.096a1.91 1.91 0 0 1 .683.317 2.44 2.44 0 0 1 .566.61 7.87 7.87 0 0 1 .542.963l3.704 6.95.638 1.242.61 1.221.573 1.197.542 1.176h.014l-.066-2.145-.021-2.13v-8.92c0-.098.029-.186.086-.266s.157-.147.294-.205a1.9 1.9 0 0 1 .542-.125 7.92 7.92 0 0 1 .867-.037l.837.037c.226.026.398.066.523.125s.208.126.258.205a.5.5 0 0 1 .072.266v17.091h.008 0zm15.415-4.352c0 1.002-.187 1.877-.558 2.63s-.877 1.386-1.514 1.888-1.382.883-2.235 1.139a9.5 9.5 0 0 1-2.733.381 9.8 9.8 0 0 1-1.829-.162c-.563-.107-1.061-.237-1.491-.389s-.792-.31-1.08-.478-.499-.314-.626-.442-.216-.31-.272-.55-.082-.586-.082-1.037l.03-.763a2.09 2.09 0 0 1 .096-.501c.046-.128.102-.218.176-.272a.43.43 0 0 1 .258-.082c.138 0 .331.082.579.243s.571.341.963.536.859.374 1.403.536 1.173.243 1.888.243c.469 0 .891-.056 1.262-.17a2.83 2.83 0 0 0 .947-.478c.259-.205.456-.459.595-.763a2.43 2.43 0 0 0 .206-1.014 1.77 1.77 0 0 0-.354-1.109c-.236-.309-.542-.584-.92-.824a9.38 9.38 0 0 0-1.285-.675l-1.483-.67c-.51-.235-1.003-.502-1.483-.8s-.91-.656-1.285-1.074-.683-.91-.92-1.478-.354-1.248-.354-2.043c0-.91.17-1.712.507-2.403a4.95 4.95 0 0 1 1.366-1.72c.572-.458 1.25-.797 2.029-1.021a8.92 8.92 0 0 1 2.475-.338 9.04 9.04 0 0 1 1.352.102 9.12 9.12 0 0 1 1.262.28c.39.119.741.25 1.043.397s.506.269.602.368a1.07 1.07 0 0 1 .198.25c.035.069.064.16.088.272s.042.254.05.427l.016.64-.024.72a2.88 2.88 0 0 1-.072.485c-.035.127-.083.221-.147.28s-.15.088-.258.088-.28-.067-.515-.205a11.87 11.87 0 0 0-.867-.45 8.47 8.47 0 0 0-1.189-.442c-.451-.133-.946-.198-1.483-.198-.421 0-.789.051-1.101.155s-.578.245-.786.427a1.68 1.68 0 0 0-.47.653 2.16 2.16 0 0 0-.154.808c0 .421.115.786.344 1.096s.539.582.926.822a9.82 9.82 0 0 0 1.317.675l1.499.67c.509.235 1.008.502 1.499.8s.925.656 1.309 1.073a4.96 4.96 0 0 1 .925 1.471c.237.568.355 1.23.355 1.994z"/></g></symbol></svg>