<svg width="56" height="56" viewBox="0 0 56 56" fill="none" xmlns="http://www.w3.org/2000/svg">
<g filter="url(#filter0_b_696_34402)">
<rect x="0.294737" y="0.294737" width="55.4105" height="55.4105" rx="5.6" stroke="#667eea" stroke-width="0.589474"/>
</g>
<path d="M38.5265 28.1253C38.5265 28.1253 47.2302 30.3728 43.0203 36.5225C42.8783 32.1229 40.5843 30.9407 35.6407 29.3088C32.4472 28.2447 29.9409 26.967 30.1532 24.0574C30.319 21.3852 33.4409 19.208 36.9649 19.4455C37.7211 19.4933 39.2828 19.6352 40.6069 20.0837C40.9611 20.2256 41.7665 20.5799 42.333 21.0297V24.7433C42.0969 24.0574 41.4573 22.3777 40.5591 21.1955C39.377 19.8236 36.6571 19.7997 36.6571 19.7997C34.2675 19.7294 32.2813 20.7219 31.9496 22.1415C31.8077 22.5196 30.79 25.7835 38.5252 28.1253H38.5265ZM33.559 36.3089C32.8731 36.0966 32.2349 35.8126 31.6909 35.4571V31.6014C31.6909 31.6014 32.2588 33.8716 33.559 35.2912V36.3089Z" fill="#667eea"/>
<path d="M12.3295 19.7812H19.8271C25.4168 19.7812 28.4737 23.4087 28.4737 27.7844C28.4737 33.0942 24.569 36.3687 19.7408 36.3687H12.3281V19.7812H12.3295ZM16.3549 33.2494H19.2115C22.4568 33.2494 24.2108 31.4211 24.2108 27.8945C24.2108 24.8257 22.6054 22.9217 19.2645 22.8806H16.3562V33.2494H16.3549Z" fill="#667eea"/>
<defs>
<filter id="filter0_b_696_34402" x="-11.7895" y="-11.7895" width="79.5789" height="79.5789" filterUnits="userSpaceOnUse" color-interpolation-filters="sRGB">
<feFlood flood-opacity="0" result="BackgroundImageFix"/>
<feGaussianBlur in="BackgroundImageFix" stdDeviation="5.89474"/>
<feComposite in2="SourceAlpha" operator="in" result="effect1_backgroundBlur_696_34402"/>
<feBlend mode="normal" in="SourceGraphic" in2="effect1_backgroundBlur_696_34402" result="shape"/>
</filter>
</defs>
</svg>
