<svg xmlns="http://www.w3.org/2000/svg" xmlns:xlink="http://www.w3.org/1999/xlink" viewBox="0 0 85 85" fill="#fff" fill-rule="evenodd" stroke="#000" stroke-linecap="round" stroke-linejoin="round"><use xlink:href="#A" x="2.5" y="2.5"/><symbol id="A" overflow="visible"><g stroke="none"><path d="M0 41.579C0 20.293 17.84 3.157 40 3.157s40 17.136 40 38.422S62.16 80 40 80 0 62.864 0 41.579z" fill="#9d5025"/><path d="M0 38.422C0 17.136 17.84 0 40 0s40 17.136 40 38.422-17.84 38.422-40 38.422S0 59.707 0 38.422z" fill="#f58536"/><path d="M24.45 51.313h25.514v3.548H24.45zm0-7.336h25.514v3.548H24.45zm0-14.659h25.514v3.548H24.45zM6.27 36.402h58.285v4.053H6.27zm18.18-14.407h25.514v3.548H24.45zm31.39 12.728h-3.681V18.624H22.242V34.66h-3.681V15.076H55.84v19.646zm0 27.045H18.561V42.273h3.681V58.22H52.16V42.513h3.681v19.255z"/><path d="M62.688 29.785l11.042 8.636-11.042 9.003V29.785z"/></g></symbol></svg>