<svg width="100%" height="100%" viewBox="0 0 105 26" fill="none" xmlns="http://www.w3.org/2000/svg"><path d="M33.965 7.001h-2.88v16.7h13.333V21.17H33.965V7zM70.827 8.517c-2.246 0-3.715 1.178-4.434 3.192-.577-2.07-2.073-3.192-4.378-3.192-2.015 0-3.397.949-4.174 2.616v-2.27h-3.11v8.28c0 2.79-1.728 4.372-3.802 4.372-2.13 0-3.338-.949-3.338-3.596V8.863h-2.794v9.575c0 3.537 1.727 5.435 5.155 5.435 2.561 0 4.06-1.209 4.778-3.307V23.7h3.111v-8.713c0-2.876 1.526-4.141 3.277-4.141 1.584 0 2.73.69 2.73 3.421V23.7h2.793v-8.713c0-2.876 1.554-4.141 3.31-4.141 1.585 0 2.679.69 2.679 3.421V23.7h2.794v-9.893c.01-3.45-1.602-5.29-4.597-5.29zM84.043 8.517c-4.369 0-7.198 3.02-7.198 7.706 0 4.774 2.936 7.621 7.198 7.65 4.369 0 7.2-2.99 7.2-7.65 0-4.83-2.968-7.677-7.2-7.706zm0 12.998c-2.793.027-4.29-1.927-4.32-5.292-.027-3.48 1.586-5.319 4.32-5.348 2.85-.03 4.349 1.956 4.349 5.348 0 3.45-1.591 5.263-4.35 5.292zM99.103 14.929c-2.73-.633-3.399-1.064-3.399-2.271 0-1.207.865-1.956 2.707-1.956 1.786 0 2.967.776 3.14 3.249l2.849-.364c-.23-3.423-2.649-5.061-5.816-5.061-3.513 0-5.643 1.725-5.643 4.197 0 2.502 1.238 3.818 5.126 4.66 2.792.574 3.57 1.063 3.57 2.414 0 1.294-.98 1.842-2.766 1.842-1.785 0-3.458-.662-3.598-3.05l-2.966.375c.232 3.273 2.822 4.889 6.42 4.889 3.485 0 5.702-1.582 5.702-4.343 0-2.54-1.036-3.632-5.326-4.581z" fill="#000"/><path d="M25.35 7.243a7.236 7.236 0 0 1-4.477 6.693 7.26 7.26 0 0 1-7.904-1.571A7.24 7.24 0 0 1 18.099 0c1.923 0 3.768.763 5.128 2.121a7.238 7.238 0 0 1 2.124 5.122zM5.73 20.419V5.546H0V26h20.273v-5.581H5.73z" fill="url(#a)"/><defs><linearGradient id="a" x1="22" y1="1.5" x2="0" y2="26" gradientUnits="userSpaceOnUse"><stop stop-color="#FF7D11"/><stop offset=".979" stop-color="#F00D79"/></linearGradient></defs></svg>