<svg width="108" height="19" viewBox="0 0 108 19" fill="none" xmlns="http://www.w3.org/2000/svg">
<title>Webflow</title>
<path fill-rule="evenodd" clip-rule="evenodd" d="M28.8562 0.5L19.6486 18.5H11L14.8534 11.04H14.6805C11.5015 15.1668 6.7583 17.8835 0 18.5V11.1433C0 11.1433 4.32345 10.8879 6.86508 8.21575H0V0.500142H7.71561V6.84612L7.88878 6.84541L11.0417 0.500142H16.8768V6.80588L17.0499 6.8056L20.3211 0.5H28.8562Z" fill="#146EF5"></path>
<path d="M79.0662 16.5132H81.5511V2.25H79.0662V16.5132Z" fill="currentColor"></path>
<path fill-rule="evenodd" clip-rule="evenodd" d="M65.3675 16.3675C65.9075 16.592 66.4567 16.7043 67.015 16.7043C67.9373 16.7043 68.7626 16.4798 69.4908 16.0307C70.2189 15.5817 70.7833 14.9628 71.1838 14.1739C71.5843 13.379 71.7845 12.4778 71.7845 11.4705C71.7845 10.4632 71.5782 9.56211 71.1656 8.76718C70.7529 7.97226 70.1795 7.35634 69.4452 6.91943C68.711 6.47646 67.8766 6.25801 66.9421 6.26407C66.3475 6.26407 65.7771 6.37937 65.2309 6.60996C64.6848 6.84055 64.2297 7.16823 63.8656 7.593C63.8375 7.62534 63.8102 7.658 63.7837 7.69099V2.2591H61.2897V16.5132H63.7655L63.7605 15.1816C63.8245 15.2601 63.893 15.3368 63.9657 15.4118C64.3601 15.8184 64.8274 16.1369 65.3675 16.3675ZM67.9161 14.0647C67.5095 14.3135 67.0453 14.4379 66.5234 14.4379C66.0076 14.4379 65.5343 14.3104 65.1035 14.0556C64.6726 13.7946 64.3298 13.4397 64.0749 12.9906C63.8261 12.5416 63.7017 12.0318 63.7017 11.4614C63.6957 10.891 63.817 10.3813 64.0658 9.93227C64.3207 9.47716 64.6635 9.1252 65.0944 8.87641C65.5252 8.62155 66.0016 8.49715 66.5234 8.50322C67.0453 8.49715 67.5095 8.61851 67.9161 8.86731C68.3287 9.11003 68.6442 9.45895 68.8627 9.91406C69.0872 10.3631 69.1995 10.8789 69.1995 11.4614C69.1995 12.044 69.0872 12.5598 68.8627 13.0088C68.6442 13.4579 68.3287 13.8098 67.9161 14.0647Z" fill="currentColor"></path>
<path d="M32.4562 3.11471H35.2961L37.8365 12.3923L40.539 3.11471H42.9056L45.8365 12.2061L48.2759 3.11471H50.8791L47.038 16.5132H44.5895L41.6091 7.63159L38.8733 16.5132H36.3975L32.4562 3.11471Z" fill="currentColor"></path>
<path fill-rule="evenodd" clip-rule="evenodd" d="M55.0729 16.7498C54.0837 16.7559 53.1917 16.5374 52.3968 16.0945C51.6079 15.6454 50.986 15.0234 50.5308 14.2285C50.0818 13.4336 49.8573 12.5264 49.8573 11.5069C49.8573 10.5178 50.0879 9.62279 50.5491 8.8218C51.0102 8.0208 51.6352 7.39578 52.4241 6.94674C53.213 6.4977 54.0928 6.27318 55.0637 6.27318C56.156 6.27318 57.1117 6.5159 57.9309 7.00135C58.7562 7.4868 59.3721 8.17554 59.7787 9.06755C60.1913 9.9535 60.34 10.9699 60.2247 12.1168H52.428C52.4498 12.5737 52.5638 12.9894 52.77 13.3638C53.0006 13.7764 53.3222 14.098 53.7348 14.3286C54.1475 14.5592 54.6086 14.6745 55.1184 14.6745C55.5067 14.6684 55.8678 14.6017 56.2015 14.4743C56.5353 14.3408 56.8174 14.1618 57.048 13.9372C57.2847 13.7127 57.4516 13.4579 57.5487 13.1727H60.1519C59.9941 13.8705 59.6786 14.4925 59.2053 15.0386C58.7319 15.5787 58.1373 16.0004 57.4212 16.3038C56.7052 16.6072 55.9224 16.7559 55.0729 16.7498ZM52.7791 9.61369C52.6337 9.86727 52.5329 10.1403 52.4768 10.4329H57.6451C57.6076 10.0633 57.4935 9.72652 57.3029 9.42254C57.0844 9.06452 56.7871 8.78842 56.4109 8.59424C56.0347 8.39399 55.6099 8.29387 55.1366 8.29387C54.6329 8.29387 54.1748 8.40916 53.7621 8.63975C53.3495 8.87034 53.0218 9.19499 52.7791 9.61369Z" fill="currentColor"></path>
<path d="M73.6141 6.48253C73.6141 5.6694 73.7991 4.94729 74.1693 4.3162C74.5394 3.67905 75.0583 3.18449 75.7258 2.83254C76.3993 2.47452 77.1852 2.28944 78.0832 2.27731V4.48914C77.6645 4.49521 77.3065 4.5832 77.0092 4.75311C76.7179 4.91695 76.4934 5.15664 76.3356 5.47218C76.1904 5.76268 76.112 6.09946 76.1005 6.48253H78.0286V8.58514H76.099V16.5132H73.6141V8.58514H72.0121V6.48253H73.6141Z" fill="currentColor"></path>
<path fill-rule="evenodd" clip-rule="evenodd" d="M87.868 16.7316C86.8546 16.7316 85.9474 16.5101 85.1464 16.0672C84.3515 15.6181 83.7265 14.9992 83.2714 14.2103C82.8223 13.4154 82.5978 12.5143 82.5978 11.5069C82.5978 10.4936 82.8223 9.58942 83.2714 8.79449C83.7265 7.99349 84.3515 7.37151 85.1464 6.92854C85.9474 6.48556 86.8546 6.26407 87.868 6.26407C88.8874 6.26407 89.7977 6.48556 90.5986 6.92854C91.4057 7.37151 92.0338 7.99046 92.4828 8.78539C92.9318 9.58031 93.1594 10.4875 93.1655 11.5069C93.1594 12.5143 92.9318 13.4154 92.4828 14.2103C92.0398 14.9992 91.4148 15.6181 90.6077 16.0672C89.8007 16.5101 88.8874 16.7316 87.868 16.7316ZM87.868 14.447C88.402 14.447 88.8753 14.3256 89.2879 14.0829C89.7006 13.8341 90.0191 13.4882 90.2437 13.0452C90.4682 12.5962 90.5804 12.0834 90.5804 11.5069C90.5804 10.9244 90.4682 10.4086 90.2437 9.95957C90.0191 9.51053 89.7006 9.16465 89.2879 8.92192C88.8753 8.67313 88.402 8.54873 87.868 8.54873C87.3401 8.54873 86.8698 8.67313 86.4571 8.92192C86.0506 9.16465 85.735 9.51053 85.5105 9.95957C85.286 10.4086 85.1768 10.9244 85.1828 11.5069C85.1828 12.0834 85.2951 12.5962 85.5196 13.0452C85.7502 13.4882 86.0657 13.8341 86.4662 14.0829C86.8728 14.3256 87.3401 14.447 87.868 14.447Z" fill="currentColor"></path>
<path d="M95.8506 6.48253H93.0836L96.0782 16.5132H98.4994L100.469 10.1066L102.595 16.5132H104.98L107.984 6.48253H105.481L103.777 12.726L101.894 6.48253H99.4733L97.5995 12.8635L95.8506 6.48253Z" fill="currentColor"></path>
</svg>
